<mxfile host="app.diagrams.net" modified="2021-03-15T08:43:18.114Z" agent="5.0 (Windows NT 10.0; Win64; x64) AppleWebKit/537.36 (KHTML, like Gecko) Chrome/89.0.4389.82 Safari/537.36" etag="TGehN2O0-QylvPVcj05g" version="14.4.8" type="github">
  <diagram id="SDzah2p3ssNzNxArBLFp" name="Page-1">
    <mxGraphModel dx="2858" dy="1009" grid="1" gridSize="10" guides="1" tooltips="1" connect="1" arrows="1" fold="1" page="1" pageScale="1" pageWidth="827" pageHeight="1169" math="0" shadow="0">
      <root>
        <mxCell id="0" />
        <mxCell id="1" parent="0" />
        <mxCell id="R4Taz8y9dNXhoizLAWFS-16" value="" style="shape=image;verticalLabelPosition=bottom;labelBackgroundColor=#ffffff;verticalAlign=top;aspect=fixed;imageAspect=0;image=data:image/png,iVBORw0KGgoAAAANSUhEUgAABacAAAMmCAYAAADhRT1OAAAAAXNSR0IArs4c6QAAAARnQU1BAACxjwv8YQUAAAAJcEhZcwAADsMAAA7DAcdvqGQAAP+lSURBVHhe7N0HeBTV/sZxsoQYQhMQRBAVQex6VcSODb0q9vq393LtFEFBigUUUewdGyiCDUVERJHee+8t9BBqSEjl/efsHJwdJCFAstnZ/X6e5zz3Or9kA2Fn5sy7M+dXRgAAAAAAAAAAhBnhNAAAAAAAAAAg7AinAQAAAAAAAABhRzgNAAAAAAAAAAg7wmkAAAAAAAAAQNgRTgMAAAAAAAAAwo5wGgAAAAAAAAAQdoTTAAAAAAAAAICwI5wGAAAAAAAAAIQd4TQAAAAAAAAAIOwIpwEAAAAAAAAAYUc4DQAAAAAAAAAIO8JpAAAAAAAAAEDYEU4DAAAAAAAAAMKOcBoAAAAAAAAAEHaE0wAAAAAAAACAsCOcBgAAAAAAAACEHeE0AAAAAAAAACDsCKcBAAAAAAAAAGFHOA0AAAAAAAAACDvCaQAAAAAAAABA2BFOAwAAAAAAAADCjnAaAAAAAAAAABB2hNMAAAAAAAAAgLAjnAYAAAAAAAAAhB3hNAAAAAAAAAAg7AinAQAAAAAAAABhRzgNAAAAAAAAAAg7wmkAAAAAAAAAQNgRTgMAAAAAAAAAwo5wGgAAAAAAAAAQdoTTAAAAAAAAAICwI5wGAAAAAAAAAIQd4TQAAAAAAAAAIOwIpwEAAAAAAAAAYUc4DQAAAAAAAAAIO8JpAAAAAAAAAEDYEU4DAAAAAAAAAMKOcBoAAAAAAAAAEHaE0wAAAAAAAACAsCOcBgAAAAAAAACEHeE0AAAAAAAAACDsCKcBAAAAAAAAAGFHOA0AAAAAAAAACDvCaQAAAAAAAABA2BFOAwAAAAAAAADCjnAaAAAAAAAAABB2hNMAAAAAAAAAgLAjnAYAAAAAAAAAhB3hNAAAAAAAAAAg7AinAQAAAAAAAABhRzgNAAAAAAAAAAg7wmkAAAAAAAAAQNgRTgMAAAAAAAAAwo5wGgAAAAAAAAAQdoTTAAAAAAAAAICwI5wGAAAAAAAAAIQd4TQAAAAAAAAAIOwIpwEAAAAAAAAAYUc4DQAAAAAAAAAIO8JpAAAAAAAAAEDYEU4DAAAAAAAAAMKOcBoAAAAAAAAAEHaE0wAAAAAAAACAsCOcBgAAAAAAAACEHeE0AAAAAAAAACDsCKcBAAAAAAAAAGFHOA0AAAAAAAAACDvCaQAAAAAAAABA2BFOAwAAAAAAAADCjnAaAAAAAAAAABB2hNMAAAAAAAAAgLAjnAYAAAAAAAAAhB3hNAAAAIBilqoBbS/TGccdqqpJiUpISNjjSExMUqUqNVT7yON02vlX6rbH2uvtviO1ZKt9SQAAAEQdwmkAAAAAJSRbqTN/1HMX1VR8mTIq888IqMrhp+iCK2/RPf97Wq3bdlDHju3U+on7deNFx6lGQuCfr6t8dDM902uKNtpXBAAAQPQgnAYAAAAiXXKy9PHH0iOPSFddJV12mXTrrdILL0jDhkm5ufYLI9OWfg/rsPiQcDrhGDUflGaru8rW2ok91eLC2m6gHV9LF3f4Q6si+68JAACAvUQ4DQAAAESq8eOlyy/Pn7XnT9sLG4ceKnXvLmVm2m+MLFu+v0+1Am44HX/Yg/pxD7dC567+TU+fkqSA/Z4y8Yfr5k/nKtvWAQAA4H/5M1kAAAAAESUrS3ryyX+H0HsaxxwjTZ9uXyRSZGpS5/OUlP/nc8LpgGrc+pVW7/Eu6Fwt//JWb6jd4GH9uM6WAQAA4Hv5M1gAAAAAEWPbNunii/8dPBd1VKgg/fWXfbEIkJusT2+o4t4BHaisq95fpKKs0JG77ENdU8kNp8sEaumu3qTTAAAA0SJ/9goAAAAgIuTlSc2a/TtwNqNRI+mll6QffpAGDHDWoL79dql8+X9/rQmop061L1rKNnyn+w6Nz/9j2YA56UJ1nVbE5UfSftbDod9bJlGN2o9Shi0DAADA3/JnrgAAAAAiwmuv/TtoPuIIafBg+wW7kZIi3X33v7/vqKOkjNKPcdMGPaWjE3aGy2WU2Ki9RhX1j7W1r+6pEfjne8uUSdBxLQcr3ZYBAADgb/mzVgAAAAClbu1aKSnJGzD/5z/S+vX2C/agWzfv95rx8su2WFoyNKLtqUrM/7PsDJePeXqQ0mx1T7JndlPTCju/14wknf/KFEVm20cAAADsrfwZKwAAAIBS9/zz3mC5alVp5UpbLKIHH/S+RvXqUmYpRrmZk9X5vKT8P4oNl+Pr6oEfNtjinuQq+bObVSOkIWKZhGP09KCiRtsAAACIdPkzVgAAAAClascOZ/kOEyjvHG+9ZYt7YdMmqUoV7+v88osthl/2vLd1WSV3WY5AjVv11eqitELMlz1f719d3W2kmD8ST3lOQ8mmAQAAokb+bBUAAABAqVq82BsoH3CAtHWrLe6lRx/1vtaTT9pCuOVq2ac3qNo/dz4HVPmq97Uw25b3IOX3p3VSyFrVZeIP061fLlYRvx0AAAA+kD9bBQAAAFCq+vf3BspNmtjCPvjhB+9rXXyxLYTbOvW+q1bInc9JurDrtCKtF52b/IuePLWC+72BBDW8q6cWkEwDAABElfzZKgAAAIBS9dln3kD5rrtsYR9MmuR9rZNPtoUw2/SzHqkXn/9HsAFzYiM9PzLDFguWubi/nruotuJ3fl8gUQ2ue1NjirpUNQAAAHwjf7YKAAAAoFR98YU3UL7zTlvYBxMnel/rP/+xhfBK/7OVjg9ZliPh6KdUaC/DTfM06P0n1fTwxH/umA4kNdDlbX/UXNaZBgAAiEr5s1UAAAAApeq337yB8tln28I+6NPH+1qXXmoL4ZSh0R0aKzH/5+8Mp8sEKqj2iRfo2rsf17MvdtM7H36ijz98V2+8/Jweu+1SnVQrNJQ+VGfc2l49x61hjWkAAIAolj9bBQAAAFCqkpO9gXK5ctLGjba4l+6/3/taLVvaQhhlTtdrFybl//idwXRVXfBwJ7V+5FZdef6pOurgSor/p1GiqSeq+pH/0fnXPqBnX++pIfM32RcCAABANMufrQIAAAAodUcf7Q2VO3e2hb2wbp2UlOR9nUGDbDF8she+pysrB/J/vBM+BypfpfcX5dqqkav01BVasnC+FixerjUb0vO3AAAAINbkz1YBAAAAlDoTRoeGyhUrSgsW2GIR7Ngh3Xyz9zXi4qR58+wXhEuuVnxxi6qH3BmddHE3zWB9DgAAAOwif8YKAAAAoNRt2CAdeKA3XG7QQFq+3H5BIUww3bq193t3jtNOkzIz7ReGQ6r63ltH8fk/2wmnE3VGx7HKsFUAAABgp/zZKgAAAIBSl5MjXXzxv8PlGjWkr7+W8vLsF+5i0SKpWbN/f1/t2u7/f/pp+8VhsHWAnjgqPv/H2nA64QQ981e6LQIAAACu/JkqAAAAgFJ3zz1OkFyhghsqh4569aQnnpA++ED6/HPppZekSy6RAoF/f221as5yHldf7W775Rf7g0pW+tA2Oilh513TZRRf/zH132KLAAAAQIj8WSoAAACAUtW+vRsiX3ONdMMN7n/v7aheXZowwXlds1RI3brO9qpVpWXLnO0lJlPjXzxbSfk/zwmnA6p9Tx+l2CoAAAAQKn+WCgAAAKDUfPyxGyyffbaUkeEs4WEaJJYr59aKMsz3L11qX9gaPVoqW9apn3WWlF2CnQmzZ+uNSysokP+zguF0oLpu/ixZubYMAAAAhMqfoQIAAAAoFb/+6gbHDRtKqam2YM2fL911l3TAAW4Avbtx0klSr14Fr0v96qvu17ZpYzcWv9wlH+raKoH8H+OE04HKzfTughIMwwEAAOBr+bNTAAAAAGE3fryUlOQExgcfLC1ZYgu7sXmz1K+f1KGDdP/9TmD91FPO+tNz5tgvKoQJrS+7zA2of//dFopTrtb0vE01AzuX9CijpAte1dRMWwYAAAB2QTgNAAAAhNuiRVKNGk5QXLGiNHmyLZSglBSpdm3nZx50kLRypS0Ul3Xqe8+hirfBdJkyifrPc8OUYasAAADArginAQAAgHAyIXGDBk5IHB9fQncxF2DYMCkQcH52kyZSTo4tFIN13+n+w+JtMJ0/4uvqwR832SIAAADwb4TTAAAAQLikp0uNGzvhsBmff24LYfTCC+7PN8uEFItcJX91q2qFLOlRpsJ/9dY81psGAABAwQinAQAAgHDIzZWuvNINhk1IXBrMn+Oii5w/Q1ycNGSILeyHtLF68dxKCuwMps2ofJM+W2PrAAAAwG4QTgMAAADh8NBDbjD94IN2YylZvVqqWdP5s9SqJa1dawt7L2PFaPV4+HRVCb1r2oxAdTVp9b1mpHD3NAAAAHaPcBoAAAAoaS+/7AbTzZo5dy+XtsGDnTunzZ+paVMpL88WiiB1oDpe21TnndZQNRMDbiC9mxFIqqkG/zlP93w0Q5n22wEAAACDcBoAAAAoSV9+6QbTp58ubdtmCxGgbVv3z9a5s90IAAAAhAfhNAAAAFBS/vhDKlfOCX/r15fWrbOFCJGTI517rvPnCwSkESNsAQAAACh5hNMAAABASZgyRapY0Ql+DzpIWrDAFiLMihVS9erOn7NOHWn9elsAAAAAShbhNAAAAFDcli1zGg2awDcpSRo3zhYi1IABzp/VDLMm9t6sPw0AAADsI8JpAAAAoDht2CAdc4wT9JYtK/XvbwsRrmVLN6B+/XW7EQAAACg5hNMAAABAcdm+XTrnHDfk/egjW/CBrCypcWPnzx0fH/l3ewMAAMD3CKcBAACA4mCWwrj+ejeYbtvWFnxk6VKpShXnz3/44dLGjbYAAAAAFD/CaQAAAKA4PPGEG0zfdZfd6EM//uj+Pa67TtqxwxYAAACA4kU4DQAAAOyvbt3cQPeSS6TsbFvwqccfd/8+775rNwIAAADFi3AaAAAA2B+9e0txcU6Qe8op0tattuBjZu1s83cxf6eEBGnyZFsAAAAAig/hNAAAALCv/v7bCW9NiGvWaF692haiwMKFUqVKzt+tfn1pyxZbAAAAAIoH4TQAAACwL2bMcJsHVq0qzZljC1Hk22+dv58Zt9zC+tMAAAAoVoTTAAAAwN5asUI69FAntE1MlEaOtIUo9OCDbkD9ySd2IwAAALD/CKcBAACAvbF5s3TCCU5YGwhIP/xgC1EqPd39+5og3twxDgAAABQDwmkAAACgqLKypAsucIJaM95+2xainFmyJCnJ+Tsfc4yUlmYLAAAAwL4jnAYAAACKwqy3/H//5wbTLVvaQoz48kv373733XYjAAAAsO8IpwEAAICiaNXKDWdNSB2LzQHvusv9HZiwGgAAANgPhNMAAADAnrzzjhvKmmU9zPIescgs52GW9TC/B7PMx9y5tgAAAADsPcJpAAAAoDA//ug0PjSBrGkMaBoixrLp053GiOb3ceKJUkaGLQAAAAB7h3AaAAAAKMjIkW4QW6eOtGKFLcS4jz92fidmPPSQ3QgAAADsHcJpAAAAYHfMkhXVqjkBbJUq0owZtoDgetu33OIG1N9+awsAAABA0RFOAwAAALtavVo6/HAneE1IkP7+2xbwjy1bpPr1nd9RpUrSwoW2AAAAABQN4TQAAAAQautW6ZRTnNA1Lk7q3dsW8C+TJjnhvfldnXqqlJlpCwAAAMCeEU4DAAAAO2VnS5de6oStZnTtagso0DvvuL+vJ56wGwEAAIA9I5wGAAAAdrr7bjdoffxxuxGFMutPX3ut+3v76SdbAAAAAApHOA0AAAAY7dq5Aev110t5ebaAPdq40V2j+8ADpaVLbQEAAAAoGOE0AAAA8PHHbjB9zjnS9u22gCIbO1aKj3d+h2ec4SyRAgAAABSCcBoAAACxrX9/qWxZJ1Q95hhpwwZbwF7r1s0N+Vu1shsBAACA3SOcBgAAQOwaN05KSnLC1Fq1WI5if5mlUK64wg2oBwywBQAAAODfCKcBAAAQmxYulGrUcELUihWlyZNtAftl/Xqpdm3n91q9urRihS0AAAAAXoTTAAAAiD0pKVL9+k6AatZJHjTIFlAshg+XAgHn93veeVJOji0AAAAALsJpAAAAxJb0dKlxYyc4NePLL20Bxerll93fcbt2diMAAADgIpwGAABA7MjNlZo1c0PTF1+0BRQ787tu2tT5PcfFSYMH2wIAAADgIJwGAABA7HjwQTeYfughuxElZs0a6eCDnd93zZrOfwMAAAAW4TQAAABig7lLemcwfeWVzp29KHl//eXcOW1+7xddxO8dAAAA/yCcBgAAQPT74gs3mDbrTZt1pxE+7du7v3+WUgEAAIBFOA0AAIDoNmiQFB/vBKMNGkgpKbaAsMnJkZo0cf4NAgFp2DBbAAAAQCwjnAYAAED0mjxZqljRCUVr1JAWLrQFhN3KlVL16s6/Re3afEgAAAAAwmkAAABEqaVLpVq1nDA0KUkaP94WUGoGDnT+Pcy4/HIpL88WAAAAEIsIpwEAABB9NmyQjj7aCUHLlpV+/dUWUOpat3YD6q5d7UYAAADEIsJpAAAARJft26Wzz3YD0I8/tgVEhOxs6cwznX8b88HB6NG2AAAAgFhDOA0AAIDoYZaJuO46N5h+/nlbQERZtkw68EDn3+iww5w73QEAABBzCKcBAAAQPR5/3A2m777bbkRE6tfP/be65hppxw5bAAAAQKwgnAYAAEB0MOsX7ww7L73UWT4Cke2pp9x/s7feshsBAAAQKwinAQAA4H+9e0txcU7IecopUlqaLSCiZWZKp53m/LuVKydNnGgLAAAAiAWE0wAAAPC3IUOkhAQn4DziCGnNGluALyxaJFWq5Pz7HXmktHmzLQAAACDaEU4DAADAv2bMkKpUcYLNatWkuXNtAb7St6/zb2jGzTez/jQAAECMIJwGAACAPyUnS3XqOIFmYqI0apQtwJceecQNqD/80G4EAABANCOcBgAAgP9s2iQdf7wTZAYC0o8/2gJ8KyNDOukk59/0gAOkadNsAQAAANGKcBoAAAD+YproXXCBE2Ka8c47tgDfM8uyVKjg/Ls2bEhjSwAAgChHOA0AAAD/MGsR33KLG0w/84wtIGr07On++95xB+tPAwAARDHCaQAAAPhHy5ZucHnrrQSX0eqee9x/588/txsBAAAQbQinAQAA4A9vveUGlhdeKGVl2QKizrZt0rHHOv/W5ctLs2fbAgAAAKIJ4TQAAAAi3w8/OI0PTVh54onS5s22gKg1c6aUmOj8m5vml+nptgAAAIBoQTgNAACAyDZypBtSHnqotGKFLSDqffqp8+9uxgMP2I0AAACIFoTTAAAAiFxz5khVqzrhZJUqzt20iB1mTXGztvjOgPqbb2wBAAAA0YBwGgAAAJFp9Wrp8MOdUDIhQRo61BYQU7ZulRo0cN4HFStK8+fbAgAAAPyOcBoAAACRxwSS//mPE0jGxUnffmsLiElTpjgfUJj3g3lfbN9uCwAAAPAzwmkAAABEluxs6ZJLnCDSjG7dbAEx7b333PfEY4/ZjQAAAPAzwmkAAABElrvuckPIJ5+0GxHzzPrT11/vvje+/94WAAAA4FeE0wAAAIgcbdu64eMNN0h5ebYA5Nu0STriCOf9UbmytHixLQAAAMCPCKcBAAAQGT780A2mzz2XdYWxe+PHS/Hxzvvk9NOlrCxbAAAAgN8QTgMAAKD0/fKLVLasEzgec4y0YYMtALvxxhvuBxktWtiNAAAA8BvCaQAAAJSuceOkpCQnaDzkEGnZMlsACmDWn77ySjeg7t/fFgAAAOAnhNMAAAAoPQsWSAcd5ASMlSpJU6faArAHqanSoYc6751q1aTkZFsAAACAXxBOAwAAoHSsWycdeaQTLpYrJ/3xhy0ARTRypLsczNlnS9nZtgAAAAA/IJwGAABA+G3bJjVq5ISKZnz5pS0Ae6lLF/d99NxzdiMAAAD8gHAaAAAA4ZWbKzVr5gaKL79sC8A+yMuTLr3UfT8NGmQLAAAAiHSE0wAAAAivBx5wg8SHH7Ybgf1gloipVct5T9WoIa1aZQsAAACIZITTAAAACJ8XXnCD6auucu6iBorD339LcXHOe+uCC3hvAQAA+ADhNAAAAMLj88/dYPqMM6T0dFsAiknHju57rFMnuxEAAACRinAaAAAAJe/336X4eCc0bNBASkmxBaAYmbulzV3T5n1m7qI2d1MDAAAgYhFOAwAAoGRNmiRVrOgEhjVrSosW2QJQAsx602bdafN+O+QQZz1qAAAARCTCaQAAAJScJUukgw92gsIKFaQJE2wBKEGDBjnvOTMuvVTKy7MFAAAARBLCaQAAAJSM1FSpYUMnICxbVhowwBaAMHj2WTegfuUVuxEAAACRhHAaAAAAxS8jQzrrLDcc/OQTWwDCJDtbOvts5/1nPhwZNcoWAAAAECkIpwEAAFC8zBIK117rBtPt29sCEGbJyVK1as778NBDnbv5AQAAEDEIpwEAAFC8HnvMDabvvdduBEpJ//7u+/HKK6UdO2wBAAAApY1wGgAAAMXn1VfdIPC//5VycmwBKEXNm7vvy+7d7UYAAACUNsJpAAAAFI+vv5bi4pwA8NRTpbQ0WwBKWVaW1KiR894sV04aP94WAAAAUJoIpwEAALD/hgyREhKc8O+II6Q1a2wBiBCLF0uVK7vv0U2bbAEAAAClhXAaAAAA+2f6dDf0q15dmjfPFoAI8/33zvvUjBtuYP1pAACAUkY4DQAAgH2XnCzVqeOEfeXLS6NH2wIQoR591A2o33/fbgQAAEBpIJwGAADAvjHLIhx3nBPyBQLSTz/ZAhDBtm+XTj7Zed+apWimTrUFAAAAhBvhNAAAAPZeZqZ0/vlOwGfGu+/aAuAD8+dLFSs6792jjpK2brUFAAAAhBPhNAAAAPaOWaf3llvcYLp1a1sAfOSbb9z38K23sv40AABAKSCcBgAAwN5p0cIN9W67jVAP/nX//e57uUcPuxEAAADhQjgNAACAonvzTTfMu+giKSvLFgAfSk931003DT1nzrQFAAAAhAPhNAAAAIrmu++kuDgnyDvxRGnzZlsAfGzWLCeYNu/rY4+Vtm2zBQAAAJQ0wmkAAADs2YgR0gEHOAFe3brSypW2AESBzz933ttm3Huv3QgAAICSRjgNAACAws2eLVWt6gR3Bx7o3GkKRBOzbvodd7gBdc+etgAAAICSRDgNAACAgq1aJR12mBPYmTunhw2zBSDKbN0qNWzovNcrVJDmzbMFAAAAlBTCaQAAAOzeli3SySc7YZ1Za7pPH1sAotS0ae7yNSedJGVk2AIAAABKAuE0AAAA/i07W2ra1AnpzHj9dVsAotyHH7rv+0cesRsBAABQEginAQAA8G933ukGdE89ZTcCMcCsP33TTe77v29fWwAAAEBxI5wGAACA13PPucHcjTdKeXm2AMSIzZulevWcfaByZWnRIlsAAABAcSKcBgAAgOuDD9xg+rzzpMxMWwBizMSJUrlyzr5w2mnsCwAAACWAcBoAAACOn3+WAgEnjDv2WGnjRlsAYtRbb7kf1rC8DQAAQLEjnAYAAIA0dqxUvrwTwh1yiLRsmS0AMcysP3311W5A3a+fLQAAAKA4EE4DAADEugULpIMOcsK3SpWkadNsAYA2bJDq1nX2jwMP5IMbAACAYkQ4DQAAEMvWrpWOPNIJ3sz6un/+aQsA/jF6tFS2rLOfnHWWlJ1tCwAAANgfhNMAAACxats2qVEjJ3Azo2dPWwDwL127uvtK69Z2IwAAAPYH4TQAAEAsysmRLr/cDds6d7YFALuVlydddpm7zwwcaAsAAADYV4TTAAAAsej++92Q7ZFH7EYAhUpJkWrXdvYbs077ypW2AAAAgH1BOA0AABBrOnVyg+mrr5Zyc20BwB4NGyYFAs7+06SJ8xQCAAAA9gnhNAAAQCzp0cMNps88U8rIsAUARfbii+5+1L693QgAAIC9RTgNAAAQK8waufHxTqB21FHS+vW2AGCvmKcNLrrI2Zfi4qS//rIFAAAA7A3CaQAAgFgwaZJUoYITptWsKS1ebAsA9snq1c6+ZPapgw+W1q61BQAAABQV4TQAAEC0W7LECc9MiGYC6okTbQHAfhk82Llz2uxbTZtKeXm2AAAAgKIgnAYAAIhmZumOhg2d8Mws6fHbb7YAoFi0bevsX2a8/LLdCAAAgKIgnAYAAIhWptmhaXq4Mzj79FNbAFBscnKkc8919rFAQBoxwhYAAACwJ4TTAAAA0cgsL3DNNW4w3aGDLQAoditWSNWrO/tanTo0GwUAACgiwmkAAIBo9OijbjB93312I4ASM2CAu881a8b60wAAAEVAOA0AABBtXnnFDckuv9xZdgBAyWvZ0t33unWzGwEAAFAQwmkAAIBo0quXFBfnhGOnnSZt22YLAEpcVpZ0xhnO/mcakI4dawsAAADYHcJpAACAaPHnn1K5ck4wVq+etHatLQAIm6VLpSpVnP3w8MOljRttAQAAALsinAYAAIgG06ZJlSs7gZhpzDZ/vi0ACLsff3T2RTOuu07ascMWAAAAEIpwGgAAwO+WL5dq13aCsPLlpTFjbAFAqXn8cTegfucduxEAAAChCKcBAAD8zCwZcNxxTgAWCEj9+tkCgFKVmSmdeqqzbyYkSJMm2QIAAAB2IpwGAADwKxN+NWnihF9mvP++LQCICAsXSpUqOftn/frSli22AAAAAINwGgAAwI/MGrY33eQG023a2AKAiPLtt+5+esstrD8NAAAQgnAaAADAj5o3dwOvO+4g8AIi2YMPuvvrxx/bjQAAACCcBgAA8Jvu3d2g6+KLpexsWwAQkTIypBNOcPbZxERp+nRbAAAAiG2E0wAAAH7St68UF+eEXCefzBq2gF/MmSMlJTn77jHHSGlptgAAABC7CKcBAAD8Yvhw6YADnHCrbl1p1SpbAOALX37p7L9m3H233QgAABC7CKcBAAD8YPZsqWpVJ9Q68EDnvwH4z113uQG1CasBAABiGOE0AABApDN3SJs7pU2YZe6cNndQA/Ans5yHWdbD7M9mmQ+z3AcAAECMIpwGAACIZGZN6ZNOcoIss9a0WXMagL+ZhoimMaLZr02jRNMwEQAAIAYRTgMAAESq7Gzp4oudAMuMN96wBQC+9/HH7r790EN2IwAAQGwhnAYAAIhEO3ZId9zhhldPP20LAKKC2cdvucXdx7/91hYAAABiB+E0AABAJHr2WTe0uukmJ8gCEF3Msj316zv7ecWK0oIFtgAAABAbCKcBAAAizfvvu8F0kyZSZqYtAIg6kydLCQnO/n7KKezvAAAgphBOAwAARJJ+/aRAwAmqjjtO2rjRFgBErXfecT+QeuIJuxEAACD6EU4DAABEijFjpPLlnYCqdm1p+XJbABDVzLI9113nBtQ//mgLAAAA0Y1wGgAAIBLMny9Vr+4EU5UrS9Om2QKAmGCekjj8cOcYUKWKtGSJLQAAAEQvwmkAAIDStnatVK+eE0qVKyf9+actAIgpY8dK8fHOsaBxYykryxYAAACiE+E0AABAaUpLk047zQmj4uKkXr1sAUBM6tbNOR6Y0aqV3QgAABCdCKcBAABKS06OdPnlbhDVpYstAIhZeXnSFVe4x4UBA2wBAAAg+hBOAwAAlJb773cDqEcesRsBxLz166U6dZxjQ7Vq0ooVtgAAABBdCKcBAABKQ6dObjB99dVSbq4tAEC+ESOkQMA5Rpx7rvOkBQAAQJQhnAYAAAi3Hj3cYPrMM6WMDFsAgBAvv+weK9q1sxsBAACiB+E0AABAOA0cKMXHO2HTUUc5j+8DwO6YJyqaNnWOF6Zh6uDBtgAAABAdCKcBAADCZdIkqUIFJ2iqWVNavNgWAKAAa9dKBx/sHjdWr7YFAAAA/yOcBgAACIclS9yAyQTUEyfaAgDswV9/OXdOm+PHRRexRj0AAIgahNMAAAAlzSzd0bChEyyZJT1++80WAKCI2rd3jiFmvPii3QgAAOBvhNMAAAAlyTQ7NE0Pd4ZKphkiAOytnBypSRPnOBIISMOG2QIAAIB/EU4DAACUFPPo/TXXuMF0x462AAD7YOVK6aCDnOPJIYdIKSm2AAAA4E+E0wAAACXl0UfdYPq+++xGANgPAwe6x5XLLpPy8mwBAADAfwinAQAASsIrr7gB0uWXO4/kA0BxaN3aPb507Wo3AgAA+A/hNAAAQHHr1UuKi3OCo9NOk7ZtswUAKAbZ2dJZZznHmLJlpdGjbQEAAMBfCKcBAACK059/SuXKOaFRvXrS2rW2AADFaNkyqWpV51hTt660YYMtAAAA+AfhNAAAQHGZNk2qXNkJi6pXl+bPtwUAKAE//+wcb8y4+mppxw5bAAAA8AfCaQAAgOKwfLlUu7YTEpUvL40ZYwsAUIKeesoNqN96y24EAADwB8JpAACA/bVxo3TccU44FAhI/frZAgCUsMxMZ217c/wxSwpNmGALAAAAkY9wGgAAYH+YYKhJEycYMuP9920BAMJk0SJ3SSGz1v3mzbYAAAAQ2QinAQAA9pVZ3/Wmm9xg+tlnbQEAwqxvX/dYdOONrD8NAAB8gXAaAABgXz39tBsG3XEHYRCA0vXII+4x6cMP7UYAAIDIRTgNAACwL7p3d0Ogiy+WsrNtAQBKSUaGdNJJznHpgAOkqVNtAQAAIDIRTgMAAOwt8/h8XJwTAJ18srRliy0AQCmbN0+qUME5PjVsKG3dagsAAACRh3AaAABgbwwb5tyRaIKfww6TVq2yBQCIEL16OccoM26/nSWHAABAxCKcBgAAKKrZs6UDD3QCH/O/5r8BIBLde68bUH/+ud0IAAAQWQinAQAAisLcIV23rhP0mDunhw+3BQCIQNu2Sccd5xyzypeXZs2yBQAAgMhBOA0AALAnZk3pnU3GzFrTZs1pAIh0JpA2wbQ5dpmgOj3dFgAAACID4TQAAEBhsrOliy92wh0zune3BQDwgR493OPX/ffbjQAAAJGBcBoAAKAgpomYaSa2M9hp3twWAMAnzHHsttvc49jXX9sCAABA6SOcBgAAKEibNm6gc/PNTsgDAH6zdat01FHOsaxiRWn+fFsAAAAoXYTTAAAAu/P++24w3aSJlJlpCwDgQ1OnOs1czTHt5JOl7dttAQAAoPQQTgMAAOyqXz8pEHBCHNNEbONGWwAAHwv90O3RR+1GAACA0kM4DQAAEGrMGKl8eSe8qV1bSk62BQDwObM00Q03uAH199/bAgAAQOkgnAYAANjJrMNavboT2lSuLE2bZgsAECU2bZLq1XOPc4sX2wIAAED4EU4DAAAYa9e6gU25ctKff9oCAESZCROc45w53jVqJGVl2QIAAEB4EU4DAACkpUmnneYENXFxUq9etgAAUap7d+eYZ0bz5nYjAABAeBFOAwCA2JaTI112mRvSvPKKLQBAFDPrT195pXvs++UXWwAAAAgfwmkAABDb7r3XDWcefdRuBIAYkJoq1a3rHP+qVpWWL7cFAACA8CCcBgAAsatDBzeYvvZaKS/PFgAgRowaJZUt6xwHzz5bys62BQAAgJJHOA0AAGLTp5+6wfRZZ0kZGbYAADHGLGe083j47LN2IwAAQMkjnAYAALHnt9+k+HgniGnY0Hm0HQBilXlq5NJL3YB60CBbAAAAKFmE0wAAILZMnChVqOAEMAcfLC1ZYgsAEMPWrZMOOcQ5NtaoIa1aZQsAAAAlh3AaAADEjkWLpJo1nfDFBNSTJtkCAEBDh0qBgHOMPP98KTfXFgAAAEoG4TQAAIgN69dLRx3lhC5mSY+BA20BAPCPTp2c46QZHTvajQAAACWDcBoAAEQ/0+zwzDPdwOWzz2wBAOBh7pa+4ALnWBkXJw0ZYgsAAADFj3AaAABENxO0XH21G0ybuwIBAAUz602bdafNMbNWLWntWlsAAAAoXoTTAAAguj3yiBtMP/CA3QgAKNQff7jHzksukfLybAEAAKD4EE4DAIDo1bmzG65ccYWUk2MLAIA9eu459xjapYvdCAAAUHwIpwEAQHTq2dMNVRo1krZtswUAQJGYD/TOOcc5jpYtK40caQsAAADFg3AaAABEn8GDpXLlnEDlyCOldetsAQCwV5KTpWrVnOPpoYdKqam2AAAAsP8IpwEAQHSZOlWqVMkJUg46SFqwwBYAAPukf3/nmGpGs2bSjh22AAAAsH8IpwEAQPRYtkw65BAnQClfXho71hYAAPulRQs3oH7jDbsRAABg/xBOAwCA6LBxo3TssU5wYtZG/flnWwAA7LesLOn0051jbHy8NH68LQAAAOw7wmkAAOB/mZnSeec5oYkZH3xgCwCAYrNkiVSlinOcPeIIadMmWwAAANg3hNMAAMDf8vKkG290g+nnnrMFAECx++EH93h7/fWsPw0AAPZLzIXTi9ZnqO2AJZqUvDV/HsVECgAA33vqKTcoufNOuxEAUGIee8w97r73nt0IAACw92IunJ6yYqvKPD0sOA7rNFZP/rhQQxduUk4uQTUAAL7z+utuQNK0qZSdbQsAgBKzfbv0n/84x96EhPyLrCm2AAAAsHdiOpwOHQe1G6X7es/Tr7NStT07z341AACIWH36SHFxTjhy8snSli22AAAocQsWSBUrOsfgBg04BgMAgH1COL2bUbH1CN30xWz1nrxOW7bn2O8EAAARY9gw6YADnFDksMOk1attAQAQNr17O8dhM/7v/1h/GgAA7DXC6T2Mci2G6/KPZuiTMau1dmuWfRUAAFBqZs6UDjzQCUOqVpXmzLEFAEDYPfCAG1B/+qndCAAAUDSE0/njwGdH/mvb7kZc/jj37Sl6Y2iylqRm2FcEAABhs3KldOihTghi7pweMcIWAAClIj1dOv5457icmOh8gAgAAFBEMR9O/+e1icrOzdPgeRv0v+/m65AOYzz1wob53hcGLdWMVWnawSNsAACULLOe6YknOgGIWWv6u+9sAQBQqmbPlpKSnOPzscdK27bZAgAAQOEIp1+baCuOvLwdGrN0s575ZZEavDzO87WFDfO15nvM95rXAAAAxSgrS7roIif4MOPNN20BABARvvjCPUbfc4/dCAAAUDjC6V3C6VDmbuiZq7cF7442Xxf6fYUNc/f1I9/ND96Nbe7KBgAA+8E8nXTbbW7o0aKFLQAAIoY5Vt95p3us/uorWwAAACgY4XQh4fSuzDrT3Yeu0HnvTA2uPx36OgUNs571Hb3m6MfpKdqWmWtfCQAAFFnr1m7YccstTgACAIg8aWlSw4bO8bpCBWnuXFsAAADYPcLpvQinQ63bmqVPx6zW5R/NUELL4Z7XLGiUf2aEru0xU19NWKMN27LtKwEAgAK9+64bTJ9/vpSZaQsAgIg0bZrTsNYct02fgAwayQMAgIIRTu9jOB1qy/YcfTt5nW7+crYqth7hef2CRtnmw3Tx+9P03oiVWrmJC20AAP7lp5+kQMAJOI4/Xtq0yRYAABHto4/cDxYffthuBAAA+DfC6WIIp0Ntz87Tr7NSdV/veTqo3SjPzypsnNF9sl79a7nmr0u3rwQAQAwbPVpKTHSCjTp1pORkWwAARDyz/NLNN7sBdZ8+tgAAAOBFOF3M4XSonNwdGrZwk578caHqdhrr+bmFjeNfnaDnf1uiyclbg00ZAQCIKfPmSdWqOYFG5crS9Om2AADwjc2bpSOPdI7llSpJixbZAgAAgItwugTD6VAmZJ6UvFXtBizRca9M8PwZChuHvzBWT/20MBhy5+YRVAMAotyaNdIRRzhhRrly0pAhtgAA8J2J+dda5lhujumnnkrfAAAA8C+E02EKp3c1b126XvlzuRp3n+z58xQ2zDIh9387TwNmpQaXDwEAIKqkpTnhhQkx4uKkr7+2BQCAb739tnNcN+PJJ+1GAAAAB+F0KYXToVZsygw2Rrzo/WnBRomhf76Chmm8aBow9pmyLtiQEQAAX8vJP5dddpkbYLz6qi0AAHzNLFN4zTXu8b1fP1sAAAAgnI6IcDpU6rZsfTl+ja7pMVOJrYZ7/qwFjYSWw3XFxzP06ZjVWrc1y74SAAA+cs89bnDx2GN2IwAgKmzYIB12mHOMP/BAadkyWwAAALGOcDrCwulQ2zJz9cO0FN3ea46qPDvS8+cuaASaD1OTd6bqzWErtGzDdvtKAABEsPbt3WD6uuukPJauAoCoM2aMFB/vHOvPPFPKzrYFAAAQywinIzicDpWVk6c/5m7Qw33nq1b70Z6/Q2HjlG6T9OKgZZq1eluwKSMAABHl44/dYPrss6WMDFsAAESd115zj/nPPGM3AgCAWEY47ZNwOlRe3g6NXrJZrX5ZpPovjfP8fQobR708Xq37L9bYpVuCrwEAQKkaMEAqW9YJKRo2lFJTbQEAEJXMkzGXX+4G1L/9ZgsAACBWEU77MJwOZe6Gnr4qTZ1+X6qT8/8uoX+3wkbtDmP06PcL9Oe8jcrO5fFpAECYTZggVajghBMHHywtWWILAIColpIi1a7tHP+rV5dWrLAFAAAQiwinfR5O72rx+gy9MTRZ57w9RXEhf8/CRtXnRunOr+fop+kpSs/Kta8EAEAJWbRIqlHDCSYqVpQmT7YFAEBMGD5cCgSc88B550k5ObYAAABiDeF0lIXTodZsydLHo1fpso+mq1yL4Z6/d0Gj/DMjdN1ns9RzwlptTKdJCQCgmJk75ho0cAIJ0xjr999tAQAQU156yTkXmPH883YjAACINYTTURxOh9qckaNvJq3VjV/MUoXWIzy/g4JGfIthavrBNH0wapVWbc60rwQAwD5KT5caN3bDiM8/twUAQMzJzZUuvtg5H8TFSX/+aQsAACCWEE7HSDgdKiMrV/1nrte9veeqettRnt9HYePMNyer61/LtSAl3b4SAABFZEKIq65yg+kXXrAFAEDMWrNGqlnTOS+Y/gPmvwEAQEwhnI7BcDpUTu4O/b1go574cYEO7TjG87spbBz/6gS1H7gk+Ps0TRkBACjUww+7wfSDD9qNAICYZ+6YNndOm/ODuZPafJgJAABiBuF0jIfToUzIPHH5VrUdsETHdBnv+T0VNo54Yaye/mmhRizapNw8gmoAwC5eftkNpps1I3gAAHiZNad3nifMWtQAACBmEE4TThdo7tp0dflzuU5/Y7Lnd1bYqNFutB7oM0+/zU5VZk6efSUAQMz68ks3cDj9dGnbNlsAAMDKyZHOO885VwQC0vDhtgAAAKId4TThdJEkb9yud4av1IXvTVPZ5t5AuqBRqc1I/d9Xs9V3yjpt3Z4/4QQAxJY//pDKlXPChvr1pXXrbAEAgF2sWCFVr+6cM2rXllJSbAEAAEQzwmnC6b2Wui1bX4xfo6s+nakDWg73/D4LGubrmn0yQz3GrlZKWpZ9JQBA1JoyRapUyQkZDjpIWrDAFgAAKMBvvznnDTMuv1zK40lMAACiHeE04fR+ScvM1fdTU3Rbzzmq3Gak53db0Ag0H6bz352qt4at0PKN2+0rAQCixrJl0iGHOOFCUpI0bpwtAACwB8884wbUr71mNwIAgGhFOE04XWyycvL0+5wNeqjvfB38/GjP77mwcerrk/Ty4GWavWZbsCkjAMDHNmyQjjnGCRXKlpX697cFAACKIDtbOvNM5zwSHy+NGWMLAAAgGhFOE06XiNy8HRq1eLNa/rxI9V4c5/mdFzYadh6vNv0Xa9yyLcrLfw0AgI9s3y6dc44TKJjx4Ye2AADAXli6VDrwQOdccthh0saNtgAAAKIN4TThdIkzd0NPW5mmjr8v1UldJ3p+/4WNOh3H6LEfFuiv+RuVnct6cwAQ0cy6oDfc4AbTbdvaAgAA+6BfP/eccs015qLCFgAAQDQhnCacDrtF6zPUbUiyzn5riuJC/i0KG1WfG6W7vp6rfjPWKz0r174SACBiPPmkGyLcdZfdCADAfgg9t7z9tt0IAACiCeE04XSpWrMlSx+NXqVLP5yu+BbeQLqgkfTMCF3/2Sz1mrhWmzJy7CsBAEpNt25ueHDJJc56oQAA7K/MTOnUU53zS7ly0kSu3QAAiDaE04TTEcMEzV9PXKsbPp8VDKBD/50KGibQvuSD6fpw1Cqt3pw/eQUAhFfv3lJcnBMc/Oc/0tattgAAQDFYuFCqVMk5zxx5pLR5sy0AAIBoQDhNOB2RMrJy9fOM9br7m7mq1naU59+soGGWCDnrzSl6bUiyFqZk2FcCAJSYoUOlhAQnMDj8cGn1alsAAKAY9enjnGvMuPlm1p8GACCKEE4TTke8nNwdGjJ/ox7/YUGwSWLov19h48SuE9Vh4FJNXZkWbMoIAChGM2dKVao4QUHVqtKcObYAAEAJePhhN6D+6CO7EQAA+B3hNOG0r+Tl7dD4ZVv07K+LdXTn8Z5/y8JGvRfHqUW/RRq5eLNy818DALAfVqyQDj3UCQgSE6WRI20BAIASkpEhnXiic+454ABp+nRbAAAAfkY4TTjta3PWblPnwct02uuTPP+uhY2az4/Wg33maeCcVGXm5NlXAgAUiVnr84QTnHAgEJB++MEWAAAoYXPnSklJzjno6KOltDRbAAAAfkU4TTgdNZZv3K63h6/QBe9OVaC5N5AuaFRuM1K3fjVb301NUVpmrn0lAMBuZWVJF1zghAJmvPWWLQAAECZffeWeh+68k/WnAQDwOcJpwumolJKWpc/GrdaVn8zQAS2He/7NCxrm68zXfz5ujdanZdtXAgAEmYv/W291A4GWLW0BAIAwu+ce93z0xRd2IwAA8CPCacLpqLd1e07wzmhzh3SlNiM9//4FDXPntbkD29yJnbxxu30lAIhhzzzjBgH/93/cqQYAKD3btknHHOOck8wyH7Nn2wIAAPAbwmnC6Zhi1pg2a02bNafN2tOh74XCRqM3JgXXtjZrXANAzHnnHTeYNst6mOU9AAAoTTNmOE15zbnJ9EJIT7cFAADgJ4TThNMxKzdvh0Yu3qzm/RbqiBfGet4XhY2jO4/Xs78u1vhlW7SDOwcBRLsff3QaH+68+DcNEQEAiASffOJ+ePrAA3YjAADwE8JpwmnkMyHz1JVp6jBwqU54dYLnPVLYOLTjGD3+wwINmb9RObkE1QCizKhR7l1pdepIK1bYAgAAEWDXfgjffGMLAADALwinCaexGwtTMvTakGSd9eYUz/ulsFGt7Sjd/c1c/TJzvTKycu0rAYBPzZ0rVavmXOxXqeI8Pg0AQKTZskVq0MA5X1WsKC1YYAsAAMAPCKcJp7EHqzZn6oNRq3TJB9MV38IbSBc0KrQeoRs+n6WvJ67Vpowc+0oA4BNr1khHHOFc6CckSH//bQsAAESgyZOd85U5b/3nP9J2GpoDAOAXhNOE09gLG9Oz1WviWl3/2SyVf2aE571U0CjXYrj+++F0fTR6ldZsoYkYgAi3dat0yinOBX5cnNS7ty0AABDB3n3XOXeZ8dhjdiMAAIh0hNOE09hH6Vm56jdjve76eq6qPjfK874qaMTlj7PfmqLX/07W4vUZ9pUAIEJkZ0uXXupe3HftagsAAEQ4s/709de757AffrAFAAAQyQinCadRDLJz8/TX/I169PsFqt1hjOc9Vtg4qetEdfx9qaatTAs2ZQSAUnX33e5F/eOP240AAPjEpk3uslSmX8KSJbYAAAAiFeE04TSKWV7eDo1btkVt+i9Ww87jPe+3wsaRL41Ty58XadTizcHXAICwev55N5g2d57l5dkCAAA+Mm6cFB/vnM8aN5ayWFYPAIBIRjhd2uF09gL1fLKZmp53mhrUTFJiQoISdjsSVaXuSTr3kmv03E+rlGu/HZHN3A09e802vfTHMp36+iTPe6+wcfDzo/VQ3/kaNHeDsnIIiACUsI8/doPpc86hkRQAwN9ef909r7VoYTcCAIBIRDgdQXdOZ68eri5X1FZ8/iSqTMgIJDbUdV0GauFW+4XwrWUbtuutYSt0/rtTFWjuDaQLGlWeHanbes7R91NTlJbJxxIAiln//lLZss4F/NFHSxs22AIAAD5llsu78ko3oDbnOgAAEJEIpyNsWY/UnreqSiAknA4k6fRnh4ioIPqkpGWpx9jVavbJDCW0HO55XxY0ElsN11WfztQX49codVu2fSUA2Efjx0tJSc6Fe61a0tKltgAAgM+lpkqHHuqc46pVk5KTbQEAAEQSwumICqdztarH9aq0M5jOH4Fq1+iDhYSQ0W7r9hz1nbJOt3w5W5XajPS8RwsaZZsP04XvTdM7w1cqeSOP4APYSwsXSjVqOBftFStKkyfbAgAAUWLkSPfpILNsVU6OLQAAgEhBOB1R4XS6/m5zkhL+CacDqnrdx1rCSg4xJTMnT7/NTtUDfeapRrvRnvdrYeP0Nyary5/LNXdtun0lAChASopUv75zsW6aRg0aZAsAAESZzp2d850Zzz1nNwIAgEhBOB1J4XT2bL1xaQUbTOePQCVd8c58cd907MrN26Hhizbp6Z8W6vAXxnreu4WNY7qMV9sBSzRx+dZgU0YA+Ed6utS4sXuh/sUXtgAAQBTKy5MuucQ97/GBLAAAEYVwOoLC6dzlPXRD1YATTJuR1ERdJmfaKmKdCZnN+/f535bo+FcneN7HhY26ncbqiR8X6O8FG5WTS1ANxLTcXKlZM/cC/cUXbQEAgCi2dq3TW8Gc+8ySVqtX2wIAAP6TnZunaSvTgv3Iek3MP8f5HOF0BIXT6769W7VDmiEmntpOIzNsEdjFgpR0df1ruc58c7LnPV3YqN52lO7tPVf9Z67X9uw8+0oAYsZDD7nBtPn/AADEiiFDpLg45xx44YXOB7YAAES4bZm5GrN0s94fuVL3fztPp74+SQkth/+T81z/2Sz7lf5FOB0x4fQW/fLokYq3wXSZMgk6tvkgpdkqUJiVmzKDB6qmH0xTfAv3/V3YqNB6hG78YpZ6T16nzRk0hwGi3ksvucH0lVdyUQ4AiD0dOrjnwk6d7EYAACLDhm3Z+mv+RnUbkqzbes4JLtkaaL77TGfnuI5w2n8iNpxO/0utTkjInyfZcDq+nh7ut9EWgaLbmJ6tnhPW6toeM1X+mRGe93tBo1yL4brso+n6ePQqrd2aZV8JQNQw60rvvBg3602bdacBAIg15oPZCy5wzofmLuq//7YFAADCxyzbumJTZvCp9hcGLQ3mN4d1KnqfsdBxTf73+h3hdISE0xljO+qMxJ13TZdRoNad+sb/y8aglKVn5eqn6Sm68+s5OvDZkZ73fkEjLn+c+/YUvTE0WUtSWVcG8D3T+Ck+3rkQr19fSkmxBQAAYtCqVdJBBznnxUMOkdatswUAAIpfXt6O4LKsfaasU5v+i3Xph9NVo93o3eYx+zKu+pRw2nciM5zO1sxuF6uCDabLlAmo2g2fahlPXKMYmQXzB8/boP99N1+HdBjj2Q8KGyfn7yOdfl+qGavSgp/uAfCRKVOkihWdC3DTAGrhQlsAACCG/f67c24047//NcmBLQAAsO9CGxU+8eOC4I1/ldoU7UbBwsZRL4/XzV/O1qt/LQ++bmit2Scz7E/3L8LpSAincxfrg2uqKLAznA5U0uVvz1O2LQPFzXxyN3bpFrXuv1gNXh7n2ScKG/VfGqdWvyzS6CWbg68BIIItXSrVquVceCclSePH2wIAAFCbNm5A/cordiMAAEWzp0aF+zJMDzFzg+A938zV28NXaOTizdq63dsj7LfZqZ7vueJjwmnficRwOnd1T91aI+AE02Ykna9XpmTaKlCyzN3QM1dv04uDlumUbpM8+0dho1b70Xq473z9MXeDsnK42wSIKBs2SMcc41xwly0r/fqrLQAAgKDsbOnss91z5ahRtgAAgFdoo8Jbv5pdpEaFexpJz4zQWW9O0aPfL9CnY1ZrcvJWZRYhW/l9zgbP65j+YX5HOB0B4fSGHx7UYfE2mM4fiY3aaxRL/aKULN2wXd2HrtB570wNrj8dur8UNKo8O1K395qjH6alBD89BFCKtm93L7bN+PhjWwAAAB7Ll0tVqzrny7p1pdRUWwAAxKLibFQYOqo+N0oXvz8t+CT6N5PWas7abcrdx6fRB831htNmDWu/I5wu9XA6TYOeOloJNpguUyZBx7UcnL8VKH3rtmYFP8Ezj4kU9fGUxFbDg91ivxy/JvjpIoAwMmtmXn+9G0y3a2cLAABgt375xT1vXnWVSSZsAQAQzUqqUWGdjmOCTQo7DFyqfjPWa9mG7cXav8v0Egv9eU0/mGYr/kU4XdrhdMZItTs1MX8uZMPp+CP1v5832SIQObZsz9G3k9cFF+Gv2HqEZz8qaJRtPkwXvT9N741YqZWbWKoGKHFPPOFeYN99t90IAAAK9fTT7vmze3e7EQAQLcLRqNAseZqSlmV/Yskxy4uE/hnMHdl+RzhdyuF05uQuapK0867pMgrUvlvfrrNFIEJtz87TgFmpuq/3PB3UbpRnnypsNO4+Wa/8uVzz1qXbVwJQbF57zb2wvvRSZy1NAACwZ1lZUqNGzjm0XDmaCAOAj5VWo8Jw+XuBN5y+8D3Cad+JrHA6W/PfvlyVAjvD6YCq3dRDySzZCx/Jyd2hYQs36amfFu7VWkzHvTJB7QYs0aTkrcX6iAsQk3r3luLinIvqU06R0lgcCgCAvbJ4sVS5snMurVdP2sTTrAAQ6SKpUWG4DF24yfPnPf/dqbbiX4TTpRlO5yarx43VFAgG0/kjUElXvLtA3OsGvzIhswmbTehswufQfa2wYULtJ39cGAy597UpABCzhgyREhKci+nDD5fWrLEFAACwV777zjmfmnHjjaw/DQARwg+NCsNl+CJvOH3eO4TTvhNR4XRKH91TO+AE02YkXaiu01iXF9Fj/rr04NpLZjmP0P2usGGWCTHLhfw6KzW4fAiAQsyYIVWp4lxEV6smzZ1rCwAAYJ/8739uQP3++3YjACBcSrJR4ZWfzCixRoXhYpYUCf17mfWz/Y5wuhTD6S39H1P9eBtM54/Exh01OsMWgShjPuU0jRHNp5KmUWLofljQMI0XTXMB04jRNGQEEGLFCunQQ52L58REadQoWwAAAPts+3bp5JOd86t5Mmmq/+9IA4BItbNR4efj/N+oMFxGL/GG02e/RTjtO5ETTqfr79YnKsEG02XKJOiEVn/lbwWiX+q2bH05fo2u6TFTia2K1pjANDC4/KMZ+mTMaq3bGj0nFmCfbN4snXCCc+EcCEg//mgLAABgv82fL1Wo4JxnjzpK2rrVFgAA+yraGxWGi/kdhv4Oznxzsq34F+F0aYXTGeP0wlmJNpjOH/H19egvW2wRiB3mBPXj9BTd3muOqjxbtE9I4/KHWVep+9AVWrphu30lIEZkZkoXXOBcMJvxzju2AAAAis3XX7vn2ttuY/1pANgLsdioMFzGLdvi+b2YZVT9jnC6lMLp7Fmvq2mFnXdNl1F8nXvUJ8UW91Pu1g3awPIg8KGs/BOLeeTmke/mq1b7oq8pZfZj0xRh5uptvlwzCigy8/7+v/9zL5ZbtbIFAABQ7O67zz3n9uhhNwIAdqJRYfhNWO4Np09/g3DadyIjnM7Vkg+vVZXAznA6oOo3f64Vuba8j7LXTlLfzvfo3CPPUaexpNPwN9MEwaylZE5G9V8a59lvCxsNXh6nZ/K/xzzqYl4DiComjN55kXzrrdzFBQBASUpPl447zjnvli8vzZxpCwAQe8z19fx1NCosbZOSvbnmaa9PshX/IpwujXA6d4W++L8aCgSD6fwRqKTL356vbFveW9lrJujbl+7W2YcmOq+ZeIY6Ek4jipgT04xVacFPYs16UqH7cGHjkA5j9L/v5mvwvA3BRguAr739thtMX3ihlMXa6wAAlLhZs5xg2px/TVC9bZstAED02l2jwoqtR+z2untvxs5Gha/8GX2NCsPFLGcS+js9pRvhtO9EQjidu+Ir3XpwwAmmg2Hymftxp3O6pv7cU7+OnqDfO12q6uZubMJpRLnF6zP0xtDk4AnSrD8duk8XNA58dqTu6DVHP01PUXrWfj6mAITbDz84jQ/NhfGJJzoNEQEAQHh89pn7AbFZ6gMAogiNCv1l6so0z+/a/J79jnA67P+I2Zr/wdVOiGzD6fi6D6tfMTSAzpz6qi5IIpxGbFm7NUufjFmtyz6arnItinYCLf/MiOBaWF9NWBNs1ABEtJEjpcRE54L40EOlFStsAQAAhIV5vPz2292AulcvWwAAf6FRof9NX+UNp0/qSjjtO6UeTqcMUouT7fIbdiQc01yD0m19P+Quel9XViKcRuzanJGj3pPX6aYvZqtCER85Kpt/Im76wbTgp8SrNmfaVwIixJw5UtWqzoVwlSqsdQkAQGnZulVq2NA5J1eoIM2bZwsAEHloVBi9Zq7e5vk3OeHVCbbiX4TTYQunc7Vh1s96+dqjlBhy13RwxB+p67r+oYVb9m+pgdxlH+oawmkgKCMrN3givrf3XFVvO8qz3xc2zug+Wa/+tTzY6AEoVatXS4cf7lwEJyRIQ4faAgAAKBVTp0oHHOCcm086KX/CyTUXgNJHo8LYMmuXcPq4VwinfSfc4fTGwS/phqbnqfEJh6lKfMg60/8aAQUq1FSDk87SNV2GKc1+/97IXfaRriWcBv4lJ3eHhi7cFGzkUHcvPi0+/tUJev63JcHHkjgJI6zM3Vn/+Y9z8RsXJ337rS0AAIBS9cEHzvnZjP/9z24EgPCgUSHM3eqh/3ZmaRa/I5yOgoXDdyKcBvbMhMwTl29V2wFLdGyXCZ7jQWHj8BfG6qmfFmr4ok08toSSlZ0tXXKJe+H72mu2AAAASp25YeHGG93zdN++tgAAxYtGhdideevSPf+mDTsTTvsO4TSAUHPXpqvLn8t1+huTPceGwoZ5RMpMDgbMSqXRA4rfXXe5F7xPPGE3AgCAiLF5s1SvnnOurlxZWrTIFgBg34SjUeEkGhVGhQUp3nDa3PXud4TThNMArOSN2/XuiJW68L1pwUaJoceKgoZ5hOqWL2cH1/fiE2fst3bt3GD6+uvNAnK2AAAAIsqECVK5cs45+7TTpEwaawPYMxoVYn8tTMnw/NvXf2mcrfgX4TThNIDdSN2WrS/Gr9HVn85UYquiPTplHrG64uMZwU+l121ljS7spY8+coPpc8+Vtm+3BQAAEJHefNM9dz/9tN0IAI7dNSo8qF3Rm/UXNGhUGNsWr/eG0/VeJJz2HcJpAHsrLTNX309N0W0956hym5GeY0hBwzyC1eSdqXpz2IrgZAEo1C+/SGXLOhe3xxwjbdhgCwAAIGKZMOjqq92A+uefbQFArKFRIcJl6YbtnveI6Y/ld4TThNMA9kJWTp4G5U8KHu47Xwc/P9pzPClsnNJtkl76Y5lmrd7Gp9rwGjdOSkpyLmpr1cqfbSy1BQAAEPHMB8p16zrn8QMPlJYtswUA0YpGhShNyzd6w2mzLIzfEU4TTgPYR2YNr1H5k4aWPy/SkS+N8xxbChvm0+/W/Rdr3LItwUe9EMMWLJAOOsi5oK1UKf8kNcUWAACAb4we7T4BddZZUna2LQDwOxoVItKYXlmh76dDO46xFf8inCacBlAMzN3Q5jGujr8v1UldJ3qOM4WN2h3GBCclf87bGHwUDDFk3Tqpfn3nQtY0VPrjD1sAAAC+8+qrzjndjDZt7EYAfrFro8JraFSICLUy/30a+h4zmYLfEU4TTgMoAYvWZ+j1v5N19ltTFBdyzClsmInLXV/PDTa1SM/Kta+EqLRtm3T66e5F7Jdf2gIAAPClvDzpssvcc/vAgbYAINLQqBB+tnqzN5yu1X60rfgX4XQ0hdOL3teVwXC6kdqPIpwGIsWaLVn6aPQq/Td/0lOuRdHWIiv/zAhd99ks9ZywVhvTeTQ0quTmSs2auRevL71kCwAAwNdSUqTatZ3zu1m2a+VKWwBQWmhUiGizdmuW571oemH5HeF0FIXT6SOfV6PEMioTf5ge+CHVbgUQSTZl5AQf57rh81nBtcZCj0cFDdMc45IPpuuDUauCn5LC5x580A2mH3rIbgQAAFFh2DApEHDO802aSDk0NAPChUaFiAXrdgmna7QjnPad6Aunc7Vu6Id67ql7ddlxVRTInwSVKRNQYr0muv3xNur+2xJxzyUQmTKycvXLzPXBiU61tkV/jOzMNyer61/LtSAl3b4SfOPFF91g+qqrnLuoAQBAdHnhBfd836GD3QigONGoELFqfVq2531bve0oW/EvwukounMagH/l5O7QkPzJ1eM/LAh22w09ThU2Tnh1gtoPXBI8trGeWYT7/HP3QvWMM6R0PlwAACAqmQ+fL7rIOefHxUl//WULAPZWSTYqvIhGhfAh88HMru9lvyOcJpwGEGHMBGzC8i167tfFOrrzeM8xq7BxxAtj1bzfQo1YtImJVaT5/XcpPt65SG3QwFmTEgAARK/Vq6WaNZ1z/8EHS2vX2gKAgtCoENgzs1Ro6Pv7wGdH2op/EU4TTgOIcOZT/M6Dl6nRG5M8x6/CRs3nR+uBPvP02+xUHkUrbZMmSRUrOhenNWpICxfaAgAAiGqDBzt3Tps5QNOmJnmzBQA0KgT2zZbt3nC6chvCad8hnAbgZ8s3bg824rjg3alFXlOtUv7J6v++mq2+U9bRvCPclixx7pYyF6VJSdL48bYAAABiQtu2zjzAjM6d7UYgtuxsVPjeCBoVopRlL1DPJ5up6XmnqUHNJCUmJChhtyNRVeqepHMvuUbP/bRKkdQpyLzPQ/cF86GO3xFOE04D8CnTCMHcaXDVpzN1QBEnd+brzCNtn41bHfx+lKDUVOnoo52L0bJlpQEDbAEAAMSMnBzp3HOd+UAgII3wf4gAFGZ3jQrjdnNdsjeDRoUoCdmrh6vLFbUVn398LhMyAokNdV2XgVq41X5hhDEf9uy6f/gd4TThNIAoYD49/W5qSnACaB7rCT3OFTTMndfnvztVbw1bEbwjG8UoI0M6+2znQtSMTz6xBQAAEHNWrJCqV3fmBHXqSOvX2wLgXzQqRDRI7XmrqgRCwulAkk5/dog22HokysjyhtPlCaf9h3AaQLQzdxEMnJOqB/vMC649HXrMK2yc9vokvTx4mWav2UaDkP1h1pO89lo3mH7+eVsAAAAxyzxBtXNu0KwZ60/DV0q6UWH7gUtoVIhSkKtVPa5XJRNK2xGodo0+WBjZTxib6/3Q/cg8He13hNOE0wCimLnLwKy/1qLfIh3xQtHvZGjYebye/XWxxi/bEpyMYi889ph78XnPPXYjAACIeS1bunOE11+3G4HIkpWTp6lhaFS4biuNClHa0vV3m5OUkH9MdsLpgKpe97GWRNIC07th9tHQfatcC8Jp3yGcBhCrzF0IZqLZYeBSndh1oudYWNgwdzQ89sOC4Npxpqs2CtG1q3vR+d//OutMAgAAGFlZUuPGzjwhPl4aO9YWgNJBo0LEtOzZeuPSCjaYzh+BSrrinfmK9M5MObk7PPtc2ebDbMW/CKcJpwHEqIUpGXptSHKwuUjocbGwUa3tKN2dP9H8ecb64FpXCPHNN1JcnHPBeeqpUlqaLQAAAFhLl0pVqjjzhcMPlzZutAWgZNGoEPDKXd5DN1QNuOF0UhN1mZxpq5HLPNkcuh+aXlJ+RzhNOA0AWr05Ux+OWhVcP87c7RB6nCxomMno9Z/NUq+Ja7UpI8bvhhgyREpIcC40jzhCWrPGFgAAAHbx44/OnMGM664zj7fZArD/aFQIFM26b+9W7ZBmiImnttPIDFuMYGYf33X/9DvCacJpAPDYmJ4dDJxN8GwC6NBjZkHDBNom2DYBtwm6Y8r06VLlys4FZrVq0ty5tgAAAFCAxx93A+p337Ubgb1Do0JgX23RL48eqXgbTJcpk6Bjmw+SX5593XWf9fv+SThNOA0ABUrPyg0u4WGW8jB3S4QePwsa5vFA83ifeWRw0XoffPS8P5KTpTp1nAvLxERp9GhbAAAAKMT27dIppzhzCPP01eTJtgDsHo0KgWKU/pdanZBgg+n8EV9PD/fzzzJLZimP0P3Y708xEE4TTgNAkZhmiGadOtMc0dxNEXosLWyY5oumCaOZTEfVHRebNknHH+9cVAYC0k8/2QIAAEARLFwoVarkzCXq15e2bLEFxLpwNCocsWiTttCoEDEqY2xHnZG4867pMgrUulPfrLVFH9h1KU7TJNHPCKcJpwFgr5lHCMcv2xJ8fLBh5/Ge42pho96L49Si36Jg125ff7qbmSmdf75zMWkGj+MCAIB98e237nzilltYfzoG0agQCLdszex2sSrkH3edcDqgajd8qmU+6ve/64dV5skKPyOcJpwGgP1i7oaevWabXh68LHhXR+gxtrBR8/nReqjvfP0+Z4O/TqbmotFcPO68kHzmGVsAAADYBw8+6M4rPvnEbkS0MXNmGhUCESB3sT64pooCwWA6fwQq6fK35ynblv3ggF3C6e3ZhNO+QjgNACXLNEx5a9gKnf/u1H+thVXQqNxmZPBOke+mpigtM8I/sm7Rwr2AvPVW7nACAAD7Jz1dOuEEZ25heliYZsvwNRoVApErd3VP3Voj4ATTZiSdr1em+Kupf/lnvOvNm15RfkY4TTgNACUmJS1LPcauVrP8SXRR18kznwJf9enMYLOX9WkR9vn1W2+5wfRFF0lZNIwBAADFYM4cKSnJmWMcc4yUlmYLiHQ0KgT8ZcMPD+qweBtM54/ERu01ymd9/CvscoyJ+Bu89oBwmnAaAMJi6/Yc9Z2yTv/31WxVajPScywuaJg7ry94d6reGb5SyRu321cqJd9/7zQ+NBeNJ54obd5sCwAAAMXgyy/dD8HvvttuRCShUSHgd2ka9NTRSrDBdJkyCTqu5eD8rf6y6/W0udb2M8JpwmkACDvTkOW32al6oM881Wg32nNcLmw0emOSOg9eFlxLL6xGjJAOOMC5WDz0UGnlSlsAAAAoRnfd5QbUJqxGqaFRIRCFMkaq3amJNpjOH/FH6n8/b7JF/zDLYoYeWzZnEE77CuE0AEQW07DF3CHy9E8LdfgLRW8Kc3Tn8Xru18WasHxLya61N3u2VLWqc5FYpYo0c6YtAAAAFDOznIdZ1sPMO8wyH2a5D5QoGhUCsSNzchc1Sdp513QZBWrfrW/X2aKPHPisN5zemO6ndo7/RjhNOA0AEcNcHJjjtGnycsKrEzzH68LGoR3H6PEfFmjI/I3KyS3GSf/q1dJhhzkXiAkJ0tChtgAAAFBCTENE0xjRzD9Mo8QMny2GGsF2bVR4yQc0KgRiR7bmv325KgV2htMBVbuph5J9uFxztbbe41bqNsJpXyGcBgD/WJCSrq5/LdeZb072HLsLG9XzT9Rmzb5fZq5Xxv50Ld66VTr5ZOfCMC5O6tPHFgAAAErYxx87cxAzHnrIbsTeoFEhAI/cZPW4sZoCwWA6fwQq6Yp3F8iPse6uH6qtTyOc9hXCaQDwp5WbMvX+yJVq+sG0YOOY0GN5QcN0Mb7h81nBRyn3ah2u7PyTe9Om7kXh66/bAgAAQBiYu25vucWdi3z7rS1gd2hUCGCPUvrontoBJ5g2I+lCdZ2WaYv+smvfJr9/SEY4TTgNAL5j1tTqOWGtrvtslso/U7Q7YMq1GK7/fjhdH41epTVb9nDyvvNO92LwqafsRgAAgDDaskWqX9+Zj1SqJC1caAuxrSQaFZr5pHlSj0aFQPTa0v8x1Y+3wXT+SGzcUaN9umrSwc97w+k9Xt9GOMJpwmkA8LX0rFz9ND1Fd34951+NIQoa5gLmnLen6PW/k7V4/S4zkueec4PpG24wixPaAgAAQJhNnuz0vTDzklNOkTL9eZffvqBRIYDik66/W5+oBBtMlymToBNa/ZW/1Z8O6TDGc1xbtdnf5wbCacJpAIga2bl5+nPexuBdL7uesAsbJ3WdqE6/L9X0Nz/Xjp3B9LnnStu321cGAAAoJe+8435w/sQTdmN0oVEhgBKVMU4vnJVog+n8EV9fj/6yxRb9xxzbQo91ZglMPyOcJpwGgKhkLnLGLt2i1vkXOKZxTeixv7Bx5L291fKadho1bUXwNQAAAEqVCVOvvdYNqH/6yRb8iUaFAMIte9bralph513TZRRf5x71SbHFYpCbvkFr1qQqbT/68e+NQ3cJp5M3+vumKsJpwmkAiHrmDplZq7fpxUHLdEq3SZ7zQGGjVvvRerjvfA3Kv8AxF1IAAAClYuNG6fDDnXD6wAOlpUttIbLRqBBA6cvVkg+vVZXAznA6oOo3f64V+x0kZ2rJH2/p0StOVu0k02gxoITqR+uCOzuqz5QN9mtKxq5LHJmnQvyMcJpwGgBiztL8k/ebw1aoyTtTi9xAp8qzI3Vbzzn6YVpK8EILAAAgrMaOleLjnYC6cWMpK7LuDN7ZqPA1GhUCiCS5K/TF/9VQwN41XSZQSZe/PV/ZtrxvMjW35z06roIJpXeG3u6Ir3WB2v6+QiV11XjEC95wekmqTzs7WoTThNMAELvWrdO6Y07Wp8c30xXXdlVC86Gec0RBI7HVcF396Ux9MX6NUvMvxAAAAMKiWzcnnDajVSu7MbxKulFhy59pVAig+OSu+Eq3HhwSIieeqU5j9y/MzZ7/iW6oU1tn3dtV34+er7Vp6UqdN1SftWyquvHOz4pvcJ/6JpdMPH3kS+M8x89/Nfn3GcJpwmkAiE3btkmNGrkXeF99FXwk1DTiMesVFnXtw7LNh+nC96bp3RErgxdqAAAAJSYvT7riCnf+MmCALZQMGhUC8Ldszf/galX/Z0mPMoqv+7D6bbXlfZKpiZ3/q6Ydh+nfy1analiHc50lRAKVdeV7C/bzDu3dq79LOL0whXDaVwinAQDKyfFe2HXubAuu7dl5GjArNbg+4t5chJ3+xmR1+XO55q5Nt68EAABQjNavl+rUceYw1atLK1bYwv6hUSGAqJMySC1OTnSX9MgfCcc016D9uVTLXqD3H2+nIVvsf+9qbV/de1h8/s+K11FPDlSa3Vycdm34bz5E9DPCacJpAIg999/vBtOPPGI3Fiwnd4eGLdykp35auFePrR7bZYLaDliiicu3cjcQAAAoPiNGSIGAM5c591zng/e9QKNCANEtVxtm/ayXrz1KiSF3TQdH/JG6rusfWrhlX5fcSFdKSkHJdL7shXq3WYX8n5WgE575K/+ri9/Rnb3htN9vjCKcJpwGgNjSqZMbTF99df68Ze8mJSZknpy8Ve0GLNFxr0zwnFMKG3U7jQ3ehTR04aZg2A0AALBfXn7ZndO0a2c3/tvORoXdaFQIIMptHPySbmh6nhqfcJiq2LWfdz8CClSoqQYnnaVrugwr3rubc5fqw2sqqUygum7+vGSaIpqboEKPyWaNfj8jnCacBoDY8dln7kXcGWdI6fv/CbN5hOrVv5brjO6TPeeXwkb1tqN0b++5wUZCZvkQAACAvWY+YG/a1JnXxMVpxx9/0KgQAEpb+hA9c0KC4uvcrp4l1BBx15ukZq0mnPYVwmkAiFEDB0rx8c4F3FFHOes1FrOV+ReE5vHYi/Mv4EyjxNDzTUGjQusRuumL2eo9eZ02Z/DoKwAA2LOdjQr7/TlTWw+sHpzfpCQdqEMe/HG3842ijtBGhT9NT6FRIQDspfSR7XRaYpIatx+p/eq7WIgTXvWG0zNWlcTK1uFDOE04DQDRb9IkqUIFJ5iuWVNavNgWSo55hParCWuCdy0ltiraGo7lWgzXZR9N1ydjVmstzYIAAEC+PTUqvPj6N7TDzHHyx5BDT1HZJ4d45hcFjdBGhYNoVAgA+y93jX54qIEqnPCE+q8pmbumjZO6TvQcz6flnyP8jHCacBoAotuSJdLBBzvBtAmoJ0ywhfAxTYd+nJ6iO3rNUZVnR3rOQwUNsxakufh8Y2iylqRm2FcCAADRbF8bFb7Y+C5nrpM/2p91r6dGo0IACI9Nw9rpzOqnqcXANSWy1vROJssMPc6bDzD9jHCacBoAoldqqtSwoXOxVrasNGCALZQec/fTH3M36JHv5qtW+9Gec1Jhw5yvzPqR5pEtHq8FAMD/irNRYfyTf2l4nZOCc568uDh17/Q1jQoBIJxS/1a7c47UZV3HaJPdVFJO6TbJcw4wDfv9jHCacBoAolNGhnTWWU4wbcann9pC5DDrRZq7o575ZZHqvzTOc34qbJivbZX/PaOXbA6+BgAAiFzmQ+VwNCpcMHWBdlR31p9W7dpSSor9EwAASlTuUn338Glq/MRPWlaSt0xbp73uDacnLiec9hXCaQCIAXl50rXXusF0hw62ELnMhau5K9pctO76mFZh45AOY4J3YZu7sc1d2QAAoPTsbFTYZ8o6tem/WJd+OF0HtRu123P43ozQRoX9ZqwvuFGhaQC9c/5z2WXOnAgAUII2aOQrV+j02z7VjHS7qYSd/sZkzzli/LIttuJPhNOE0wAQfR591L0wu/deu9FfzDrT3YeuCK47XdRHfM161rf3mhNc39qsWQkAAEpOdm5esAlVQY0K93Xsd6PC1q3deVDXrnYjAKD4pWnax7fqjKte0+gNdlMYnNHdG06PI5z2F8JpAIhyr7ziXpCZO4Zy/N/wZ23+ReknY1br8o9mqFyLPTdFMiOx1fDgY8Nfjl8TXNMSAADsu52NCt8fuXeNCgsbplHhSV1LoFFhdv55/8wznbmQ6bkxerQtAACKT7pm97xPZzVtq0GrC7gxKH22fv99hoq7vf2Zb3rDaXN+8jPCacJpAIgevXpJcXHOxdhpp0lp/u5avDubM3LUe/I63fTFbFUo4t1ZZZsP08XvTwt2/l+5KdO+EgAA2J3dNSoM5J9Ld3eOLeoo/8yIYJjw6PcL/mlUuD27BJfcWLZMqlrVmRMddlj+XyqMt/QBQNRL16ye96lRo/v1xcRlSk5O9oxli+dq8pBv9PL/naXbeixVcT/TevZbUzznmFGLCad9hXAaAKLUX39J5co5F2H16klr19pC9DIXtb/OStW9veeqetuir2fZuPvk4KPCZk1MAABi1a6NCq8toUaFc9ZuU25pNDD++WdnXmTG1Vebv7AtAAD23RZN/fROHV8hkH94LVPoCNS+Xb1WFf9yi2YZqdDzjnnyxs8IpwmnAcD/pk2TKld2Lr5Ml/r5820hduTk7tDQhZv05I8LVXcvLqyPe2WC2g1YEryDa7eNlQAAiAKl3qiwtDz1lBtQv/WW3QgA2Ffr+v1PRyfuOZguUyZeh9//vdbZ7ytOTd6Z6jkXDcu/DvQzwmnCaQDwt+XLpdq1nYuu8uVZVzGfuSieuHyr2g5YomO7TPCc9wob5m6xp35aGJzclModXgAAFIOIbVRYGjIznaXOzDzJPGE2ketfAPC7C971htPmJiU/I5wmnAYA/9qUfxI+7jjngisQkH76yRYQat669OCF9OlveBtnFDbM3WT39Z6nAbNSS3ZNTAAA9oOvGhWWlkWL3CfMjjxS2uzvtUkBINZd+N40z3lryPyNtuJPhNOE0wDgT+ZOoCZNnAstM957zxZQGLO25rsjVgbXwjSNEkPPiQUNc7eZuVPs28nr/H1xDgDwtZJsVPi/7+aHp1Fhaenb150z3Xgj608DgI+ZZveh57I/5xFO+wrhNABEAXNBdfPN7kVWmza2gL2Rmn+R/8X4Nbr605lKbFW0u8zM3WhXfDwjeAHvi8eZAQC+E/WNCkvLI4+4c6cPP7QbAQB+c8kH0z3ntz/mbrAVfyKcJpwGAP9p3ty9uLr9du7+KQZpmbn6YVqKbus5R5XbjPScKwsa5m61896Zqu5DV2jphu32lQAAKDrTqHBBirdRYY12o3d73tmbEdqo8KfpKZHXqLA0ZGRIJ53kzJ8OOMBpKA0A8J3/5p8rQ895pg+CnxFOE04DgL907+4G0xddJGVx925xy8rJC05wHu47Xwc/X/SA4JRuk/TioGWauXobAQAA4F92Nio0T+3sbFRYqYgfiBY2fNmosLTMmydVqODMoxo2lLZutQUAgF9c9pE3nB44J9VW/IlwmnAaAPzju++kuDjngsrc+bNliy2gpJjHnUct3hx8BPrIl8Z5zqGFjQYvj1Pr/os1dumW4F1xAIDYQqPCCNarl/tBP0+gAYDvmGUWQ8+Ppom9nxFOE04DgD8MH+48gmoupOrWlVautAWEi7kbevqqNHX6fWkwHAg9nxY2ancYE2w0ZRp1mLvmAADRJbRRoVkeikaFPnDvvW5A/fnndiMAwA/MslWh50zTo8HPCKcJpwEg8s2eLVWt6lxAHXigNGuWLaA0LV6fodf/TtY5b09RXMi5tbBhmlHd+fWc4Pqf6Vm59pUAAH6wu0aFh79Ao0Jf2rZNOu44Z25Vvrwz1wIA+IJpaB96Hv2FcNpfCKcBwGdWrXLulDYXT+bO6WHDbAGRZM2WLH00elWwOUe5FkV7bNvcFXfdZ7PUc8JabUzPtq8EAIgENCqMAebDfhNMmznW8cdL6em2AACIZNf08IbT/WYQTvsK4TQA+IhZU/rkk52LJrPWdJ8+toBItikjJ3jn2w2fz1LSMyM8592ChllH9JIPpuuDUau0anOmfSUAQDiUVKNC03+ARoURrkcPZ55lxv33240AgEhmbvAJPd/+OD3FVvyJcJpwGgAiU3a21LSpe8H0xhu2AD/JyMoNPmZmmldVazvKcw4ubJh1Rrv+tTx41x4AoPiUZKPCu2lU6D/mrvXbbnPnW19/bQsAgEhlbgIKPQ9/P5Vw2lcIpwHAB8yF0h13uBdKTz9tC/CznNwdGjJ/ox7/YYEO7TjGcz4ubJzw6oTg49/mHM6j3wBQdDQqRJFs3SoddZQz56pYUZo/3xYAAJHopi9me87N3xFO+wvhNAD4wLPPusH0TTc5YTWiigmZJyzfoud+XayjO4/3nJsLG0e8MFbN+y0M3pVHsywAcJhj6koaFWJ/TJ3q9PYwcy+zpNr27bYAAIg0Zsms0PO16Q/hZ4TThNMAEFnef98Nps87T8pk/eFYYAKPzoOXqdEbkzzn6cJGzedH64E+8/Tb7FRl5nDXHoDYsLNRYV8aFaK4hc7BHn3UbgQARJr/+8obTveeTDjtK4TTABDBfv5ZCgSci6LjjpM2brQFxJLlG7cH1yy94N2pRX783DTuMpO0Wau32VcBAP+jUSHCynwYccMNbkD9/fe2AACIJGaprtDz+tcT19qKPxFOE04DQGQYM0YqX965GKpdW1q+3BYQy1LSsvTZuNXBu/kOKELDLrP+KQD4UWijQvNUCI0KUSo2bZLq1XPmY5UrS4sX2wIAIFLc0csbTvcinPYXwmkAiECm8U716s6FUKVK0rRptgC4tm7PCTb7uPWr2QXeOUg4DcAPdm1UeGyXCTQqROSYMEEqV86ZlzVqJGVxZz0ARJI7v/aG019NWGMr/kQ4TTgNAKVr7Vr3Dh1zIfTnn7YAFMysMT1wTqrnnG4G4TSASBKORoXmUV4aFaLYde/uzM3MePppuxEAEAnME1Gh8wKz/JefEU4TTgNA6dm2TTrtNPfip2dPWwCK5v5v53nO64TTAEpLuBoVLqVRIcLBvMeuvNKdo/3yiy0AAErbvb294bRZBtHPCKcJpwGgdOTkSJdf7l70dOliC0DREU4DKA00KkRMSE2V6tZ15mlVq9IPBAAixK7XQD3GEk77CuE0AESI++5zg+n//c9uBPYO4TSAkkajQsS00aOlsmWd+drZZ0vZ2bYAACgtZj4SOq/4xOfXQITThNMAEH4dO7rB9NVXS7m5tgDsHcJpAMWJRoXAbrz6qjtva9PGbgQAlJaH+s73zDU+Gr3KVvyJcJpwGgDCq0cP9wLnzDOljAxbAPYe4TSAfbGzUeGvs1JpVAjsSV6e9N//uvO333+3BQBAaXjkO284/cEowmlfIZwGgFI0cKAUH+9c2Bx1lLR+vS0A+4ZwGsCelFSjwtodaFSIGLJunXTIIc4c7qCDpFX+DkIAwM8e/X6BZ05ilh7zM8JpwmkACI+J+cfbChWci5qDD5YWL7YFYN8RTgMIFdqo8MkfFxZro8KbvqBRIWLc0KFSIODM5c4/n2XZAKCUPPaDN5x+dwThtK8QTgNAKTBBdM2azsWMCahNUA0UA8JpIHbt2qjwNBoVAiWvUydnPmdGhw52IwAgnJ740RtOmzmLnxFOE04DQMkyS3eYJTzMRYxZ0uO332wB2H+E00BsMI0Kh5Rgo0LT5Z5GhUARmLulL7zQmdfFxUlDhtgCACBcnvppoWdO8+YwwmlfIZwGgDAyzQ5N08Odd9iYZohAMSKcBqILjQoBH1idf66tUcOZ29WqJa1dawsAgHBo3s8bTr8xNNlW/IlwmnAaAEqGubPmmmvcYLpjR1sAig/hNBA9zJ3LNCoEfOKPP9w53iWXmM6jtgAAKGkt+i3yzH1e/5tw2lcIpwEgTP73P/ei5b777EageBFOA9Fj+KJNnv25KINGhUApeu45d67XubPdCAAoaa1+8YbTrw0hnPYVwmkACIMuXdyLlcsvl3JoJoWSQTgNRA/TfDB0fw4dNCoEIpCZ351zjjPfCwTyd+IRtgAAKEmt+y/2zJNe/Wu5rfgT4TThNAAUr5493WD6tNOkbdtsASh+hNNA9Bi1eLNnfzaDRoVAhEtOlqpVc+Z9deo4jbABACXq2V+94XSXPwmnfYVwGgBK0J9/SuXKORco9erRIAcljnAaiB5jlnrD6TPfnGwrACJa//7ujQnNmpnOprYAACgJz+0STncevMxW/IlwmnAaAIrHtGlS5crOhclBB0nz59sCUHIIp4HoMW7ZFs/+3Lg74TTgGy1auAH166/bjQCAktBuwBLPnOmlPwinfYVwGgBKwPLl0iGHOBck5ctLY8bYAlCyCKeB6DF+l3C60RuTbAVAxMvKkho3duaC8fHSuHG2AAAobu0HesPpFwYttRV/IpwmnAaA/bNxo3Tssc7FiGmG06+fLQAlj3AaiB4Tl3vn6ae+TjgN+MqSJVKVKs6c8PDDnTkiAKDYdfx9qWfOZP7bzwinCacBYN9lZkrnnedchJjx/vu2AIQH4TQQPSYne+fpp3QjnAZ854cf3Hnh9dez/jQAlIBOu4TTHQYSTvsK4TQAFBNzsXHTTe4FyLPP2gIQPoTTQPSYujLNsz+fzDwd8KfHHnPnh+++azcCAIrLi4OWeeZMz/+2xFb8iXCaSS8A7Junn3YvPO64gztjUCoIp4HoMW2XcPrErszTAV/avl065RRnjpiQIE2muSkAFKeXB3vD6bYDCKd9hXAaAIrBG2+4wfTFF0vZ2bYAhBfhNBA9ZqzyhtPHvzrBVgD4zoIFUsWKzlyxQQNpyxZbAADsry5/LvfMmZ79dbGt+BPhNOE0AOydPn2kuDjnYuPkk7nYQKkinAaix6zV2zz783GvEE4Dvta7t3szw//9H0/ZAUAxefUvbzjdpj/htK8QTgPAfhg2TDrgAOci47DDpFWrbAEoHYTTQPSYs9YbTh/TZbytAPCtBx5wA+pPPrEbAQD7o+su4fQzvyyyFX8inCacBoCimTVLOvBA5+KialVp9mxbAEoP4TQQPeauTffszw07E04DvpeeLp1wgjN/TEyUZsywBQDAvuo2JNkzZ2r5M+G0rxBOA8A+WLlSqlvXubAwd04PH24LQOkinAaix/x13nC6wcvjbAWAr5kbGpKSnHnkMcdI27bZAgBgX7wx1BtON++30Fb8iXCacBoACmfWlD7pJOeCwqw13bevLQClj3AaiB4LUzI8+3P9lwingajxxRfOXNKMe+6xGwEA++LNYSs8c6anfyKc9hXCaQDYC9nZ0kUXuRcT3bvbAhAZCKeB6LF4vTecrvci4TQQNUwzxDvvdOeUX31lCwCAvfXWLuH0kz8STvsK4TQAFJG5iLj9dvcionlzWwAiB+E0ED2WpHrD6cNfGGsrAKJCWpp09NHOvNIs8zF3ri0AAPbGO8NXeuZMj/+wwFb8iXCacBoAdq9NGzeYvvlmJ6wGIgzhNBA9lm3Y7tmf63YinAaizvTpTv8SM7888UQpI8MWAABF9d4Ibzj96PeE075COA0ARfDee24w3aSJlJlpC0BkIZwGokfyRm84fWjHMbYCIKp89JE7z3z4YbsRAFBUH4xa5Zkz/e+7+bbiT4TThNMA4NWvnxQIOBcMxx0nbdxoC0DkIZwGosfKTZme/bl2B8JpICqZp/HMU3k7A+o+fWwBAFAUH+4STj/cl3DaVwinAaAQY8ZI5cs7Fwq1a0vJybYARCbCaSB6rNrsDadrtR9tKwCizpYtUv36zpyzUiVpob+beQFAOH082htOP9hnnq34E+E04TQAOObPl6pXdy4SKld21gQEIhzhNBA91mzJ8uzPNZ8nnAai2qRJUrlyztzz1FNZRg4Aishc84TOmcw1kZ8RThNOA4C0dq1Ur55zcWAuEv76yxaAyEY4DUSPdVu94XSNdoTTQNR7+21n/mnGk0/ajQCAwnw2zhtO39ebcNpXCKcBYBdpac7dKuaiIC5O6tXLFoDIRzgNRI/1adme/bl621G2AiBqmfWnr73WDah/+skWAAAF+XzcGs+c6Z5v5tqKPxFOE04DiGU5OdJll7kXBK+8YguAPxBOA9EjdZs3nK76HOE0EBNM8+3DD3fmogceKC1dagsAgN35crw3nL7ra8JpXyGcBoAQ997rBtOPPmo3Av5BOA1Ej43p3nC6yrMjbQVA1Bs7VoqPd+akZ5whZWfbAgBgVz0nrPXMme7oNcdW/IlwmnAaQKzq0MENps3jlHl5tgD4B+E0ED02Z+R49ufKbQingZjy2mvu3PSZZ+xGAMCuvp7oDadvJ5z2F8JpAMj3ySfu5P+ss6SMDFsA/IVwGogeW7d7w+mKrUfYCoCYYG6UuPxyd446YIAtAABCfTPJG07f+tVsW/EnwmnCaQCxxkz0y5Z1Jv0NG0qpqbYA+A/hNBA90jJzPftz0jOE00DMWb9eql3bmadWry6tWGELAICdvp28zjNnuuVLwmlfIZwGENMm5h/zKlRwJvwHHywtWWILgD8RTgPRIz3LG04nthpuKwBiyvD8fT8QcOar553nNPAGAPyj7xRvOH3TF4TTvkI4DSBmLVok1azpTPQrVpQmTbIFwL8Ip4HosT07z7M/H9CScBqIWS+95MxZzXj+ebsRAGB8PzXFM2e64fNZtuJPhNOE0wBigXlE8qijnAm+6YQ+cKAtAP5GOA1Ej6wcbzhdrgXhNBCzcnOliy925q5xcdKff9oCAOCHad5w+vrPCKd9hXAaQMwxzQ7POMOZ3Jvx2We2APgf4TQQPbJzveF02ebDbAVATFqzxlmGzsxfzf+a/wYA6Kfp3nD62h4zbcWfCKcJpwFEM3PXydVXu8F0p062AEQHwmkgeuTm7fDsz3H5A0CMM3dMmzunzTz2ooucuS0AxLifZ6z3zJmu/pRw2lcIpwHElEcecYPpBx6wG4HoQTgNRI8dO7zhtBkAEFxzeud81qxFDQAxrv9Mbzh95SczbMWfCKcJpwFEq86d3Yn8FVfQ6RxRiXAaiC6h+7MZJrAGEOPMHPa885w5bSAgDWc9egCx7ddZqZ75UjPCaX8hnAYQE776yg2mGzWStm2zBSC6EE4D0cUs5RG6T5ulPgBAK1dK1as7c9vataWUFFsAgNjz22xvOH35R4TTvkI4DSDqDR4slSvnTN6PPFJat84WgOhDOA1EF9MEMXSfNk0SASDot9/cmy8uv1zK4/gAIDb9PmeDZ7703w+n24o/EU4TTgMRL3frCs0aNVB9PnlLPYaskqcNSuZaTfu9p97p/LzatH5OL7zZU0Pmb7LFGDR1qlSpkjNpP+ggacECWwCiE+E0EF3KtRju2aezcgifAIR45hk3oH7tNbsRAGLLH3O94fQlHxBO+wrhNBDZMtfO0cgBvfVRt/Z6+r4bdWnjo1UzKZA//yyjMgkn6pkh6fYrN2jyN211/UnVFR/Ir5m6HYFqp+iejycp5iLqZcukQw5xJuvly0tjx9oCEL0Ip4HockBLbzi9PZtwGkCI7GzpzDOd+W58vDRmjC0AQOwYPM8bTjf9YJqt+BPhNOE0EEFyldy/q5q3aqsO7Vvp9rNqKT4kdI5v8Jh+3ZL/ZVum6ouHT1f1+ETVPuF8NbvxZjVrXFdJISF1IPEY3d9nqfcu62i2caN07LHORL1sWemXX2wBiG6E00B0SWzlDafTs2LmTA6gqMwNGQce6Mx7DztM2rDBFgAgNvw1f6NnvnTR+4TTvkI4DfhH5oSXdHbSzsA5XnXu7auU1FF6/ep6qnr8Lery8wyl7rxmzV6hP9pfpJohAXXCSa30pwmzo11mpnTuuc4E3YwPPrAFIPoRTgPRJemZEZ59Oi2TcBrAbvTr5859r7lG2kHzVACx4+8F3nD6gnen2oo/EU4TTgMRK2NUe52eaMPmQHXd8tEfeuf6+qp90fMalJxtvypE+mh1OCPR+XozEo7WU4PSbDFKmUYwN97oTs6fe84WgNhAOA1El4qtveH01u05tgIAu3jySXcO/PbbdiMARL9hCzd55ktN3iGc9hXCacAvcrX4g6tV2d4JHajQWNdde6JqnP60flle0F1U6Rrc8jgl5H+9E1BX0H/fmqfdxNjR46mn3En5nXfajUDsIJwGokvlNiM9+/TmDMJpAAUwTw+edpozDy5XTprItT2A2DB8kTecPo9w2l8IpwG/WKfed9VS4J+guYwCNZqqy9jC1unI1KTO5ynpn+9J0jkvT8zfGqVef90Npps2dRrEADGGcBqILlWe9YbTG9M5twEoxKJFUqVKznz4yCOlzZttAQCi18jFmz3zpXPenmIr/kQ4TTgNRKZNP+uRevE2ZM4fgeq6tNsUpdvy7mVoTMfGStz5PWUqqOnrM6Pzzulvv5Xi4pyJ+MknS1tiYXFt4N8Ip4HoUvW5UZ59OnUb4TSAPejb171h4+abWX8aQNQbvcQbTp/1JuG0rxBOA/6QNriljkvYGTIHVOGMdhq+x/w1Tb/87zDFB78nfwSq6favU20tigwdKiUkOBNw06F8NWEcYhfhNBBdqrf1htPr0winARTBww+7AfVHH9mNABCdxi7d4pkvndF9sq34E+E04TQQgTI0qn0j9w7o+Dq6redy7bFff/Zsdb+0gvM9ZiSdrZcmRNmiHjNnSgce6Ey8q1aV5syxBSA2EU4D0aVGu9GefXrd1ixbAYBCZGRIJ53kzJEPOECaPt0WACD6jFvmDacbE077C+E04AOZU/XK+Un/hMwJJ7XSn0VZtWJtL91eM+B+3zHNNSjN1qLBypXSoYe6k+4RI2wBiF2E00B0qfm8N5xes4VwGkARzZ0rVajgzJWPPlpKi6YLAQBwTVjuDacbvTHJVvyJcJpwGog42fPf1uWVdobMiWrUfpQybK0wKd/dr8Pi7V3TZRJ0zFO/K2pWYjbNXU480Zlsm7Wmv//eFoDYRjgNRJda7b3h9KrNUdvWGEBJ6NnTmS+bcccdrD8NICpNSvZmm6e+TjjtK4TTQKTL1fIeN6pawIbMiWeo45giRNO5q/XNXXX+WW86kNhYHUYV3j5xf6Rl7nGRkeKTlSVdeKE70X7zTVsAQDgNRJfaHcZ49umVmwinAeyle+5x581ffGE3AkD0iLZsk3CacBqIMOvU+65aCuRPJoNLc5z8rIYVJZte2kM3/bOkR0C1bvhEC0qwh9IxXcYHH51pO2CJhi3cpKycPFspZuZuj9tucyfYLVrYAgCDcBqILod29IbTyRu32woAFNG2bdKxxzpz56QkafZsWwCA6DB1ZZpnvnQy4bS/EE4DEW7Tz3qkXrwNmRN09FODtOfV4jI07sVzVMHebR2ocKY6jNxqa3uWu3WDNhRl3ZAQDTuP9xxLKrQeoWafzNDbw1do7tp07SiuRwhbt3aD6Vtu4dFEYBeE00B0qdtprGefXraBcBrAPjBNxBMTnTn08cdL6SX3RCUAhNv0Vd5w+sSuhNO+QjgNRLa0wS11XIITMpeJP1wP99toKwXLXd5b9xxpA+1Aok5uPlDrbK0w2WsnqW/ne3Tukeeo09i9S6d3Dad3HebOr/t6z1OfKeu0Pm0fb+F+9103mD7/fCmTR5uBXRFOA9Hl8Be84fSS1L389BgAdvr0U3cu/cADdiMA+N/M1ds886XjX51gK/5EOE04DUSQDI18vpESTcicPwK171bvPaXMuWs14MkTlRi8azqgCqe21O9rC18POnvNBH370t06+9BEZ/kQs651MYfToSMuf5z2+iQ99+tiDV24SZlFWQLkxx+lQMCZTJu7PTZtsgUAoQingehS78Vxnn160XrCaQD7yDxxeOutbkD9zTe2AAD+NnuNN5w+tgvhtK8QTgMRLHOKXjk/KRhMm6C5+s2fK7nQnDlXyT8/rpOTnLWmAzUu0ksj9nSndbqm/txTv46eoN87XarqJtQu4XB615H0zAhd8fEMvTVsheas3fbvJUBGj3YfQ6xTR0pOtgUAuyKcBqJL/Ze84fTCFMJpAPthyxapQQNnXl2xorRggS0AgH+ZpURD50umJ5afEU4TTgMRI3ve27q8km1qGKisq95fpMKy6S2T39P1hzvLeQSSjte9veZrbxa+yJz6qi5IKp5w+vupKXpjaLL+++F0JbYa7qntadTpOEb39p6rbyevU8rUOVK1as4EunJlafp0+xMB7A7hNBBdGrzsDafnr2OdWAD7acoUKSHBmV//5z/S9v1byz4vb0fwqY7v8uf/5snIjKzCn9oEgOI2L39+FDpfMvmEnxFOE04DESJXyz69QdVsU8MyCcfq8f4ptrarXKWMfUc3N3SW5QhUOlH3fDa9CI0TvXIXva8rKxVPOG1ODjttz87TX/M3qnX/xcFjTOjXFWWcetsnerbJI/q775CiLQECxDDCaSC67Hp+NXcGAcB+e+89J5w247HH7MY9y87N04xVafpy/Bo99dNCNXlnqiq3Gek5TuXm0bAcQHgtSPGG0+bDfT8jnCacBiLEWn1zZy1nDejgCCj+sKZq8dkILQtJnTNWTdR3nW/Tf6qaO6wDqtDwGr04cOle3TG9U+6yD3VNCYTTu1q7NUvfTFqru7+Zq0M6jPF8356GWQLk8o9mqP/M9fbVAIQinAaii3ksNXSfNmsqAsB+M8voXX+9G1D/8IMtuNKzcjVu2RZ9OGqVHuwzT43emKQDWhb+RGSF1iPsdwNA+JinN0KPRUe+RDjtK4TTQITa9LMerucs0VGmTIIaXn6bLmtYSYEyASUefLROb3KxLjzzBNWtHAhui69+sq5v87nGrNn3x+hyl32ka8MQTocy60vPWr1N3Yeu0GUfTVf5Z0Z4XqegcV/vefYVAIQinAaiy3GvTPDs0+acCQDFwjQYP+KIYDi9sUZt/T18TnBZvtt7zQkeewLN3WNPUYe58aSk5G5doVmjBqrPJ2+px5BV3uUOM9dq2u899U7n59Wm9XN64c2eGjKfBupArFiS6g2nj3hhrK34E+E04TQQEdL+aKFjE0wwnT/iG+iJAVuVu2GWfvuok5685xZde/VVuvam2/Vg8456q9dgzVqXbb9z35VGOL0rswTIkAeeVZtzHtIpt33qec3QQTgN7B7hNBBdjn/VG06bx+kBYF+ZG0NWbc7UgFmpeumPZbr+9RE64r4+nuPM/oziakKWuXaORg7orY+6tdfT992oSxsfrZq26XuZhBP1zJCd1xobNPmbtrr+pOqK37kcoh2Baqfono8niYgaiH5LN2z3HIsOJ5z2F8JpIBJlaOTzpynRTqzi69yrvqm2VIIiIZxW+/bOo4VmXHed1m3ert6T13le2wzCaWD3CKeB6HJiV2+vhmkrCacBFI1pVLgwxW1UaJ5SrPn8aM8xZV+GuTv6io9n6PnflqjVL4s8tcbdJ9ufvj9yldy/q5q3aqsO7Vvp9rNqKd5eFwWvjRo8pl+35H/Zlqn64uHTVT0+UbVPOF/NbrxZzRrXVVJISB1IPEb391laaFN5AP63fKM3nK7biXDaVwingQiUOVldmiTZSVVA1W/5QivCMKMq9XD644/dYPrss6UM98/QY+xqz+sTTgO7RzgNRJeT8+fmofu0mbsDQGE+yT/3765R4b6M+i+N041fzFLnwcv0+5wNwd4xoQbN3eD5+qYfTLOV4pM54SWdnbQzcI5XnXv7KiV1lF6/up6qHn+Luvw8Q6k7r5WyV+iP9hepZkhAnXBSK/1pwmwAUWvFpkzPsahOx5JbYigcCKcJp4FSlz3vbV1WyT62FqisK99bqP1ftGPPSjWc/vVXqWxZ9cj/OyfXqyelem8VJ5wGioZwGogup3Sb5NmnJycTTgMoXLNPZniOG0UZZZsP04n39tJdlz6nN8+5S8PHzNfmjBz7igUzd2WHvs71n82yleKTMaq9Tk+0YXOgum756A+9c3191b7oeQ1K3s1VUvpodTgj8Z9wukzC0XpqEE+dANHMLFcUeiwqyfXvw4FwmnAaKGW5Wvbp9aq689P+pIv02vRMWytZpRZOT5ggJSXpBTuBPObII5WSkmKLDsJpoGgIp4Hocurr3nB64nLCaQCFO++dqZ7jxq7DNCA/o/tkPfLdfH08epUmLN8S7PuikSODN4vkT8iVa55izN7z7TG7ztHv+WaurRSXXC3+4GpVttdGgQqNdd21J6rG6U/rl+UFPVqarsEtj1OCvbYoU6aC/vvWvLDc7AOgdKzeJZyu1X60rfgT4TThNFDK1uqbO2spYCdTiad30Ki9y4n3WXGG04d1GqvXhiQH18Y0jVcKtGiRVKNGcBL8VkKCnUCW0WmnnaYtW9zn7wingaIhnAaiS6M3vOH0+GU8mw6gcLsuB3TgsyPVot8i9Zq4VrNWb1NObiFz8y5dtCZ/Ln5G/vjsiivsxoJ1H7rC87Oe/HGhrRSXdep9l3ttZEagRlN1GVvYsTBTkzqfp6R/vidJ57w8MX8rgGhllhwKPRaZ9fX9jHCacBooXak/6sHD4+1EKl5HPtpf4bpHqjjD6dBxcP6J4Y5ec/TVhDXBTzT/Ye6ObtAgGEwrPl76/Xd17NjR/t3LqEmTJsqw604TTgNFQzgNRBfTXCx0nx67lHAaQOGOeGGs57ixaH3R5/XTpkxR3QMOCM7Fy+WP2aYnTCE6/b7U87NMk8RitelnPVJv57VR/ghU16XdpqjwZzQzNKZj43+ay5s7p5u+PpM7p4EolpLmDacPajfKVvyJcJpwGihFuVrd+27VjXcnUle8syBsE6mSCqd3HSd2naiW38/VoEvvUHr8AU44/fnnwdcxd1k/+eST9u9fRs2aNVN2djbhNFBEhNNAdDnzTW84PWbpZlsBgN2r1naU57hhQpui6N+/vypWrBicg8fljy5mjm6ecFxd8FzC3JEd+rPMk5PFKW1wSx2XsPPaKKAKZ7TT8D1+RpemX/53mOKD35M/AtV0+9fefjYAokvqtmzPscgcB/2McJpwGig9G4ar/bmVQx5bS9QZHUbv4c6A4rM/4fSvs1L1YJ95OnyXOzX2NA54fLCatuoXnMhOXZmmvLwd+SNPd999t/0dlNFtt92mT0av9Hwf4TSwe4TTQHQ5+60pnn161GLCaQAFMzd6xLdwjxlmZObk2WrBunXrpkDAacielJSkHzt1kuLinJtILrww/0Jh9+s7P5A//w/9WR+NXmUrxSFDo9o3cu+Ajq+j23ouV0ErTf8je7a6X1rhn2uJMkln66UJLOoBRLMNu4TTVZ8jnPYVwmmglG2dpd+/+EDdnn9E15xcw/2E345ApWN15ZOd9e6nX+nrXyZo9R5nY/sud9H7ujIYTjdS+31c6NpMiBekpOu9ESt19aczVanNSM8xZk/DrA11e685+mz0Cv232VX//B4uuO4ulXlq6D9fRzgN7B7hNBBdznnbG06PWLTJVgDg3zKycj3HjISWw21l98wTivfff/8/c+7atWtr8uTJTrFjRyecNsOE1ZaZ75ulQr6fmuL5WWb0nrzOflUxyJyqV85P+ufPlnBSK/1ZlJWN1vbS7TWdoD34fcc016A0WwMQlTZl5HiORVWeHWkr/kQ4TTgNhFXu8mHq+e7bevvtPY/3+o5XST6Qlj7yeTVKzJ/ExR+mB34onp+UnZunkYs3q/3AJcGu4IGn3YB5j+PxP1ShfqN/JpZlTr/9nxrhNLB7hNNAdDnvnamefXrYQsJpAAXbtSlYYeuubtiwQRdccME/c23TkHzVqpA7n3NzlXPBRZpZvZ6+Ova/evqdoTr/3anB0Cf0Z4SOAbOK72ole/7burzSzpA5UY3aj1JRbp9J+e5+HfbPMokJOuap38Vq/UB027LdG06bm+T8jHCacBqIMblaN/RDPffUvbrsuCp2SZGAEus10e2Pt1H335YU35rXX36pjQdU1A8Nmuih/3tVR3Qa4zn+7HY8OlBlDj7GTi7zx3mPBLcTTgO7RzgNRBcTBIXu00MJpwEUwjzBGHrMOPKlcbbyb7Nnz1blypWDc+zrr79eqZu2avyyLcGlOR7qO1+nvzFZiS2He15vT6P4nu7I1fIeN6pawF4DmGUHxxQhms5drW/uqvPP06iBxMbqMCpciyQCKC1pmd6nRiq0HmEr/kQ4TTgNoCT88YdUrpzzWGD9+tK6dcFHAhemZOj9kSt1TY9ClgB5pL/KVDvCmZia0bQV4TRQAMJpILpc+N40zz49ZP5GWwGAf5uU7L2+P6XbJFvxMo/Amw+7HuzaUydc/ZCOf2W8yjZ3v29fxgEth2v2mm32J+yvdep9V61/evEknPyshhUlm17aQzf9s6RHQLVu+EQLwtVdHkCp2bZLOJ30DOG0rxBOAyhxU6ZIlSo5wfRBB0kLFtiCl1kCxDR66jBwqc58c7ICoRPkB35QmcqH2IlmGV345Fv2uwCEIpwGostF73vD6T/nEU4DKJj5ACv0mGGevlizJUsD56Tq5cHLdMPns4J3U4d+zb6Mym1GBl/76Z8W6qsJazRjVVpwLl9sNv2sR+rF27l/go5+apD2vGx0hsa9eI4q2LutAxXOVIeRW22taHLTN2jNmlT9f3v3AR5Vsb4BPAkBQpdmoSldBQUsIIJeFRSsYAHECqJiQ0V6kQ6CBaQjgnQEkV6lhg6ht0BoSaghkIRUUn1vvrOz2Zy4CSmbZM/Z9/c88/wvO7pe/3fPOTPvmZkvMhfr/BCR46U9b9+re8bn7Ts7htMMp4nIkQICgHvusQTTRYsCe9LfWphWaHQ8Fh8JRueFfrhv8G64dZwPt6JltMGmewFPrF27Vv2VRGTFcJrIXJpP0ofT/5wMUT1ERP+19Oh13T3DEe3u73fixcmH0bftQCyq8T+cK10J/27P3fNcI9d3w4OFLCGzm+e96Lz09i/mEgPno0M1FWh7eKFe1zXIXHnGWJz/51d88VI9VCgqq649UKhsbTzz/kAsOMh7LpERxCYk6e5btysG6+wYTjOcJiJHCUkezN1/vyWYLlAAWLFCdWSd9QiQ/rM3oWBRy9l4RYoUwY4d6Rd5IXJFDKeJzOWFyUd01/Q6htNElAFZxZz6nqE1qeHy5br/fm6nyapqWV0tq6xXn7iBKzdj1TcnCwwESpe2jO0rVwZu5Fap9hhs7/8YvCRkTm4eFT7E/NulzIlBWPX1Q/DSVk17oNgj3bA2KDPLn2NxcnYHPFjMehSIvnne/Qz6rr0ILqQmcm6ycyP1vczzO2/VY0wMpxlOE5Ej3LoFNGliGbxKmzxZdeTcnj17UKxYMW3AWKpUKRw6dEj1EBHDaSJzaTlFH07L1nwiovSM33ZJd89w6/gn3MpWhVuNp+D2zZaUz+V86bojffD+XF+M3nJRO39azqG+reXLbeP7V1+VFSSqw4FiD+KH/xXVxvoSNJdt+wcuZJgOJ+LCsq9QT1v17AaP8s9h6LbMHYEU7zcVb1asgMYdR2HRTj8ERUbjxqktmN6tOSp7Wr7Ps8ZHWJjxfwEiymcJif/q7n1yjzMyhtMMp4kop5KSgDfesA1c+/ZVHY6zceNGFCpUSBsw3nnnnfDz81M9RK6N4TSRubw45ajuml51nOE0EaVv+PoA2z2j7QS4FSmljZeltegxGVN2XoZPYLh2Pmu2de1qG+ePHq0+dJz4U2PxYgm1ktmjJF6deDbDlcvhBybgjXstx3l4FK2DjnP8kGq9dwZisW94CzQf6I1g9YnNDXgPaIpSshI7+b/DKxNOg3UViZxXUpI+nHZPbkbGcJrhNBHl1Ndf2wasH3ygPnS8pUuXokCBAtpAtEqVKrhw4YLqIXJdDKeJzOXlqfpwesWx66qHiOi/RmwIxDPjD6Hltz/Ds6BlIYeMlydOnKj+CgeIiwMee8wy1i9YENi7V3U4QiICfn8TZVRRQ7dCD+CrFf+Nji0SEbx7HNrW8oJH8l/rUeIhdJh+JBOFE5X405j4VT9sCld/TitoITpWkdDbEzW/XpP57yWiPCfHgKYeL0mTz4yK4TTDaSLKiZ9+sgXTzz+fPOjL3TUGs2bNsgxck1vt2rURHJze4JXINTCcJjKXV38/prumlzOcJqIMSBjTr1+/lPGxHIG3fv161etA584BJUtaxvxVqwJhYaojp4Iw7/27tbDZ8u/gAc8qzfHd9G0ISJUOx1zeh7+Gv4P6pS0FDIvVaoUha/wzuWLaKjp57pBeMp0s/gzGvyxHCRZC3R4bk/9qInJmslo69ZhJVlMbFcNphtNElF3z5yc/Edwtg9T69YGICNWRu8aOHasGr2545JFHcPPmTdVD5HoYThOZS6tp+nB66VGG00RkX0xMDN56662UcXH16tXh6+urenPBokW2RSlvvumY86fDlqFzVcsRHRIK13rxHbSsVQIebh7wuqs2Hn+6GZ59oi4ql/TQPvMsWw9v9PoDu67mwpnQif6Y3KoE3DzKou0fLIpI5Ow8utrGS9ISGU4bB8NpInKIzZuBQoUsg9N77wWu5G0gNmjQIDWIdcPTTz+tDc6JXBHDaSJzaZ0mnF58hDuEiOi/ZPfgY489phsP37iRB2fUf/GFLaB2wNEhkf98hwcKWf4d3DxroMuqCCSGHMfqKYPwdYd2aP3aq2jd5l180nUgfp2zHsev5eIuzehN6FG3EDwrvovZLIhI5PQ8v7ONl6TFJyapHuNhOM1wmoiy6tgxoFQpy6C0dGkgN1dopEO2MH7zzTeWgWxye/nllxGfy0eKEDkjhtNE5vLG9OO6a3rRIYbTRPRft27dQqNGjbRxcMeOHREn50LnheR/LurVs8wDZKHKoUOqIztisL3/o/BS43nPih2xMB9rwEZv74dHvYqi4ffbkTf7QYkoJwp126obM8UmMJw2DIbTRJQjFy8ClSpZBqReXsD27aoj7yUlJaFDhw7aYFZa+/btkZjIVQ7kWhhOE5nLWzP04fRfDKeJKB1BQUGYMGGC+lMe8vMDihWzzAdq1sz+0X6xBzDi6aJqLO+Bsu1m4GJ+DeUTr+LvT2ugWN0uWJEbR4YQkcN5ddeH0zFxxr12GU4znCaizJKznevWtQxEPTyAv/9WHfknISEBr7/+uhrUuuGzzz4zdJVeoqxiOE1kLm1nntBd0wsOXlM9REROZO5cy5xA2jvvZOv86fhTY9GyhBQ4TB7He5TEKxPOIL/2QYZ598MTZR/Fd2uu8qxpIoMo0mObbswUzXDaOBhOE1G2yFbBZ56xDUJ//VV15D/Z1tisWTPLwDa59enTR/UQmR/DaSJzaZcmnJ5/gOE0ETmpTp1sc4Np09SHmZWIgN/fQGkPy/jdrehz+PFIrOrLYzc2o1+Tamg5ahfC1EdE5PyK9dSH05GxDKcNg+E0EWWZrIRo3942+OzWTXU4j8jIyJRz96T9+OOPqofI3BhOE5lL+1n6cHruviDVQ0SuSIocnjhxQv3JyURHAw8+aJkfFCliqUuTaUGY9/7d8FBjd6/HB2BHftQ3T/THX50fRcMuSxDAJdNEhlKi13bdmCn8VoLqMR6G0wynieh2evSwBdNvv52tbXt5ISQkBHXr1tUGuNKmTp2qeojMi+E0kbm8O8dXd03PYThN5LJ8fX1RvXp1VKpUCVeuOOnz/fhxSzAt8wQJqqOiVMdt3FiMT+71VON2T1T7YkU+FCEMwfYfXsLj7/yOo9HqIyIyjFK99eF0WAzDacNgOE1EWTJunC2YlmM98qoSeDbJwL1atWraQNfd3R0LFy5UPUTmxHCayFzen6sPp2f5XFU9RORK/vnnH5QqVUqFt06+6GL6dNt84aOP1IcZScSV+R+isqfl383NrRheGnc6j8+bjsTh39qj0as/YmeI+oiIDOWONOF0SFR+nVqfcwynGU4TUXoWL7YUPpSBphRClIKIBnD+/Hncc8892mC3YMGCWLt2reohMh+G00Tm8sHck7presZehtNErmbixInw9LSsKi5cuDDmSvFBZya7Kt97zxZQz5mjOtIRshXfNy2ZcqSHm5sXGg3YibxbvByNE7M/QuPmfbHuSjpneUSfSJ5DHEV+nDRCRJlTpu8O3ZjpBsNp42A4TUSZsn074OVlGWBWrAhcvKg6jOH48eMoU6aMNuAtUqRI8r9O8r8PkQkxnCYylw7z9OH09D28polcRWJiIr766isV2LrhzjvvxK5du1Svk4uIAGrVsswdihUDTp1SHUrEcaydMQk/9f8MreqVh6f6d7Q2jxIP4JWvh2P877Mwd7kP0suMcy4ax2d/hMce64QZ+wJw4cIFXQs4dxIHNs3DsLcb451p/uAx1ETOq1w/fTgdHOncu7wzwnCa4TQRpXXyJFCmjGVwWaoUcPSo6jCWvXv3onjx4tqAV7ZFHjp0SPUQmQfDaSJz+Wi+/pqetpvXNJErCA8PR4sWLVLCWqmjEhAQoHoNQsbahQtb5hAPPwzE2NYdJwZ6Y/b4sRg79vZtwsK9uKH+PscKx6Hf30edYh4p/39Or3lUeBdzLjOaJnJmd/bfqRszBUUwnDYMhtNElKGrV4H77rMMKgsVAjZvVh3GtGnTJm07pAwyy5cvDz8/P9VDZA4Mp4nM5eMF+mt6Kq9pItOLiYlBnTp1UoLRl19+GRGyEtmIJk2yzCOkff65+tA5XFv6OWp73T6YlgKN93ZahGvq7yMi53RXmnD6ys1Y1WM8DKcZThORlQyCGzSwDCbd3YH581WHsS1btgwFChTQBptVqlTRtuwRmQXDaSJz+SRNOD1l52XVQ0Rm1r9/f22s2rVrVyQlJalPDUjOn27TxhZQszg5EeWSewbs0o2ZLjOcNg6G00RkV3w88MILtoHkqFGqwxxmzZqlDfil1a5dG8HBwaqHyNgYThOZS+eFfrpretIOhtNEruDff//FP//8o/5kcFJEvWpVy5yiZEng7FnVQUTkOBUH6sPpi2EMpw2D4TQR2fXhh7Zg+quv1IfmImfYWQPqRx55JHncnDxwJjI4htNE5vL5X/pweuL2S6qHiMhAfHyAggUtc4tHHwVijRsaEZFzqjxot27MFBh6S/UYD8NphtNE1L+/LZh+4w3AyFsJb2PQoEEpAfXTTz+tnfFHZGQMp4nM5cu/T+uu6fHbGE4TkUGNGWObY3z7rfqQiMgx7h2sD6f9QxhOGwbDaSLS+e0326CxSRPglnFv6JkhWya/+eYbLZyWJgVn4uVIEyKDYjhNZC5fpQmnx269qHqIyOguXbqEuXPnqj+5ADl/+rXXbHONZctUBxFRzt2XJpw+f8O4C88YTjOcJnJdK1YABQpYBou1awMhIarD3KTITIcOHVIC6vbt2yMxMVH1EhkLw2kic/l68RndNT3Gm+E0kRns378fFSpUgIeHB1atWqU+dQEyv6hc2TLfuOMOICBAdRAR5Uy1oXt0Y6az1xlOGwbDaSLS7NkDFC1qGSjefTfg7686XENCQgJef/31lID6s88+01ZVExkNw2kic/l2iT6c/mXLBdVDREb1999/Jw+7i2pjTgmnx48fr3pcxM6dtgUxjRtbCrETEeVQjWH6cPp0cLTqMR6G0wyniVzPmTNA+fKWAWLx4sCBA6rDtdy6dQvNmjVLCaj79OmjeoiMg+E0kbl8t/Ss7pr+eTPDaSIjGzZsGNzd3bWxZvHkcfcK2bnoikaOtMw9pPXqpT4kIsq+WsP36sZMp64xnDYMhtNELi44GKhe3TIw9PQE1q1THa4pMjISjRo10iYM0n788UfVQ2QMDKeJzKXbMn04/eMmhtNERhQbG4v33nsvZYxZpUoVHDlyRPW6ICm43rKlLaBes0Z1EBFlT+004fTJIIbThsFwmsiFRSffrBs2tA0KZ8xQHa4tJCQEdevW1SYO0qZOnap6iJwfw2kic+mxXB9Oj9wYqHqIyCiCg4PRpEmTlLGlLIQICgpSvS5MFslUqGCZh5QrJxUiVQcRUdY9MMJHN2Y6cTVK9RgPw2mG00SuQQr+vfyyLZgeMkR1kLhy5QqqVaumTSBk6+XChQtVD5FzYzhNZC69VpzTXdMjNjCcJjKaxx9/XBtTSnv77be1o+RI8fYGPDws85Gnn5ZCMKqDiChr6ozUh9PHrjCcNgyG00Qu6tNPbcG0/Gf6j/Pnz+Oee+7RJhIFCxbE2rVrVQ+R82I4TWQufVbqw+nh6wNUDxEZxbZt21C4cGEMGjRIfUI6gwfb5iUDBqgPiYiy5qFR+3RjpiOXI1WP8TCcZjhNZH5Dh9oGgK+8YllFTXYdP34cZcqU0QLqIkWKYPv27aqHyDkxnCYyl76rzuuu6aH/MJwmMqLAQO56SJfMRZ57zjI3cXcHNm5UHUREmfdwmnD68CWG04bBcJrIxci50tZgWs6blnOnKUN79+7VqqlLQF2qVCkcOnRI9RA5H4bTRObSf7U+nB68zl/1EBGZyJXk8cqdd1rmKHfdBfBMbiLKIskzU4+ZJO80KobTDKeJzGvdOsDT0zLoq17dUoSEMmXTpk3adkwJqMuXLw8/Pz/VQ+RcGE4TmcuANf66a3rgWobTRGRS69dbVk7LXKV5cyApSXUQEd3eIz/v142Z9l9gOG0YDKeJXMSBA0Dx4pbBXvnywJkzqoMya9myZShQoIAWUFeuXBkXLlxQPUTOg+E0kbkMWqsPpyWsJiLncyZ5bN25c2cksKBfzvTta5mvSBs+XH1IRHR7j/2iD6d9AsNVj/EwnGY4TWQ+/skT2bvvtgzyihaVcypUB2XVrFmztHBaWu3atXHt2jXVQ+QcGE4TmYsc45H6mpZjPojIuWzZsiWlRsnnn3+uPqVskXC/aVPLvMXDQ6pJqg4ioow9/ssB3ZhpbwDDacNgOE1kciEhwP33WwZ4BQoAK1eqDsqucePGpQTUDRo0wM2bN1UPUf5jOE1kLlIAMfU1LQUSich5TJs2DQULFtTGhfJ///jjD9VD2XbxIlC2rGX+UrEicP266iAiSl+j0fpwerc/w2nDYDhNZGK3bgFPPmkZ2En77TfVQTk1ePBgbRIi7amnnkI0C0uSk2A4TWQuw9frw+neK8+pHiLKT0lJSejWrVvKeLBs2bLYunWr6qUcW7XKNod5+WWeP01Et9V4zEHdmGnneeMuImM4zXCayBxkAPf667ZBXb9+qoMc4d9//8W3336rTUakvfTSS4iLi1O9RPmH4TSRufywIVB3TfdawXCaKL9FRkbi1VdfTRkH3n///Th79qzqJYfp1s02l/n5Z/UhEZF9Tcbqw+nt5xhOGwbDaSKT+uor22Duww/Vh+RIsmKmQ4cO2qRE2ttvv43ExETVS5Q/GE4TmcvIjfpwusdyBmBE+SkwMBAPP/xwyvjv+eefR1hYmOolh5KFH40aWeYznp7A7t2qg4jov5qmCae3nTXuvZnhNMNpIuP78UdbMP3CC0B8vOogR5OK7G+88UbKBEWqtMuqaqL8wnCayFx+3HRBd013W8Zwmig/vfPOOynjvi+++EIbC1IuksLupUpZ5jX33guEhqoOIiK9p8cd0o2ZvM8wnDYMhtNEJjN/PuDubhnANWgg+w5VB+WW2NhYNG/ePGWi0rt3b9VDlPcYThOZy8+b9eF016VnVA8R5QdZJV2nTh2tQDblkcWLbQtv5NhCLgQhIjueGa8PpzefNu7LLIbTDKeJjGvTJqBQIcvATVYWXL2qOii3ydmDTzzxREpAPWrUKNVDlLcYThOZy+gtF3XX9LdLGE4T5TfWGckHqY8sHD9efUhEZPPcxMO6MdNGP4bThsFwmsgkjh61bXkrUwY4eVJ1UF4JCQlB3bp1UwLq3377TfUQ5R2G00TmMsZbH05/vZjhNBG5oNhY4JFHLHMdWYxz4IDqICKyaJYmnF5/KkT1GA/DaYbTRMZz8SJQsaJlsOblBezYoToor125cgXVq1fXwml3d3csWLBA9RDlDYbTROYydqs+nP7q79Oqh4jIxZw5A5QoYZnzJI+3ER6uOoiIgOcnHdGNmf45yXDaMBhOExnczZtA3bqWQZqHh+VMNspX58+fR4UKFbSA2tPTE2vWrFE9RLmP4TSRuYzfdkl3TX+xiOE0UW47cuQIHn30UW1MR07mzz8t8x5p7drx/GkiStFisj6cXuvLcNowGE4TGZhsb3vmGdsAjYVZnMbx48dRpkwZLaAuUqQItm3bpnqIchfDaSJzmbhdH05//pef6iGi3LBixQoUL15cG8PJcW0JCQmqh5zGJ5/Y5j9Tp6oPicjVvTjlqG7MtPrEDdVjPAynGU4TGYOsEpDVAtaBWffuqoOchY+PT8rkpmTJkjh48KDqIco9DKeJzGXSjsu6a7rzQobTRLnlp59+goeHhzZ2K1q0KP7++2/VQ04lJsa2c1SONDxyRHUQkSt76Td9OL3yOMNpw2A4TWRQ3brZgun27bmlzUlt3rwZhQsX1iY55cuXh58fQwXKXQynicxlyk59OP3JglOqh4gcJT4+Hh9//LE2XpMmx7Pt379f9ZJT8vUFiha1zIXuvx+IjFQdROSqXpmqD6dXHLuueoyH4TTDaSLnN3asLZh+9lkgLk51kDNavnw5ChQooE12KleujAsXLqgeIsdjOE1kLlOTr+HU17Rc40TkOCEhIXjmmWe0cZq0Rx55BJcuXVK95NRmzrTNiT78UH1IRK7qtd+P6cZMy44ynDYMhtNEBiPbC6XwoQzCHnrIUhCRnN6cOXNSJj21a9fGtWvXVA+RYzGcJjKXabv14fRH8xlOEznKqVOnUKNGjZQx2htvvIHo6GjVS4bwwQe2gFrCaiJyWa2n6cPpJUeCVY/xMJxmOE3kvLZvt5yrJoOvSpWAixdVBxnB+PHjUyY/DRo0wE2+WKBcwHCayFym79GH0x3mnVQ9RJRTY8eOTRmb9e3bF//ymDzjkeM85FgPmR/JMR9y3AcRuaTXpx/XjZn+Psxw2jAYThMZhAy0Spe2DLxKlQKOHVMdZCRDhgxJmQQ99dRTXJ1DDsdwmshcZuy9qrumP5jLcJrIkb744gvMnj1b/YkMSQoiWhfwSKFEKZhIRC7nzT/04fSiQwynDYPhNJEBXLkC3HuvZcBVqBCwZYvqIKORFTldu3ZNCahfeuklxPHMcHIghtNE5jLLRx9OvzeHqwKJiP7jt98scyVpn36qPiQiV9JmxgndmGnhQeMepclwmuE0kXOJiADq17cMtNzdgT//VB1kVBJQd+zYMSWgfvvtt5GYmKh6iXKG4TSRuczZF6S7pt9lOE1E9F9yJEu7draAmnMmIpfTbqY+nP7zAMNpw2A4TeTE4uOB55+3DbJ+/FF1kNElJCRoRXesAXXnzp15ziE5BMNpInOZmyacbj/rhOohosyKkMUeZH7h4UD16pZ5U4kSwJkzqoOIXMHbyWOk1GOmefuDVI/xMJxmOE3kPFJXn+7SRX1IZhEbG4vmzZunBNS9e/dWPUTZx3CayFzmH7imu6ZlVRARZd6uXbtw1113Yf78+eoTMrUDByzHIMr8qUEDGXCrDiIyu3dm++rGTPKC36gYTjOcJnIOffvaguk33gCSklQHmUlkZCSeeOKJlIB61KhRqocoexhOE5nLgoP6cFrOUySizJk3bx4KFy6sjbGKFy+OGzduqB4ytXHjbPMoLvAhchlSlyP1mGm2D8Npw2A4TeSEpkyxDaiaNgVu3VIdZEYhISGoW7euNnGS9psUdCHKJobTROby16Fg3TX91ozjqoeI0iNHpfXv3z9lbFWqVCmsX79e9ZLpyVF5rVvb5lNLlqgOIjKzD+ae1I2ZZu69qnqMh+E0w2mi/LV8OVCggGUgdf/9klyqDjKzK1euoHr16toEyt3dHQsWLFA9RFnDcJrIXBalCaffmM5wmigjMTExaNOmjTamkibjK19fFhJ1OaGhwL33WuZUd9wB+PurDiIyqw/n6cPpP/YwnDYMhtNETmTPHqBoUcsg6p57gIAA1UGu4Pz586hQoYI2kfL09MSaNWtUD1HmMZwmMpfFR/ThdOtpx1QPEaUlL/sff/zxlGD66aef5lEermz3biQPqi1zq4YNgbg41UFEZtRxvj6cnr7HuPMghtMMp4nyx+nTQLlylsGTVJc+eFB1kCs5fvw4ypQpo02oihQpgm3btqkeosxhOE1kLkuPXtdd06/9znCayJ5Dhw6hUqVKKcF0hw4dEMcwkn76yTK/kta9u/qQiMzITPMghtMMp4ny3rVrQLVqlkFTwYLAP/+oDnJFPj4+WtEemViVLFkSB/migrKA4TSRuSw/pg+nX2U4TWSXjJeKFSsGDw8PFpgmGykq/9JLtoB61SrVQURm88kC/Tzot52XVY/xMJxmOE2Ut6KigMcftw2YZs5UHeTKNm/enFJdvnz58jh16pTqIcoYw2kic1mRJpx+eepR1UNEaS1btgxLly5VfyJSrl8HKla0zLXKlgUuXlQdRGQmny70042ZJu9gOG0YDKeJ8lFiIvDyy7ZgeuhQ1UEktTGXo0CBAlpAXblyZQQGBqoeovQxnCYyl1XHb+iu6RenMJwmIsoyOSrPw8My52raFEhIUB1EZBaf/aUPpycxnDYOhtNE+ejjj23B9Kefqg+JbObMmaOF09Jq1aqFa3IEDFEGGE4TmcsaX3043WLyEdVDRERZMmyYbe7Vr5/6kIjM4otFp3VjpgnbLqke42E4zXCaKG8MHmwbHL36qmUVNZEd48eP18JpaQ0aNMDNmzdVD9F/MZwmMpd1J0N01/QLDKfJxZ05cwaxsbHqT0RZIPOt5s0t8y93d2D9etVBRGbw1d/6cHrcVobThpE2nJYWn5ikeokoV/zxhy2YbtQIiI5WHUT2DRkyJCWgbtq0afJPhr8Zso/hNJG5/JMmnG4+6bDqIXI9//zzD0qVKoV33nlHfUKURUFBwF13WeZhd94JXL2qOojI6L5efEY3ZvrV27jnyzOcTm539N6O9+b4YvGRYETFcjUnkUOtXQt4eloGRDVqAMHBqoMoff/++y+6du2aElC/+OKLiIuLU71ENgynicxlw6lQ3TX93ESG0+SaJk6cmDyE9tTGQVI0+sgR7iKgbNq40bJyWuZjzz3HHaxEJvHNEn04PYbhtHHYC6dTtyI9tqH1tGOY5XMVIVHx6u8iomzZvx8oXtwyECpfXvYlqg6i25OAumPHjikBdbt27ZLH0hxMkx7DaSJz2eSnD6efGX9I9RC5BhnrfPXVVynjnzvvvBM7d+5UvUTZ9P33ljmZtCFD1IdEZGRdl+rD6V+2XFA9xuNy4fSpa9Eo3nOb7n/A9FqBrt5oNvGwdqj4pTCe80WUJefP27aQFS0K7N2rOogyLyEhAW+88UbKBO3TTz/VQmsiK4bTROay5UyY7pp+ehzDaXId4eHhaNGiRcq4p27duggICFC9RDmQPKbG009b5mYeHoC3t+ogIqPqtuysbsz00yaG04YSm5CE1SduaBPa8v126v7HzKg1Gn0AIzcGwu8azz4lytCNG0CtWpbBT4ECwKpVqoMo66QI0PPPP58yUevVq5fqIWI4TWQ23mnC6acYTpOLOH/+PB588MGU8c5LL72EiIgI1UvkAJcuAeXKWeZoFSrwuEUig+uxXB9Oj9oYqHqMxyXD6dQSk/7F1rNh+HbJGdw7eLfuf9iMWp2RPui/+jwOXIjgKj6i1GJigCeftAx6pE2dqjqIsi8yMhJPPPFEyoRt5MiRqodcHcNpInPZljwuT31NNxl7UPUQmdfRo0dRrly5lHHON998w6PMKHesWWObp7VsCSQlqQ4iMpqeK87pxkw/bGA4bQoSMkvYLKGzhM+p/0fOqEmoLQeRS8gtYTeRy5LBTevWtgFP//6qgyjnQkND8dBDD2mTNmlTpkxRPeTKGE4TmcuOczd113TjMQynyfyioqLQoEEDrQDi5MmT1adEuaRnT9t8bdQo9SERGU3vlfpwegTDaXOS4zvkGA85ziP1/+AZNTkmRCbKq47f0I4PIXIpX35pG+h06KA+JHKcq1evonr16lo47e7ujj///FP1kKtiOE1kLrv89eG0jMOJXMGlS5ewadMm9SeiXBQfDzzxhGXOJkcwsuAmkSH1XXVeN2Yatt64NQoYTmeSFEScuP0Smk86rBVKTP0DSK9J4cV2M09gwcFriLiVoL6JyKTkmAVrMN2ihaXoBlEu8Pf3R4UKFbSAWlYYrV69WvWQK2I4TWQuu/3Dddd0Q4bTRESOJ4U2S5e2zN2qVAFCQlQHERmFnPqQesw0ZB3DaZcSEhWPWT5X0XraMRTpsU33Y0ivFeq2FS/9dlSbNF+LiFPfRGQS8+YB7u6Wwc0jj8gBwaqDKHecOHECZcuW1QJqLy8vbNu2TfWQq2E4TWQuewP04fRjv+xXPURE5FDLltkWF732mpxzqjqIyAi+X6MPpwet9Vc9xsNwOoeiYhOx5Egw3pvjizt6b9f9MNJrHl298fS4QxjjfREBIbfUNxEZlGw/LFTIMqi57z45d0F1EOUuHx8fFC9eXAuoS5YsiYMHeS6pK2I4TWQu+wIjdNf0Iz8znCbz2L9/v/aCnchpfPONLaD+9Vf1IREZwcC1/roxk/zZqBhOO1B8YhLWnwrB53/54Z4Bu3Q/koxag5/2Y+g/ATh+JUorykhkGEeOACVLWgYzZcoAJ0+qDqK8sWXLFhQuXFgLqMuXL49Tp06pHnIVDKeJzEWKk6e+puv/uE/1EBnbokWLUKRIEVSrVg3Xr19XnxLls9hY4NFHLfO5ggWBfbznEhnF4HX6cFpWUhsVw+lckpT0r3ZmXo/lZ1Fj2B7dDyajVnPYXvRccQ57AsK17yByWhcuABUrWgYyXl4spEH5ZsWKFShQoIAWUFeuXBmBgcatUkxZx3CayFwOXtSH0/UYTpMJDBs2TCvkLGMV2fXl7e2teoicwNmztgVH1aoBN2+qDiJyZrLINfWYqd8qhtOUAVkNfexKlHY4uaySTv3jyahVGLALXyw6jQ2nQrVV2UROIywMqFPHMoDx8ACWLFEdRPljzpw52oRPWq1atXDt2jXVQ2bHcJrIXA5fitRd0w+NYjhNxhUbG4v33nsvZYwiL9EPHz6seomcyMKFlrmdtDZteP40kQEMW68Pp/usPKd6jIfhdD44fyMGo7dcxFPjDsE91Q8po1a6zw68P9dXO986Oi5RfRNRPpCtX//7n23wMn686iDKXxMmTNAmftIaNGiAm1z14RIYThOZy9HL+nC6zkgf1UNkLMHBwWjSpEnK2KRRo0a4ytos5Mw++8w2x5s8WX1IRM5qxIZA3ZipN8Npyq5rEXHaRPrFKUdRqNtW3Q8rvVakxza8Pv04ZvsEITQ6Xn0TUR6QN+jt2tkGLT16qA4i5zB06FBtAiitadOmiI6OVj1kVgynicxFarCkvqYfGMFwmozn+PHjqFq1asqYpF3y+PnWLRbCJycXEwM8/LBlnle4MMBV/kRObeRGfTgtRwQbFcNpJxJ+KwF/HriGtjNPoHjPbbofWXrN8ztvPD/pCCbtuIzLN2PVNxHlku++swXT7dtzuxc5HTlG6bvk36l1Mvjiiy8iLi5O9ZIZMZwmMpcTV/Xh9P0j9qoeImO4fPkySpYsmTIWGThwoDY+ITIEKS5erJhlvlerFhAZqTqIyNn8uOmCbszUfflZ1WM8DKed1K34JKw8fgMfzT+Fcv126H5wGbUnxhzAqI2BOB3M1YLkYGPG2ILp554DGPiRk5IJ4EcffZQyKZTVSomJPA7JrBhOE5nLyaBo3TVdazjDaTKebt26wcvLC/Pnz1efEBnInDm2ed9773FBEpGT+ilNOP3dUobTlIsSEv+F95kwfL34DCoP2q378WXU6o70wfdrzmtVz/m2nnJk0SJL4UMZoDz0ECs4k9OTMPrNN99MCag//fRT3gdNiuE0kbn4XdOH0zWG7VE9RMaRlJSEEydOqD8RGVDHjraA+o8/1IdE5Ex+2aIPp7suPaN6jIfhtMFIuLL/QgT6rTqPB3/w0f0QM2r3Dd6t/VC3nQ1DYhIDGsqCbdssZ47JwKRSJeDSJdVB5NykQv4LL7yQElD36tVL9ZCZMJwmMpczwTG6a7raUIbTRER5LioKeOAByxywSBGAL1uInM4Y74u6MdM3SxhOUz45dS0aP2wIRMPRB3Q/yozanf134uMFp7D6xA3EJiSpbyKyQwYhpUtbBiWlSgHHjqkOImOISh5YN27cOCWgHjlypOohs2A4TWQuZ6/rw+mqQxhOExHlC5n7STAtc8E6dQAWGidyKmO36sPpLotPqx7jYThtIhfDYjFh2yU8N/EwCnS1/UAzaiV6bcfbs05g4cFriLiVoL6JKNnly0CVKpbBSKFCwJYtqoPIWEJDQ/HQQw+lBNRTpkxRPWQGDKeJzOX8DX04fe/g3aqHyLls3boVf/C4AzK7adMs80FpnTqpD4nIGYzbekk3Zvryb4bT5GRuRMVj5t6raDXtGLy6b9X9YNNrhbttxStTj2L6niu4HhmvvolcUkQEUK+eZRDi7g4sWKA6iIzp6tWrqF69uhZOuyf/pv/880/VQ0bHcJrIXAJCbumuaam3QuRsJJQuVKgQPD09sWHDBvUpkQlJzZZ33rEF1HPnqg4iym+yODX1mOmLRQynyYlFxSbi78PBeHeOL0r13q778abXPLp643/jD+FX74sIDL2lvolcQnw80Ly5bQDy88+qg8iR4hEWeATbVs7D5B/74+sOb6DFBxNwJFZ15wJ/f39UqFBBC6hlMrl69WrVQ0bGcJrIXC4kjztTX9MVB+5SPUT5Twod9ujRQxtLSCtTpgy8vb1Vb1bl/ViIKFtk4VKNGpa5YfHigJ+f6iCi/DRpx2XdmOmzv4x7bTKcdjFxCUn452QIOi/0w93f79T9kDNqj/68H8PWB+DE1SitKCOZ2Pvv24Lpb75RHxI5TvypRRjY+UO0ffERVCzkoSZ4hfBwz83I7ZPspHJ+2bJltX+ml5cXtknBTzI0htNE5iLH1KW+pisMYDhNzkHqWLRq1UqNW9xQu3ZtnDmTveJT+TkWIsqWgwctRz0m/1ZRvz5wiwvYiPLblJ36cPrThQynyYCSkv7FzvM30X35WVQfukf3o86o1Rq+F71WnMOegHDtO8hE+vSxBdNvvik/EtVBlBtCsfzzGvCUCZlnDXy1Mlx9nrt8fHxQvHhxbSJYsmRJHDhwQPWQETGcJjKXyzf14bQspiDKbxcuXED9+vW1sYO0Zs2aISwsTPXmRP6MhYiyZeJE21zxiy/Uh0SUX35LE05/vOCU6jEehtOkkdXQRy5HYtBaf9T7cZ/uB55Rk62Wcuj6Rr9QxCcyyDS0SZNsg42mTfk2nPJAEGa/Ux4eyb85z4odsDBYfZwHtmzZgsKFC2sTzPLly+PUKeM+yF0dw2kic7kaHqe7pu/sz3Ca8tfevXtx9913a2MGaZ07d0ZCgqMKyeffWIgoy2QHtSxgSv69am3RItVBRPlB5j2px0wyLzIqhtNk17nrMfhlywU0GXsQ7ql+7Bm10n124MN5J7Hs6HXExCWqbyJDWL4cKFDAMsh44AEgNFR1EOWiiNXoUtMz+WfngbJtp+NCHt82VqxYkfyzL6BNNCtXrozAwEDVQ0bCcJrIXK5F6MPpcv12qB6ivBcbG5tSr0LGDL/++qvqcZB8HgsRZZnsGLjvPsu8sWRJ4Nw51UFEeW36Hn043XH+SdVjPAyn6bZkBYtsF2g55QgKfrdV9+NPrxXtsQ1vTD+OOfuCEBbjqJUFlCt27waKFLEMMO65BwgIUB1EuStmez886uUGN48SeGn8acSrz/PSnDlztAmntFq1auHatWuqh4yC4TSRuQRH6sPpsn0ZTlP+2rhxo1b4MDcKKTvDWIgoy/buBQoWtMwfH38ciItTHUSUl2bsvaobM8liUaNiOE1ZcjMmAfP2B+GtGcdRrOc23YWQXvP8zhsvTD6CyTsu48pNlp92KqdPA+XKWQYWJUoAhw6pDqLcFosDw59CUQmGiz6DkYfy794wYcKElIBazpN0zBmSlFcYThOZy42oeN01LTvziPJbRESE+k+O5DxjIaIsGz3aMoeU1rWr+pCI8tLMNOH0+3N9VY/xMJymbJOjO1Ycu65tHZBVLakvivSaHBHSeMxB/LTpAs5ej1HfRPlCVohWq2YZUMib7/XrVQdRHog/iV9blNDOWPR67HvsyOfbwdChQ1MC6qZNmyI6mrXyjYLhNJG5hEbrw+lSvberHiKTcbKxEFGWyPnTr7xiC6jlmEgiylOzfYJ0Y6b35jCcJheXkPgvNp8ORZfFp1Fp4C7dBZJRe2jUPgxY449DlyK1ooyUR6KigMcesw0mZs1SHUR5I9H/N7xe2iP551cID3z3DyLV5/lF7j/fffdd8n8fS0DdsmVLxHGLoiEwnCYyF9mll/qaLtGL4TSZk7ONhYiy7MYNoFIly3yydGmA9VuI8tTcffpw+p3ZDKeJUkjIsy8wAn1Xncf9I/bqLpaMWtUhe/Dd0rPYfu4mEpMYVOcaqS7+0ku2YHr4cNVBlHeuznkXd3m4wc3zXnRe6hwFOOXe9dFHH2nhtLS2bdsiMZGViZwdw2kicwm/pQ+ni/fcpnqIcs+qVavQvn17JCUlqU9ynzOOhYiybMcOW2H9J58E4nlyOlFemX/gmm7M9PasE6rHeBhOU647GRSNERsC8fgvB3QXTkbtzv478elCP6z1DUFcQt4NEl1Cp062YPqzz9SHRHkpBIs/qQLP5N+gx13vYU6Q+tgJSBj95ptvpgTUn3zyCXd1ODmG00TmEhmbqLumpcg2UW4aPXo0PDxkBbMbevXqpT7Nbc47FiLKsh9+sM0ve/dWHxJRbvszTTjddibDaaJMuRB6C+O2XsKzEw6jQFfbRZRRK9lrO9rPOoG/DgVrExbKgUGDbAOH116TJE51EOWhiDX4ulah5J+hB0q3/g3+TvYzjI2NxQsvvJD8388SUPfs2VP1kDNiOE1kLtFx+nDaq/tW1UPkWPHx8dpLaOvz/p577sG+fftUby5z8rEQUZbIjoPksXPyD9rS1q1THUSUmxYe1IfTb804rnqMh+E05Rupxj5j71W8+vsxFO62VXdRpdfkr5O//o89V3E9kluGsmT6dNuAoVGj5NkfC75R/ojx7oP6XskTQY9ieGH0CTjjlRwVFYXGjRsnXy6WCesPsiKEnBLDaSJzuRWfpLumCyWP/YgcLTQ0FM8++2zKc75Bgwa4ePGi6s19RhgLEWWJFNu/+27LXLN8eeDyZdVBRLll0aFg3ZjpzT8YThPliKyIlgtLDnCXldKpL7D0mkdXbzwz/hDGbr2orcimDKxZA3h6WgYLNWsC16+rDqK8FgufoU+iqEwGizbBUJ9Y9bnzkYnrww8/nDJxnTx5suohZ8Jwmshc5Di31Nd0we8YTpNj+fn5JQ+Ha6Y8319//XXtpXTeMc5YiChLNm8GPDwsc85nnuEuXaJctviIPpx+fTrDaSKHkUmJnDUtZ07f1X+n7mLLqD32y34MXx8A36C8HFwawP79QLFilkHCnXcC586pDqJ8EH8cvzxfDB7Jv8dC9XrDO0Z97qSuXr2KGjVqaJNXd3d3zJ8/X/WQs2A4TWQu8Yn6cFqOgSNylE2bNqF06dIpwbScMZ3ntSUMNhYiypLUx0gOHKg+JKLcsCRNON1q2jHVYzwMp8mpJSb9ix3nbqLbsrOoOmSP7sLLqNUevhd9Vp6DT2C4axczO38euOsuy+BAAmofH9VBlD8Sz01Cq1JSdMgTNbusRoT63Jn5+/ujYsWK2iTW09NTq+hPzoPhNJG5yNgv9TXtntyIHOW5557TnueFChXCzJkz1ad5y4hjIaJMk9XSsmpa5p/u7vJGSHUQkaMtO3pdN2aSI3CNiuE0GYaEzIcvRWLgWn88PGqf7iLMqFUauAtf/X0am/xCkZDoQkH1jRtArVqWgUGBAgADNcp3ibg8822U93CDm2clfPRX8m/UIHx9fVG2bFltQuvl5YVt27apHspvDKeJzEXGe6mvaWlEjnL9+nU0bNgwH5/jxh0LEWWanDct507LPFTOoZbzqInI4VYc04fTr0w9qnqMh+E0GdbZ6zH4adMFPPnrQW1VTeqLMr1Wtu8OdJh3EsuTL+KYOBOfgRUTAzRubBkQSPv9d9VBlJ9u4K+PKsEz+TfpUbYdZlw21jUoFfxLlCihBdQlS5bEgQMHVA/lJ4bTROaT+pqW5tK74MhkjD0WIsq0detsc9EXXgCSklQHETnKquM3dOOll35jOE2Ur66Gx2HKzst4YfIReH6nn9Ck14r13KZVM523Pwg3YxLUN5mAPPhbt7YNBgYMUB1E+Sx8Fb6q4Zn8s/RAyVcm4IwBS9Nv2bIFhQsXTv53cEP58uVx6tQp1UP5heE0kfmkXXQgR30QmYIJxkJEmdanj21OOmKE+pCIHGWNrz6cbjnliOoxHobTZDphMQmYuy9IC56L9timu1jTa1IJvsXkI1rALUG3oX3xhW0Q0LGj+pAo/0Vv6oGHCkkBoqJ49scjMGpt+hUrVqBAgQLJ/x5uqFy5MgIDA1UP5QeG00TmI0UQU1/XUiSRKCvi4pxzPG+WsRBRpiQkAE2aWOalcszk9u2qg4gcYa1viG68JIs1jYrhNJmaHN0hh8R/OO8kyvTdobtw02uyWqfJ2IP4efMFnLtusPLZP/xgC6ZbtrQMCIicQgx2D2wEr+TfpptXQwzcmflrKzpgK6b1+QjD1kWqT/Lf3Llz4e7urgXUtWrVwjWepZdvGE4TmY8sGkh9XccmMJymzJs/fz6qVauGS5cuqU+cRfbHQvEXd2DGwM54+5UWeLH1e+jywwLsv8YjQcgALlwAypSxzE8rVbLURSIih/jnpD6cfn4Sw2kipyfFEKUoohRHrDhwl+4izqhJ8cVBa/1x5HKkc595OGeOpSKyPPgffRSIdJ4gjwixR/Djc0W1MLdQne7YEK0+johId9VQjL83pvVpgwZlPeHhUQrv/+lc9ewnTpyo/ftIq1+/PsLCwlQP5SWG00TmU7ibPpy+Fc9wmm5PxukDBgxIeTY/88wzqsdJZGMsJOLPLkTn+iXhVaYK7q9dCSU9PZK/wwNlGn6DJf4MqMkAVqywLaB65RW5WFUHEeXEhlOhuvFSs4mHVY/xMJwml5SU9C/2BoSj98pzqD18r+6CzqhVG7oH3ZadxY5zN7XvcBobNwIFC1oe+FWrAkFBqoPIOcSfmYhXS8pkyhNVOi+BFuPe2IIBrb/Awqv2J1bRF88iMOIG1nxTF4WcMJwWw4YNS/53skyCmzZtiuhoNdOkPMNwmsh8vLrrw+loMxexJoeIiYlB27ZtU57JsnLa19dX9TqH7IyFgGAs+/IptB6yDCe0vyERoYfn4KvGZeGR/D01kr+Ho34yhK5dbQH1L7+oD4koJ2TxZerx0rMTGE4TGZpvUBSGrQ/Aoz/v113cGbW7v9+Jzgv9sO5kCOLyc7vp4eQbUMmSlgd92bKAn5/qIHIe1+a+hzs9ZMJYAq9OPIf4iMOY9uGzeHea723OW4yH39gXUcxJw2lZpdWtW7fkfy/LZLhly5ZOe86lWTGcJjKftDVDImMZTlP6rl69ioYNG6Y8i+Vl8fXr11Wv88jWWChsKQb0WYa02XXM/hH4XzEPeNbogtXcLElGIOPjxx+3zFk9PYG9e1UHEWXX5tP6cPp/4w+pHuNhOE2URmDoLYzdehHPJF/YHmkK8qTXSvXejndm++Lvw8GIyssJlBRiq1DB8pAvUgTYuVN1EDmTGGzr28ByxqKbJ+5u/BbefvYhPNNnHa7c9nJJxLlJr6KEk4bTQgLqTp06aRNiabJyKzGRQUpeYThNZD7Fe+rD6fBbrKFB9h06dEgrTmx9Bn/44YdO+pI4m2OhiPM4dzle/SGVmO3o94gXPKt8hmUMp8kozp8HSpWyzF3vuw/gkXhEOeJ9Jkw3Xnp6HMNpIlMKjozD9D1X8MrUo/85/zC9JltRX/v9GGbsvYobUXYGk44iD/MHH7Q83D08gCVLVAeRs4nH8V9borS2WsgNHkWr45XB6xCYqcsjEeedPJwWEka/9dZb2r+ftE8++cS5z6g3EYbTROZTstd23XV9M4bhNP3XsmXLUKxYMe25K0WKf5DC4E4rJ2MhO2K2o/9jXij1ygSczsXpBpHDLVpkmb9Ke/NNnj9NlAPbzurD6aZjD6oe42E4TZRJEbcS8NehYLSfdQIl0kya0msFulrO/Rm/7RIuhmV8eEGWxCZ/19NP2x7sEyaoDiInFX0aq8cNRP9hE7Dk4DVkfl2xMcJpEZt8Xb7wwgvapFNaz549VQ/lJobTROYjO9JSX9eh0Uzf6L+GDBmiPW+LFi2KJUZYpJHtsdB/JZ6bhFalq+D9OYE5+h6ifPHFF5zHEjmA1EJLPV568leG00QuJTYhCWt8b+CTBadwZ/+duhtCRu3xXw5gxIZAnAzKQdE0ebvctq3tgd6rl+ogMiPjhNMiKioKTz75pDZZlubcq7jMgeE0kfmU7rNDd13n6k40MrSuXbviwIED6k+uIhaHfmyGSi1+xoEY9RGRkdy6BdSvb5nLFioEHDRuoEaUn3ae14fTT4wx7vOQ4TRRDiUm/Yvt526i69IzuG/wbt3NIaP2wAgf9F11HvsCI7K2/T91peN33+VWKDI5Y4XTIjQ0FA8//HBKQD158mTVQ7mB4TSR+ZTtqw+n5Zg1IrKIPzcb7zV4BWMO5GCxC1F+kyL+xYtb5rQ1agARxhjnEzmT3f7huvFSo9EMp4komYTMhy5FYsAaf9Qd6aO7UWTUKg/ajS6LT2PLmTAkJGYQNo8ebQumn3vOUvWYyNSMF06LoKCg5HF2DS2clnMw58+fr3rI0RhOE5lP+X76XWlBERzvEGlifTHt3ebovPAcuJ+ADG/ePNvctn17LroiyqK9AfpwWnbqGxXDaaJcdCY4Bj9uuoDGYw7qbhoZNVkt1HH+Saw4dh234pPUNyVbuBBwd7c8vB9+GAgPVx1EZmbMcFoEBASgYsWKWkDt6emJVatWqR5yJIbTROaT9si0q+EMp13ZhQsX1H9ycYnB2DzoLbw7bh84CyDT6NTJFlD//rv6kIgyQ3bhpx4vPfrzftVjPAynifLI5ZuxmLTjMp6fdASe39luIBm1Yj23oc2ME5g/1xs3S5S2PLQrVwYuXVLfSmR2xg2nha+vL8qVK6cF1F5eXti6davqIUdhOE1kPnd/rw+nZQxFrkmOxipUqBCWLl2qPnFVETgwqQPaD9mMa6yASGYSHQ3UqWOZ5yaPlXHsmOogotvZf0EfTjf4ieE0EWWBVJ2fsy8Ib0w/jiI9tuluKOm1gl02ouVbozH17/3c3kouJBHnrOH0fGOuE9q/fz9KlCihBdQlS5Z0wcJNuYvhNJH5VBiwS3ddXwxjOO1qEhMT8fXXX2vPTmn33Xcf4uNd9SCLSByZ/gna9FyBwLTBdPRJLJq9DlcZWJORnTgBFCliCagfeEAqjKsOIsrIwYv6cLr+j/tUj/EwnCbKZ9FxiVh69Do+mHvyP9Xp02vuya3p2IP4ZcsFnL/BMt1kZvE48cvzKOZWAm9NM27ouGXLFhQuXFibYMtK6pMnT6oeyimG00TmU2mgPpwODL2lesgVhIeHo2XLlinBdJ06deDv7696XU04Dv3+HupUfBxvdv4Mn31ma50/ao+XHqmO18af4vnTZHx//GEJp6V17Kg+JKKMHL4UqRsvPTyK4TQROUB8YhI2+oXii0WnUeH7zAXV0uQN2eB1/jh6OVIrykhkBvHnNmDaT33Q5uES8HDzQNmG72PA6PnYFWTM5UErVqxAgQIFtIl2pUqVtDOpKecYThOZjxSKTn1dB4QwnHYVEkJLGG0Npl988UUtrHZN8Tgz+wPU8vJI+f9H2uZR/i1M8+eyaTIBmcO+954toJ49W3UQUXok/0k9Xqo70kf1GA/DaSJnFB+PpObNsefuB9Cryaeo2X2d7qaTUas+dA+6Lz+LXf43kZTEoJrImcydOxfu7u7ahLJmzZoICgpSPZRdDKeJzOfewfpwmrvEXMOOHTtQvnz5lOBVjvWQ4z2IyEVERgK1alnC6WLFAO40JMrQsStRuvHSgz8wnCYiR0n71vjbb7XV0MeTbzxD/wnAIz/v192AMmr3DNiFz/7ywz8nQxCXkKT+AUSUnyZOnJgy8a5Xrx7CwsJUD2UHw2ki86k6ZI/uuj57neG02S1cuDDl+CtPT0+tECIRuaDDh5F8M7DMgx9+GIjh/Z8oPSeu6sPpB0YwnCYiR+nd2xZMt2ljCavT8A+5hTHeF/H0uEPw6Gq7GWXUSvXejnfn+GLxkWBExXIVClF+GjZsmDYBl9akSRNES6VyyhaG00TmI7vAUl/Xp4N5jzS7Xbt2wcvLC3fccQc2bNigPiUilyQvp6zz4c8+Ux8SUVong6J146Xaw/eqHuNhOE3kTCZOtD2In3oKiL19dfrgyDhM230FL089ikLdtupuTuk1r+5b0WraMczcexUhUSyhQpTXZDdEt27dtHBamhR+iouLU72UFQynicynxjB9OO13jeG0K1i2bBlOnTql/kRELksWZ8kiLeu8eOFC1UFEcnSrjIsWHLyG16cf142Xag5jOE1EObV0KeDhYXkAP/ggEBqqOjIv/FaCdpNqN/MEivfcprtRpdcKdPVGs4mHMWHbJVwKu30YTkSOIQF1p06dUgLqNsmDcJ6tmXUMp4nMp9bwvbrrWlYGERGRC7l5E6hWzTI3LlECOHtWdRC5Djma9dClSPyx5yq6LD6NpmMPZpjzyM4zo2I4TeQMdu0CihSxPHwrVAACA1VH9sUm38hWn7ihBTfl++20e/Oy1xqOPoAfNgRylRJRHpAw+q233koJqD/++GMttKbMYzhNZD73j9CH03KmIhERuZh9+4CCBS1z5EcfzdSuYiKjkqNXd56/qS0alPmN1BrL7M54a5OaHUbFcJoov/n5AWXL2t4KSxEIB0tM+hdbz4bh2yVn/lMBP6Mm1V77rTqP/RciGJgR5ZLY5IH2Cy+8kBJQ9+jRg9dbFjCcJjIfGX+kvq6lGj2Zw6ZNmxAfzyPliCiTfv3VMk+W9s036kMiY5OjVTf6heLHTRfQftYJ7aW8e6pxT3Za0R7btKNbjYrhNFF+CgoCqla1PGzlrXAeFICR0OvAhQj0X30edUbqJ38ZtSqDduObJWfgfSZMC7uJyHGioqLw5JNPpgTUI0aMUD10Owynicwn7fjk6OVI1UNGNnz4cLi7u2tHWhERZYos2GjVyhZQy1GYRAYh2cvFsFisOHYdg9f5a+Gx5CqpxzjZaaX77NCOZu2+/Czm7Q+Cb1CU4TMahtNE+SUqyrI9yfqgnT1bdeQtOb5j5MZANBp9wO6Nz14r128HPpp/CquO38Ct+CT1TUSUE6GhoXj44Ye1cFrapEmTVA9lhOE0kfk8NGqf7ro+fInhtJFJwd/3338/5flWpUoVBAcHq14iotsICUHyjcMyZ77jDiAgQHUQOY/UhQp7rTiH5ycd0XKT1OOZ7LSKA3fhlalHMWCNP5YevY6AkFum3GXLcJooPyQkAC++aAumnWSVpBREnLj9EppPOgzP7+zfHNM2OZC/7cwT+PPANa0gIxFlX1BQEGrUqKFN3mV12fz581UPpYfhNJH51PtRH04fvBiheshoJIRu0qSJ9lyT1qhRI+1ZR0SUJVKjqUABy9z5iScAHg9E+SirhQoz22oO26tlK1ID7J+TIQiOjFP/RPNjOE2UHz76yBZMf/65+tC5hEbHY7ZPEFpPO4YiPTJ3o5UD+1/67agWDl2LcJ0bKZEjBQQEoGLFitok3tPTE6tWrVI9ZA/DaSLzafDTft11LbUvyHiOHz+OqlWras8zaW+//TZu3bqleomIsmjUKNscumdP9SFR7nJEocK0TRYCyov4DvNOYuzWi9h+7iYiXHyhH8Nporw2cKDtoSrnZyU5/7EY0XGJWHIkGO/P9cUdvbfbvcGmbR5dvfHUuEMYveUi/EM4ESHKCl9fX5QrV06bzHt5eWHr1q2qh9JiOE1kPjLxS31d7wtkOG00a9euRcmSJbXnmLRBgwapHiKibJJ5c+rdx2vWqA4ix8itQoWNxxzEF4tOa/MUqf8Vm8CjUdNiOE2Ul37/3fYwle1IMTGqwzjiE5Ow/lQIPv/LD/cM2GX3BmyvySqoIesCtIr7ZjwjicjR9u/fjxIlSmiTepngHzhwQPVQagynicznsV/04fTegHDVQ0awfPlyFChQQHt+yQvWP//8U/UQEeWQnFdfoYJlPl2uHHDpkuogyjwWKnQ+DKeJ8srq1YCnp+VBWrMmcP266jAuOfR/t384eiTffGsM22P3Bm2vyV/bc8U57e+V7yAi+7y9vbWJvUzwZSX1yZMnVQ9ZMZwmMp+GaYo0y3iBjCM8PBx169bFXXfdhT179qhPiYgcJHl8DA8Py7z6qacs9ZyI0sFChcbAcJooL+zbBxQrZnmAJg/Uce6c6jAPuRHLqmhZHZ32rMiMmqy+llXYshpbVmUTkd7KlSu1s6cloK5UqZJ2JjXZMJwmMp8nxujDaTnrkYxFnlWBgYHqT0REDjZkiGVuLe3779WH5OpYqNC4GE4T5TYJou+80/LglIBagmoXcP5GjHbetJw7ndlzmuQ8aznXWs63lnOuichi3rx5cHd31wLqmjVrIigoSPUQw2ki85GzGVNf1zvOMZwmIqJUEpPnis89Z5ljJ4+RsXGj6iBXwUKF5sJwmig3ydEdcoSHPDTlSA852sMFXYuI0wKjF6cczfQDo0iPbWg97Rhm+VxFaHS8+iYi1zVp0iQtnJZWr149hIWFqR7XxnCayHyajNWH09vO8n5HRERpXL1qWwQmu5Plz2RKLFRofgyniXKLFDuUoofysJQ2bZrqcG3htxLw54Fr2raYzG6xkTeYzScdxsTtl3D5Zqz6JiLXM3z48JSAukmTJoiOjlY9rovhNJH5yK6r1Ne19xmG085o1qxZOHPmjPoTEVE+2LDBsnJa5tvNmllWVJNhsVCh62I4TZQb5KHYqpUtmB44UHVQarfik7Dy+A18NP9UlooSyFmUozYG4nQwgzlyLTJg6969e0pA3bJlS8TFufaZZwynicznf+P14fTm06Gqh5xBUlISevTooT2HateujdBQ/u9DRPmoXz/bvHvYMPUhOTsWKqTUGE4T5YbPP7c9IDt1Uh9SRhIS/9VWRn29+AwqZ+HtaJ2RPui/+jwOXozgQ4dcgvzOP/74Yy0UkNamTRskuvAqEYbTRObzTJpwepMfw09nERUVhVatWqU8gyScPn/+vOolIsoHCQnAU09Z5t4eHsC2baqDnEXaQoVyfBcLFVJqDKeJHG3ECFsw/eKLloclZYmEb/svRKDfqvN48Acfuw8ie+3ewbvx7ZIz2Ho2jNt0yNQkjJZQ2hoOSFjtqi9nGE4Tmc9zEw/rrusNpxhOO4OLFy+ifv36Kc+eZs2asf4BETmH5PsTypa1zMErVrTUfqJ8wUKFlB0Mp4kcafZsWzD96KOyvER1UE6cuhatvQ1tOPqA3YeVvVa+3058vOAUVp+4wcIGZEpynEeLFi1SQgLZYu2KATXDaSLzkToTqa9rWQ1F+cvHxwf33HNPyjOnc+fOSOACDCJyJqtW2ebiskgsiXPA3MZCheQoDKeJHEWKMRQsaHkYVq0KBAWpDnIkKZAgb2FlVVWBrvYfaGlbiV7b0W7mCe08K75hJTOR7dVSGNEaFoyQnRsuhuE0kfm8MPmI7rpe68twOj8tXLgQRYoU0Z4zHh4eGDNmjOohInIy3bvbAuqfflIfUk7JAhgWKqTcxHCayBEOHwZKlrQ8BMuVA/z8VAflphtR8Zi596r2cPTqnrmtQoW7bcXLU49i2u4rPJOKTEG2VNerV08LDaRNmjRJ9bgGhtNE5tMiTTi9xveG6qG8tm/fPri7u2vPlxIlSmD16tWqh4jICcXHA40aWeblnp7A7t2qgzKLhQopPzCcJsqpwEDgnnssD8AiRYBdu1QH5SU52+rvw8F4d44vSvXebveBmLZ5dPXG/8Yfwq/eF7WHI5FRBQUFoWbNmlp4ICHC/PnzVY/5MZwmMp8XpxzVXderjjOczk9ffvkl7rvvPhw7dkx9QkTkxPz9gTvusMzP770XCGXdgvSwUCE5C4bTRDkhD7oHHrA8+KQy8NKlqoPykzxk5SHYeaEf7v5+p90Hpr0mxRqG/hOA41ei+BaXDCcgIACVKlXSAmpPT0+sknP3XADDaSLzkR1Oqa9r2UZM+UeK8F5ncTEiMpIlSyxzdGmtW8u5FKrDdbFQITkzhtNE2RUbCzz1lO2hN3Gi6iBnItuS5CEs51hVH7rH7kPVXpO3vbKNaU9AuPYdREZw8uRJlCtXTguovby84O3trXrMi+E0kfm8+vsx3XW97CiDUSIiyqIuXWxz9XHj1IeugYUKyWgYThNlh7x5bdPG9rDr3Vt1kDOT1dBHLkdi0Fp/7Q2vvYeuvVZhwC7tIbzhVCjiE/kAJue2f/9+7VxQ6/mg8mczYzhNZD6vpQmn5WxKIiKiLJHFZI88YpmvFyokg2TVYR6pCxXKHJeFCsmoGE4TZce339qC6ffe4zYhgzp3PQa/bLmApmMPZvpNsjyoP5h7UpsoR8clqm8ici5bt27VVk5LQC0rqWVFtVkxnCYyn9bJk+vU1/XiI8Gqh3LL6NGjMWvWLPUnIiKTOHMGKFHCMm+vXh0ID1cdxsNChWRmDKeJsuqXX2zBdLNmlorAZHhBEXH4bedltJxyBAW/y9zZW7K16Y3pxzFnXxDCYni2FjkXOXNazp6WgFrOopYzqc2I4TSR+cizNfV1vegQw+ncEp88jv3000+1Z0WhQoWwfft21UNEZBJ//mmbv7dta4iFZSxUSK6G4TRRVixYALi7Wx5s9eoZ+s0rpe9mTALmH7iGt2YcR7FMDgKkGIS8vZ604zKu3IxV30SUv+bPn598y3LXQocaNWogKChI9ZgHw2ki85Hnb+rreuHBa6qHHCk0NBTPPfec9oyQ1qBBA1y8eFH1EhGZyKef2gLq335THzoHFiokYjhNlHlSWKxwYcsDrUoV4PJl1UFmFhOXqJ3h1XH+SZTtm7ltU3JEiBSLkAIUZ4Jj1DcR5Y9JkyalBA/16tVDWFiY6jEHhtNE5tNmxgnddS1bmMmxTp8+jVq1aqU8H1q3bo2oqCjVS0RkMjHJc7KHHrLM5b28gCNHVEfeuhEVr9UxYqFCIj2G00SZcfw4cMcdlodZ6dLAiROqg1xJQuK/2Hw6VNtaVWngLruDA3ut7kgf7Qwv2ZrF87soPwwfPjwlgHjyySdNFUAwnCYyn3Yz9eG07GYix9m8eTPKlCmT8lzo2bMnxydEZH5Sg6VoUcucvnZtIDJSdTgeCxUSZQ3DaaLbuXQJqFzZ8hCTldNbt6oOcmUy4NgXGIG+q85rb7ztDR7stfsG70bXpWew7WwYBxKUZ+T32r1795QgokWLFoiLM8cZcwynicxHVpOlvq7n7jPfkUT55ffff0fBggW1Z4GcMT1jxgzVQ0TkAqTwq8zrpX3wgfowZ1iokCjnGE4TZUTOlH74YcvDS86aXrhQdRDpnQyKxogNgXj8lwN2Bxf22p39d+KTBaewxvcGt15RrpPB7Mcff6wFEtLatGmDxMRE1WtcDKeJzOfdOb6663q2D8NpR5C6AyVKlNCeAWXLlsVWLrggIlf04Ye2gHrmTPVh5rBQIVHuYDhNlJ74eOC552wPrtGjVQdRxi6E3sK4rZfw7ITDKNDV/gAkbSvZa7u2UuyvQ8GIjDV+YEjOScJoCaWtAXWnTp0MvwKD4TSR+byXJpye5XNV9VBOrVq1CnXq1MHZs2fVJ0RELkaO87j/fsscX4758PVVHXosVEiUdxhOE9kjYc2779qC6a5dVQdR1kjRixl7r+LV34+hcCYHM/LXyRau6Xuu4HpkvPomIseQ4zzkWA9rQC3HfRg5oGY4TWQ+H8w9qbuu5TlKjmOGXTNERDly9KilMKLM9evWxY3gmyxUSJSPGE4T2dOrly2YbtvWElYT5ZCsiF50KBjvzPbVVkrbG8SkbR5dvfHM+EPam/XA0Fvqm4hyRgoiNmnSJCWgloKJRsVwmsh8ZEVZ6utaXtYSERHllCzIsBYqXPH1iJQ5/9S6r+ieO1ltLFRIlDMMp4nSmjDBFkw//TQQG6s6iBxHzitb6xuCTxf64a7+O+0Ocuy1R3/ej2HrA7QBD1FOhIWFoV69elo4LW3SpEmqx1gYThOZz0fzeV3nFItmEZGru12hQvdvtuDPWrZjPNu37K979qTXWKiQyPEYThOltmQJ4OFheUA9+CAQGqo6iHKPvFXfce4mui07i6pD9tgdBNlrtYfvRe+V57A3IJwDIsoWKY5Vs2ZNLZx2d3fHvHnzVI9xMJwmMp+01/VvOy+rHsqMgQMHom3bthwbEJHLyG6hwpKfr8aZUhW1+X9kwSKo+eFcXT8LFRLlDYbTRFY7d9rOnapQAbhwQXUQ5R2ZSB5OHlgNXOuPh0ft0w2OMmryBv+rv09jk18oEhI5GaXMCwgIQKVKlbSA2tPTUyuWlftiEHRyNzatWYaly9Zi27EryZ9kD8NpIvP5ZIH+up6SV+F0pD92LZuGnwf2Qtevv0a3fj/ij42nEaG6nd2tW7fQrl077X4u7eeff1Y9RETm4ehChY+8MxVxHp5aDhBw7wOYsP4MCxUS5TGG00TCzw8oW9YSTJcsCRw5ojqI8tfZ6zH4adMFPPnrwUwX5SjTdwc+nHcSy45eR0wcix7R7Z08eRLlypXTwgwvLy94e3urHgcLP4lVY7qgVYMKKHtvfTz13FOoc1cheHiUwkPvTMTeMPXXZQHDaSLz6bzQT3ddT9qRy+F0zHlsGPs5mlW/C/e/0Al9Ro3F2BFfonkVT3h4VkHrCYez/QItr1y9ehWNGjVKCaabNm2K69evq14iImOS4vJ5Uagw/texlixA2ldfqX86EeUVhtNEQUFA1aqWB1HBgsDGjaqDyLlcDY/TVo+9MPkIPL+zP9hK22Tw9eYfxzF3XxDCYvj2n9K3f/9+lChRQgs15P/Knx0nEVe2jcWHDcqgaPUX0Wv2HlxWx/nHnJyE1+/2hJtHabSadBbxlo8zjeE0kfl8/pc+nJbVcbklPnAdBr9cDUXvaoousw8hRH2e3APf0S+gWPI90avxYOxx4hIkhw8fRuXKlbX7t7QPPvgAcXHcek5ExiG7R62FCget9UeracdQZdBu3bMgOy3ThQrlGKTXX7cF1IsXqw4iygsMp8m1RUYCjzxieQC5uwNz5qgOIucmQbMEzhI8SwBtbzCWthX8bqsWbEvALUE3UVpbt27VVk5LuCErqWVFdc7F4uzib/BEGU+UbtgFf/lFq8+VmG3o00D+mUXx5FCf5L86axhOE5mPrGZLfV2P25o74XTixVXo8WRZeJb/H/qvvwr9XqNY7B3SGEXdPFCs5VicyuqbszyyYsUKFC9eXLtvS+2AESNGqB4iIud0u0KF2W05LlQo9abuu8+SDZQqBZw/rzqIKLcxnCbXlZAAtGxpefhI++EH1UFkLHJ0hxzhIUd5yJEe9gZraZtsh5OjQuTIEDk6hMhKzpyWs6cl6JCzqOVM6py44T0Iz5T1gGfVtzHN97+/tZi9Q9GkqAfcCt2Pb9aGq08zj+E0kflIDYXU1/XYrRdVjwPFnsDUNvfC0+MuvDL2yH9ejCVeWIRP7y8EN8+KaDvtTJZ3deSFn376CR4eyffP5Pt10aJFsZgr/YjIyWS3UOHtmrVQ4ciNDi5UuGcPkgfClnygYcPkfwEu6CHKCwynyXV17GgLpr/4Qn1IZGxSDFGKIsrEXlYP2BvM2WtSfFGKMEoxRlb3p/nz52sr8CTwqFGjBoLk+KPsuLYWXet7wcOzIt6a6vffcCdkJ35ocRc83Dxxb9tpOJmN9IfhNJH5fL34jO66HuPt6HA6Hqd+fwuVPD3g9Xh/bI9UHyuJV7di5CtV4OlRAvU7L8AZJ0ym5diOhg0bavfpChUq4MCBA6qHiCh/pC1U2OCnnBUqlCZHGdb7cR86zDupvajMk0KFUkzWmhN066Y+JKLcxHCaXNOAAbYHTuvWsrdIdRCZh2yZ2xsQjt4rz6H28L12B3z2WrWhe9Bt2VnsSB78yXeQa5o8ebIWekirV68ewsKyWq0wHFv7N0QxDzd41e+JTRHqYyX6zAoMfKkqCnkUQtVXhmPz1ewV72Q4TWQ+3y7Rh9O/bLmgehzkxkp0eaAQ3DxK4qVxp2wvzhKDceivIWj3cGl4lqiN1oNX4ZwTby6SIoitWrXC5cu5XDCSiCiNvCpUGJuQD/N0yQZeftmWF6xcqTqIKLcwnCbXM3Wq7UHTuDEQwyMNyDVIAZDh6wPw6M/77Q4I7bW7+u/Epwv9sNY3RNuWR65Fzi61BtRPPvkkoqKiVM/tJQbMQPsKcjyI/izp8LNbMXvQe2h4tyc873wU745YidNpVi1mBcNpIvPpulQfTssRVI6TiMAZ7XCXhxs8ij2LQet2YeOSGRjTvzNaPVIBxcrWwYuf/4i/D99IcwY1EZHryfdChfnl+nWgYkVLZlCmDHAxF46XIqIUDKfJtaxaBRQoYHnI1KoF3LihOohcS2DoLW1r3DPjD8Gjq/1BY9pWqvd2vDPbF4sOBSMyllN2VyATkh49eqQE1C1atNC2kt9ePPzGv4JSHsl/n2dFtOgyGH26fIhWTWujvFdJVG38BrqM+hO7L+b85SDDaSLzkd07qa9rWZnnMIlXMLt9eXgk39M8CpVG5Qcbolnr9/BFn5GY8tcWnAx2xtOliYhyn9MWKswv27fbsoOmTS01q4goVzCcJtfh4wMUK2Z5uNx1F6vvEilSQGT6nivaoLFwJs+Fk7/u1d+PacVNrkdyIm9mMnn45JNPUgLqNm3aIDHxNi8nEi/jj7ZltPBHCh2++Fl3DBg1AbOWbMIB/zCHrkZkOE1kPj2W68NpKXjlMNGb0KNuIe1+Vqz5zzhugEdYSEiI+k9ERI5huEKF+WX4cEt+IK1vX/UhETkaw2lyDWfPAnfeaXmoFC8O7N+vOogoNSkw8tehYO3suBK9ttsddKZtBbp649kJhzFu6yVcCL2lvonMRMLotm3bamGOtE6dOmW84iXGG33qe2l/rWfVL7AiB8d2WEWe24w//liPC2mSbYbTROYjK/ZSX9cjNjgwnI5YhI/u8tDuT8VajsWp7ITTiZfhPeErvNrwflSt+gCeeO0rjN104b9FX3NI7r1ff/01qlSpkv3CtETk8kxTqDA/yPnTzz9vyRHc3YF//lEdRORIDKfJ/OS8qJo1LQ8UT09gzRrVQUQZkQIka3xv4JMFp3Bn/512B6b22mO/7NeChJNB0eqbyAzkOI+WLVtqgY607t27px9QR65Blxpy3rQbPCt+gsXh6vP0RIchLJ0TPiLOrMekrq/iwVJu8HpmFA5bD69WGE4TmY8U8k19XQ9bH6B6HCB6Hbreb1k57VmhPWYGpLeXIwxH5vXAx6O2Qf9+LRJ7Rr6A2g3boEvf79Hzkxa4v4QHPEo/iX6bHLfCOTw8XHfP/fDDD1UPEVH6TF2oML/Iy0HZeZ18L9YWvF3hWJPI0RhOk7lFRwONGlkeJNKmT1cdRJQVUqBEVkRIkar7Bme+CIoMiPusPAefwHBjnC1HGYpOvqc2adIkJSwZLlsd7Yn1wdAni1r+ukK18fmy9Ff8hR6Zh26t2uPXg2lSZ008Lhw7hHN+89ChmgfDaSIX0XfVed11PfQfB4bTCMLCjpXhKfcnj0Ko2W4C9qYpQRJ5dh1Gd2yCJz6chsMR6kOr4MXo9dlUHE1JrOMRuOxL1PPyQJm3piHQAecW+fv7o06dOin3WgmpJawmIrKScbVLFirMLxs3WlZOJ9+T8dxzsrVFdRCRIzCcJvOSB8arr9qC6UGDVAcR5YQMhuWMOilqUnekj92Brb1WOXnALGfabT4dioREDnKNKiwsDPXr108JTSZNmqR6UouGd5/68NL+Gg941W6HcTuv6c6aTgw9gRU/foDHH2iBgesuZnwOdexhjPqfF8NpIhfRf7U+nB68zl/1OEbkzqF4upTlaA+5R5Ws1QzvdemJ3j264KPWT6Ja2Rp4qd9S+NnZABR/ZhM2nkhzI4o9hJHPFIVXo4HYncM6rzt27ED58uVT7rFdunS5/Tn/RGRqqQsV9mShwvwzYIAtWxg8WH1IRI7AcJrM67PPbA+Pjz9WHxKRo50JjtG2Dsp2P3sDX3utbN8d2hl1strjVrwLbQs0CTn7tGbNmlpw4u7ujnnz5qkem/gzM9D+XsvRHtI8ilZBo9Yd8NkXndHhrWaoe6cXyjfqjOn7M7ENPv44fm5elOE0kYuQoCT1dT1wrWPDaTma49jszmh4p6elcKu1eZTG/S0+x6/r/WFvL0e6Ev0x6bUSKNP2D1zMQY48Z84cFC5cWPvv4unpmc7LPyIyMxYqdGLyovB//7PkCx4ewJYtqoOIcorhNJlT6qq6L70EJJiwOAORE7p8MxaTdlzWVnRIoRR7g+O0rVjygPutGce1rYM3Y3itGkVgYCAqVaqkhSgFChTAypUrVY9VIi7/MwQvVy+mD3/cPFCoQiO8N2wxjoepv/R2GE4TuRQJo1Nf19+vOa96HCsyYA+WTR+LH3/4EWOn/Yk1+y4gW9USItbg6/uro8Oft9kFkoF+/fql3CfvuOMObNiwQfUQkVmxUKEBXboElCtnyRnuuQcIDlYdRJQTDKfJfGbNsgXTjz2W/NSPUh1ElJdCo+MxZ18Q3ph+HEV6ZG7FR8HvtqLllCP4bedlBEVwRYezO3nyZPL4vJwWpnh5ecHb21v12CQGH8O62eMxashADBz2C6Yu2gq/0CzGNwyniVyKHOOR+rqWYz6cVyIuL/gID780BodzcKRH3759tXtp9erVtXsrEZkLCxWayNq1tryhZUs5d0V1EFF2MZwmc1m/HihY0PKgqFYNuHZNdRBRfoqOS9TOsvtg7kmt0Iq9AXbaJgN22cr4y5YLOH8jh4d4Uq45cOAASpYsqYUqJUqUwL59+1SPAzGcJnIpUgAx9XUtBRKd1o316NWiLSYdzdlzSs55HTJkCG7cSFOdkYgMhYUKXUSvXraAeuRI9SERZRfDaTKPQ4eAEiUsDwjZanP6tOogImcSn5iEjX6h2iqPCgN22R2A22uyRVEG+UcuR7JYi5PZunWrtnJaAuqyZcvC19dX9TgIw2kilzJ8vT6c7r3ynOpxMomBWNL1bfRceSHbx3kQkXGxUKELi48HGje2ZA8FCgA7d6oOIsoOhtNkDgEBljOf5OFQpAiwe7fqICJnJoP6PQHh6JU8oJdCLfYG6PZa9aF7tJUjck6ffAflv1WrVmkFvCSgrlixIvz9HVjAjOE0kUsZsSFQd11L6ON8QrDzl0/w9WxfcG8PkfmxUCH9h2QQpUtbMojKlZMfC5ko8k1EdjGcJqcTHXsLO/0OY862VZj4zwJM2bAIS3024/TVQPtvjENDgQcesL21XL5cdRCRkcj1ffxKlLad+5Gf99sdwNtrd3+/E50X+mFd8oBeJg6Uf+bPnw93d3ctoK5RowaCgoJUTw4xnCZyKRLSpL6ueyw/q3qcRTgO/vYlPpvgA11d18SrOHYs46KIuXL0ERE5FAsVUqYtW2bJIaS99ppMaFQHEWUFw2lyGkcC/PDVHz/g/q6tUO3rl+22pwZ1xPh1fyI8OtLyN926BTRtansgTJpk+ZyIDM8/5BbGeF/E0+MOwaOr/YF+2laq93a8O8cXfx8O1iYWlPcmT56shdPS6tWrh7AwXXSTPRJON2M4TeQqpGBY6uu62zJnCqfDcWByezze7Ev8NHEiJqo2Yewo9PngFXz7t/16J3Fxcfjwww9RoEABrFmzRn1KRPmNhQopx7791pZHjBmjPiSirGA4Tfku4lY0eswdbTeMTq891qc9Vh/YCrz5pu1B0KeP+kYiMhvZ4jht9xW8PPVopleueHXfitd+P4aZe68iJHniQXlnxIgRWjgt7cknn0RUVJTqyabY/Rje1AtejYdgL8NpItP7ebM+nO669IzqyW/xODHtbdQo5JFyj0vdPGt+iRWh6i9N5fr162jatGnKX9esWTPVQ0R5xVqocDkLFZKjxcUBjz1mySQKFgR8fFQHEWUWw2nKV5dDrqH5sM52A+jMtJFN7se/8hB4/331jURkduG3ErTCM+1mnsj0WX8FunrjueSJw/htl7SJCeUumQD26NEjJYhp0aKFtmow6xIR7LMIEwa/iwYlkr+rWD20Hzgei3yCU7bNM5wmMp9ftujD6W+WOEs4nXUnTpxAtWrVUu6H7dq1Q0wMT6kmyk0sVEh57uxZoGRJS0BdtSpw86bqIKLMYDhN+eZG5E08M7iT3dA5K+2n9i0s1XKJyOXIFsnVJ25oAWX5fjvtTiTstYajD+CHDYE4lTxxodwhk7VPPvkkJZBp06YNEhMdf9QKw2ki85EjnVJf118vNmY4vW7dOpQsWTLlPjhgwAAGWUQOxkKF5DT++ssSTkt76y2eP02UBQynKV/IwLzDpO/ths3ZaRuO7lbfTESuSrZQbj0bhm+XnMG9gzO/TfOBET7ou+o89l+IYGjgYBJGt23bNiWY6dSpU8r/j2Nj4rHi1/2Iz+HZ4AynicxHioWlvq6/+vu06sk7cq+S+1R2jR8/XjtfWu59Xl5emDdvnuohouxioUJyep9/bguoWQ+LKNMYTlO+WLHf227InN3W+PsPEBN3S307Ebk6CRUOXoxA/9XnUWekj93JiL0mZw/KCr0tZ8KQkMig2hHkOI+WLVumBNTdu3fX/ve5Ki8S6s/EiNZL4H8kWP3VWcdwmsh85Aim1Ne1FBXLa0HnwvBHt83ZemnZt2/flHveXXfdhd27uYiCKKtYqJAM6dYt4OGHLeF04cLAoUOqg4gywnCa8pwM8p8fnv1zptNrs7etVP8EIiK908HRGLUxEE+MOWB3smKvydmEH80/hZXHb+BWPCcuOREdHY0mTZqkhDXDhw/HiW0XtXBaWtcGM7F89D7EZWOlEsNpIvORVZGpr+vP/vJTPXln25++2v1pw/Sj6pPM27p1KwoVKoSHHnoIgYGB6lMiskfmhixUSKZy6hRQrJgloK5VC4iIUB1ElB6G05TnDpz3tRsu57S9MqqL+icQEaXvUvIEaOL2S2g+6bC2ldPehCZtk7ML28w4gT8PXNMKMlLWhYWFoX79+ikB9YivpqaE09Y2vNUS+B++pv6OzGE4TWQ+k3Zc1l3XnRfmfTg9vevmlHuT745L6tPM++effxDBQIJIh4UKyWXMmWMJp6W9+668hVEdRGQPw2nKc6NXz7EbLjuiXQ8PVf8UIqLbC42Ox2yfILSedgxFemSueI6cbfjilKOYuusKrkWwOE5WBAUFoWbNmlo43bRCG10wnbot/dkHcTGZewnAcJrIfKbs1IfTnyw4pXryRlJiEno3nZdyT5L/fP1CuOolosxgoUJyeR99ZAuop09XHxKRPQynKc99/Ntgu8GyI9qmI3sQHx+vFeHi23IiyorouEQsORKM9+f64o7e2+1OiNI2OfvwqXGHMHrLRfiH8Nz7zJAt7pUqVcKL936uC6TTtmGvLca5Q7dfRc1wmsh85OVf6utarvO8dOHEjf/ck0a9tSxHBRKJzIyFColswqIiMH/nWnz1+1C8+NHzaPTx82jcvQ1e++kb9Jz3K1Yf3I7YeL5UIUqN4TTluVbJN2V7wbIjWvEHKmkr8qzN3d1dq5ResGBBrVJ60aJFUbx4cZQqVQqlS5dG2bJlUb58edx9992oUKGCFpjce++9qFq1KqpXr45atWrh/vvvx4MPPqidG1ivXj00aNAAjz32GBo2bIgnnnhCO0f1qaeewv/+9z8899xzaN68OV544QWtANjLL7+MV199Fa1atcIbb7yBt956C23btkX79u3x7rvv4v3330eHDh3w0Ucf4eOPP0bnzp3x+eef48svv8TXX3+Nb7/9Ft99951WQKxXr17o06cP+vXrhwEDBmDQoEEYMmSIdnbrDz/8gFGjRuHnn3/G6NGj8euvv2pV4idOnIjJkydj6tSpmDZtGv744w/MmjULc+bM0arG//nnn/jrr7/w999/Y8mSJVi+fDlWrlyJ1atXY926dVi/fj02btyILVu2aOcnbt++Hbt27cKePXvg4+ODAwcO4NChQzhy5AiOHTsGX19fnDp1CqdPn8a5c+fg7++vBVGXLl3ClStXtFWT169fR0hIiLbFX7a7RkVFISYmRiualpCQgKQknu1L+S8+MQnrT4Xg87/8cM+AXXYnTfZa/eRJ1OB1/jh2JYovyDJw8uRJvPvA4P+EP/bakh/3ZriKmuE0kfnIdZz6uu44/6TqyRsbZxyzez+a2dM75d4u/3f69OnagggiV8JChUT2SSg9+O8puP+71nazitTt0T7tMXXTYsQl8KUnkWA4TXnupZFf2b1BO6KVqFNZF06zGbd5eHjA09NTKyhUpEgRFCtWDCVKlMAdd9yBMmXKoFy5cloF/HvuuQcVK1ZElSpVcN9996FatWrasQG1a9fGAw88gLp16+Lhhx/Wzrp99NFH8fjjj6NRo0Zo3LgxmjZtiqeffhrPPPMMmjVrhueffx4tWrTASy+9hFdeeQWvvfYaXn/9dbz55pto06YN3n77bbzzzjt477338OGHH6Jjx47o1KkTPvnkE3z22Wf44osv8NVXX+Gbb75B165d0a1bN/Ts2RO9e/fWKvd///33GDhwIAYPHoxhw4ZhxIgRGDlyJH766Sf88ssvGDNmDMaNG4cJEyZg0qRJmDJlCn7//Xdt8jtjxgzMnj0bc+fOxfz587Fw4UIsWrQIixcvxrJly7BixQqsWrUKa9eu1c653LBhAzZv3gxvb29s27YNO3bswO7du7F3717s27cPBw8exOHDh3H06FGcOHFCCwv9/Pxw9uxZnD9/HgEBAbh48SIuX76Mq1evIjg4GDdu3EBoaCjCw8MRGRmpFbm7deuW6XcryPmIu/3D0WP5WdQYtsfupMpek79W/p5d/je17yC93k/PtRv+2GvDXl2MsweC1N+px3CayHym79GH07JyMi9N/ny93XuRtE0zj2kv1lu3bq2NV+S5T2RGMq6TQoUrWKiQ6LZ2nz6Cx/u9azejyKi9POorBFzn2JWI4TTlufbjetu9MTui9RwzVAvyJNCTYE8CPgn6xo4dqwV/EgD++OOPWiAoweDQoUO1oFACQwkOJUCUIFECRQkWJWCUoFEmHhI8SgApQaQEkhJMfvDBB1pQKYFlu3bttABTgkwJNCXYlIBTgk4JPCX4lABUglAJRCUYlYBUglIJTB955BEtQJUgtU6dOlqwKgFrjRo1tMBVglcJYCWIlUBWglkJaCWolcBWglsJcCXIlUBXgl0JeNOGvmxsudkys1vhzjvvTNmtULly5ZTdCvJbz8luhRdffDFlt4KEBjnZrdCjR4+U3Qr9+/fX7Vb4utdANO/YExVe6gK3pz6H29NfwO1/X8Htma/h9uy3cHuuK9yadYNb8x5we74n3F7og1KtB6DZ1z+j7+hpmL9ggbZbYenSpTnarXD8+PGU3QpnzpxJ2a1w4cIFp9+tEB+baDf0uV1bPGrPf7bVM5wmMp8Ze6/qrusP5uZdOJ0Qn4geT8yxew/SWoOZeLb+aynPvWeffRaxsbHq7yYyJhYqJMq+dYd3ota3r9nNJzLTHu/7Dk5d9lffRuSaGE5Tnuu3YLzdm7IjGm/q/yUDQAmfJISSyZOEUhJOSUglYZWEVhJeSYglYZaEWnIUh4RcEnbJER0SfkkIJkd3SCgm4dj+/fu1sExCs507d2ohmoRpEqpJuCYhm4RtErpJ+CYhnBwdIqGcHCUiR4rI0SJyxMjMmTO1I0fk6JHffvtNO4pEjiSRVcRyRIkcVSJHlsjRJXKEiRxlIiGhhIUSGspRJxIiSpgoR6BIuCghY5cuXbTQUcLHTz/9VAsjJZSUcFJCSgkrJbSU8FJCTAkz5QgWCTcl5JSjWST0lPBTJp8Shkoo+uSTT2ohqYSlshpbwlMJUSVMlVBVwlUJWeVoGAldJXyVI2MkjJVQVo6SkZBWwtqSJUtq4a2EuIULF9ZCXQl3JeRNHfqyseV2s+5WkN+hdbeC/D6tuxXkd5uT3Qpy3Vh3K7R4+jX7oU8m2tcNJ+Ozt7un7FZ4sMV7cKv/JtwatIHbI+3Q4t0vtJeMcl/I6m4Fuf9YdyvIfcm6W0HuV9bdCnIfy8xuBbkvWncryP3SultB7qPW3Qpyf7XuVpD7bmZ2K8h9nLUVyOxm+ejD6ffm+Kqe3Ce7NOzde1K3z+pOQMlC5bQFC3I9EhkJCxUSOc4h/1Oo3bWV3WwiK63x9x/gekSY+lYi18NwmvLciv3edm/IOW2P9H47X1YAEuUWCZ4kgJKJrxyfIcGUBFQ3b97UAisJrq5du6YFWRJoyYpZOY5Dgi5ZSSvHdEgAJits5fgOCcYkIJNjPSQwk+BMjvuQIE0CtU2bNmkBmwRta9as0YI3CeBkha8cHyLB3IIFC7RjRSSwk+BOjhvJ7m4FWZFs3a0gK5VzsltBVkpbdyvICmpH7VaQld3W3Qqy4juj3Qp8qZD5VqV4HbuBz+1apwdHo+k9bVDOS19fwJWbdbeC/AatuxXkt2ndrSC/2czsVpBrwLpbQa4N624FuWasuxXkWrLuVpBrLL3dCnJtWncryDVr3a0g17J1t4Jc49bdCnLtW3cryD0h9W4FuWdYayvIvcRaW0HuMdbaCnLvsdZWkHuStbaC3KvkniUvROUelnq3gtzjrLsV5N5n3a0g90TrbgW5V1p3K8g91LpbQe6t1t0Kcs9NvVtB7snW3Qpyr7buVpB7uHW3Al8q3N5snyBd6PXO7LwLp9dOPmT3/pO29Xh2Wobn4RM5AxYqJMo9t+Ji8b/BnexmE9lpn04dor6ZyPUwnKY8FxUbgzrd37B7Q85J+/6vieqfQESUfyR4CouOw9y9l/Hm74dQrOsGuH25Fm6fr4bbZyuT2wq4fboMbp8sSW6L4fbxIrh9tBAeH/2JJwevwoB527DV52imdyvIal3rbgVZxeuo3Qqyuti6W0FWHedkt4Kc0W7drSBnt3do0c1u2GOvdan/O955tBeeb/g6Gj6u360gq7TvqFgdbqWrwO2OSnArVQHl7rGEr1ndrWAv+GVjy80muxXk92fdrSC/S+tuBWvBZtmtYC3YbN2tILtyrLsVZLeOdbeCXBfW3Qqyu8e6W0F2/cjuH3lZZy3YLEeOWQs2W2sryC4ia20FuV6ttRXkOpbrWV4WyvUt17m8RLQWbJaj0KwFm2W3gvUIJOtuBbmPWHcryP3FultB7jvW3QpyP7LuVpD71JfDJsPtpYFwe3kw3F4Ziqe+GZ9yBJJ1t4Lc96y7FeR+aN2tIPdJ624Fa8Fm2a1gLdgsuxWsBZtlt4L1CCTrboXR76+wey+y1+b02cqXDeQ0WKiQKG9N2bDIbi6Rk7br9BH17USuheE05YthS363ezPObqv+zSs4f+2S+nYiIudxKz4JK4/fwEfzT2Xp/MZGow9oW2PlDEizWT3hoN2gx9q6PT4bM7pvwdHNgUiIS1R/l32OPHPa2XcryIpgV9qtwNoKbHndPD0KoUu9aXbvS+m1RhVfSdmtIL9V624F6xFI1t0K8hu37laQ3751t4JcE9bdCtaCzbJbwVqwWXYrWAs2y7Um15xce9bdCnJNWncryLVq3a1gLdgsuxWsBZtlt4K1YLPcA6wFm+XeYD0CybpbQe4h1t0Kcm+x7lawFmyW3QrWgs1yb7IWbJZ7lrVgs9zLrEcgWXcryD3PulvBWrBZditYCzbLbgVrwWa5l1oLNss91lqwWe691iOQrLsV5B5t3a1gLdgsuxXMeASS/PuwUCFR/kpMSkSj/u/ZzSZy0jr9Nkj9E4hcC8Npyhc3oyO1g//t3ZCz04Yunqq+mYjIeSUk/gvvM2H4evEZVM7CRLLOSB/0X31eW7Fkhkn2nL7b7IY8Ez9dhz3LTiMmIvPnVLIgIsk1Ya+2gpzVba2tIKtiHVVbIfVuBdZWMFdthXtLPGT33pRR+7reH6hU/H6738fmXE1+d9bdCtaCzfL7tBZslt+t9Qgk624F+X1bdytYCzbLbgVrwWa5PqwFm+W6sRZsluvJWrBZrjPrEUjW3QrWgs2yW8FasFl2K1gLNsv1LNe1vFh4r9NnePGdT/F4q49wb/MPUaTxu3B7PLk1fA9ujT6A2xMd4Na4Y3LrBLcmn8CtaWe4PfVZqoLNXf5TsPmO1/qiXoehaN19NLr+MAXjfp+l1VaQ+5fcx9Ir2Cz3P2vBZrkvWgs2y/3SWrBZ7qPWgs1yf7UWbJb7blYLNpvtxQKZx+7TR+zmEjltNb55FRExUeqfQuQ6GE5Tvtl28oC24tneTTkr7eVRX2nnPRERGYlMuPZfiEC/Vefx4A8+uoA1o3bv4N34ZskZbD0bZtgVTeM6rkkJdn5qtwJbZh/HzWyuEGc4TWRcch+0t1thxtYzlmOQOi+H26dL8fIY7wx3K8ixHY7YrfDTZ/N0wXNmW8/mU/HD8P/uVpBjTqy7FeT4E0ftVpBjWRy1W0ECWO5WYHPmZi3YLL9Ba8Fm+W1aCzbLb9ZRBZvlWpJryrpbQa41624F6xFIck1aj0CSa9V6BJJcw9YjkOTath6BJNe89QikvCrYnN4RSDkt2Jz6CCR5qWAt2CwvFawFm13lpcLYtfPtZhOOaFtO7FP/FCLXwXCa8tWiPRtyFFA3G/Yprt0MUd9GRGRcp65F44cNgWg4+oAubM2ole+3UwtnVx2/YagzIMd3WotV4w8g6FzOq5IznCYyn0WHgnXX9RvTj6ue3PXz27c/b7rfs39iapeNWPfbYZzcdQlRN11vgUR6uxVk9at1t4Ksis3JbgU56sO6W0GOAHHUbgU5msRRu5F7wKQAAAwvSURBVBXkyJTs7lZ49rlmeOSJp1Cj3hO4q/ajKHZfPbjf8yDc7rofbnfWhlv5GnArVx1uZavCrcy9utoKbiXvhluJu+BWvDzcipWFW9EycCtSCm5eJVGgSAkULFIchYoURWGvIk6/W4HNvC0rBZsddQRS2oLNuXkEUvMeH9jNJxzRpm9Zqu62RK6D4TTlu83HfdCgdzu7N+aM2oeTvkdI5E31LURE5iFnSUpl/ecmHkaBrraAJqNWvOc2tJt5AgsOXnP6qvmOXFHDcJrIfBYf0YfTracdUz25R0LmtEF0j0ZzMLbDGiz92QcH/zmPkMuRLrEikBwrJCoeG/1yt1Ch7MTKzEvq9HYrZKa2gqykdfRuhbyqrSBho3W3goSQ1t0KEk5mtbaChKDW3QoSjlp3K0hoat2tIGGqdbeChKzW3QoSvlprK0goK+GsdbeChLbW3QoS5lp3K/ClgnO2u1973G5G4Yj265q56oolch0Mp8kp3Ii8ie8XTkTtrq3s3qBTt2cGd8JSn82cHBCRS5Dq+zP3XtUKHnl132p3kpq2Feq2FS/9dlSbsF7LwvnNRsRwmsh8lh69rruuX/s998NpKcA68s1l+HPQDuz82w+XToUg0UA7Uij/ydzEWqhw8DrHFiqUl9UsVOi65LcluxXkpYJ1t4K8VLDWVpCXCtbaCvJSQY7hkN0K1pcKslvB+lLBultBXipYdyvISwVrbQV5qWCtrSAvFeR4ENmtIC8V5NgQ2a0gLxXkOBHZrSAvFeSYEdmtYH2pILsVrC8VrLUV5KWCHFsiuxXkpYIcZyK7FaxHIMluBesRSLJbwXoEkuxWsB6BJMemWI9AkuNUrC8V5JgV60sFOX4l9RFIslvBegSSnAVvPQJJjnOxHoEkx7xYj0CS41+sRyDJsTDpHYFU+Y3GdrMKR7QJ/yxQ/8sTuQ6G0+RUQqPCsWDXOnw76ye89tM3eHrQR3hu6Cd4d3wfDF86DTv9DmsPZiIiVxQVm4i/Dwfj3Tm+KNV7u91JbNrm0dUbT487hDHeFxEQckt9k3kwnCYyn+XH9OH0K1OPqp7cw0UPlBVJSf/C71q0tlup14pzeH7SEZTrt0P3u81Oqzhwl/Z7/37Nee0ljTy3+dskcj7f/zXRbrDsiCZHnxK5GobTREREBhSXkIR/Tobgs7/8cPf3O+1Ocu21Bj/tx5B1ATh+JcoUE16G00TmIytPU1/XshOEKL/EJybh8KVI/LHnKrosPo2mYw+iRK/MvSDOqNUcthdtZ57Q6k2sS36em32nE5GZyII6e8GyI5rvpXPqn0LkOhhOExERGZys4Np5/qa25bf60D12J8H2mkyMe644h93+4dp3GBHDaSLzkSKvqa/rF6cwnKa8ITuUdvnfxMTtl7TnyyM/79eOykr9e8xq8/zOG/V+3IcO805i7NaL2HY2DOFOXhuCiDJ2OTTYbrCc09b4+w+4U5xcEsNpIiIiE5HV0EcvR2rnXdZPngzbmyjbaxUG7NIKK204FaqtEjMKhtNE5rPGVx9Ot5h8RPUQOY61UOFPqQoVylFYqX97WW1FemzDE2MOZLlQIREZz4eTvrcbMOekjV49R307kWthOE1ERGRi52/E4JctF7RtyO52JtL2mhRfen+uL5YcCUZ0XKL6JufEcJrIfOSIg9TXtZznS5Rd8tI2daHC1g4uVNhtGQsVErmiA+d97QbM2W31erVFSORN9e1EroXhNBERkYsIiojD1F1XtC3yBb/L3DZlWQX2+vTjmO0ThNDoePVNzoPhNJH5yHn6qa/rZhMPqx6ijKUtVPjC5CMo3y/zdRnSayxUSET29F84wW7QnJ321+5/1LcSuR6G00RERC7oZkwC5h+4hjYzTqBYz212J+Npm5yb2XzSYe0szss3Y9U35S+G00TmI8cLpb6uZXUqUVr2ChUWz+TzLKOWulChvChhoUIiSs+tuFi8Obqb3bA5K63vgvF84UUujeE0ERGRi7sVn4SVx2+g4/yTKNt3h93Jur0m52qO2hiI08HR6pvyHsNpIvPZ5KcPp58Zf0j1kKtioUIiclbh0ZF4e2wvu6FzZpqsvk5Mcu5j9IhyG8NpIiIiSpGQ+C+2nAnD14vPoHIWzuSsM9JH2+588GJEnq78YDhNZD5yD0p9XT89juG0K2GhQiIymvjEBPyyajZqffua3QDaXqvfqx3+3rNBfQORa2M4TURERHZJyCwT+H6rzuOBET52J/z22n2Dd+PbJWe0VWi5XRyK4TSR+WxNvnekvq7luAYyHxYqJCKzCbh+Bd//NVELnu0F0tKeGtQRY9fOR1hUhPq7iIjhNBEREWXKqWvR2hmcDUcfsBsI2GtSiOrjBaew+sSNXFmlxnCayHzkxVbq67oJw2nDs1eosFy/zB8jlV5joUIickYJiYk4euEMFu/diOmbl2KG93KsPLAV54Iu8h5FZAfDaSIiIsoyWe02ftslbXVagUxuty7RazvennUCCw9eQ4SDzvVkOE1kPjvO3dRd143HMJw2EhYqJCIioqxgOE1EREQ5ciMqHjP3XsVrvx+DV/fMFagq3G0rXp56FNN2X0FwZPYDBobTROYjhe9SX9eNRh9QPeRsWKiQiIiIcorhNBERETmMBBV/Hw7Gu3N8Uar3drvBQ9omha7+N/4QfvW+iMDQW+qbMofhNJH57AkI113Xj//CcNoZsFAhERER5QaG00RERJQr4hKSsO5kCDov9MPd3++0G0zYa7Lybtj6AJy4GnXbc/kYThOZz9404fRjv+xXPZQXWKiQiIiI8hLDaSIiIsp1Ugxr5/mbWihRbegeu8GFvVZr+F6teJaspJTvSIvhNJH57AuM0F3X8sKKcgcLFRIREVF+YzhNREREeUoCiiOXIzForT8eHrXPbrBhr0nY8eXfp7Vt5VJwSzCcJjKfAxf04XT9H/epHsoJFiokIiIiZ8RwmoiIiPLVuesx+HnzBTQZexDudoIPe022h38w9yTK9tWv8GM4TWR8hy5F6q5reYlFWcNChURERGQUDKeJiIjIaVwNj8OUnZfRYvIRFPwu60EKw2ki45OdFamv64cYTmeIhQqJiIjIyBhOExERkVMKi0nQima9+cdxFO2Rua3nDKeJjO9omnC6zkgf1ePa0hYqbOXgQoXdl7NQIREREeU9htNERETk9GLiErH82HVtO3mZNEd5pG4Mp4mM7/iVKN11/cAI1wunWaiQiIiIXAXDaSIiIjKUhMR/sckvFF/9fRqVBu7SBS8Mp4mMT1bupr6uaw/fq3rMiYUKiYiIyJUxnCYiIiLDkhV/PoHh6LPynBZgMZwmMr5T16J1IWstE4XTLFRIREREpMdwmoiIiEyDBbuIjE+Os0gdvtYYtkf1GAsLFRIRERHdHsNpIiIiIiJyGmeCY3SBbLWhzh1Os1AhERERUfYxnCYiIiIiIqdx7ro+nL5v8G7Vk/9YqJCIiIjIsRhOExERERGR0/APuaULbu/Np3CahQqJiIiIch/DaSIiIiIichqBofpwuvKg3A+nrYUKJ2xjoUIiIiKivMRwmoiIiIiInMaFNOG0HHnhSPYKFbqn+udlp7FQIREREVH2MJwmIiIiIiKncSksVhf83jMge+E0CxUSEREROT+G00RERERE5DSu3NSH03f136l60sdChURERETGxHCaiIiIiIicRlBEnC4gvjNNOM1ChURERETmwXCaiIiIiIichoTCaYNjFiokIiIiMieG00RERERE5DSuR8bbDZWz01iokIiIiMi5MZwmIiIiIiKnERKVvXCahQqJiIiIjIfhNBEREREROY2wmAS74XPqxkKFRERERObAcJqIiIiIiJyGnP+cOohmoUIiIiIi82I4TURERERETkPOhGahQiIiIiLXwHCaiIiIiIiIiIiIiPIcw2kiIiIiIiIiIiIiynMMp4mIiIiIiIiIiIgozzGcJiIiIiIiIiIiIqI8x3CaiIiIiIiIiIiIiPIcw2kiIiIiIiIiIiIiynMMp4mIiIiIiIiIiIgozzGcJiIiIiIiIiIiIqI8x3CaiIiIiIiIiIiIiPIcw2kiIiIiIiIiIiIiynMMp4mIiIiIiIiIiIgozzGcJiIiIiIiIiIiIqI8x3CaiIiIiIiIiIiIiPIcw2kiIiIiIiIiIiIiymPA/wFhAKt3jCkAWgAAAABJRU5ErkJggg==;" vertex="1" parent="1">
          <mxGeometry x="-370" y="150" width="1447" height="806" as="geometry" />
        </mxCell>
      </root>
    </mxGraphModel>
  </diagram>
</mxfile>
